{"glyphs":{"0":{"ha":904,"x_min":0,"x_max":0,"o":"m 452 -22 b 848 492 699 -22 848 176 b 452 1001 848 808 697 1001 b 56 491 208 1001 56 807 b 452 -22 56 174 206 -22 z m 452 142 b 264 491 336 142 264 269 b 452 837 264 711 337 837 b 640 491 568 837 640 712 b 452 142 640 268 569 142 z "},"1":{"ha":667,"x_min":0,"x_max":0,"o":"m 314 0 l 517 0 l 517 979 l 313 979 l 60 803 l 60 618 l 310 791 l 314 791 z "},"2":{"ha":838,"x_min":0,"x_max":0,"o":"m 58 684 l 58 681 l 248 681 l 248 684 b 412 841 248 774 317 841 b 568 709 503 841 568 783 b 438 493 568 642 537 592 l 69 138 l 69 0 l 781 0 l 781 163 l 339 163 l 339 167 l 578 397 b 767 718 686 504 767 595 b 419 1000 767 881 625 1000 b 58 684 205 1000 58 869 z "},"3":{"ha":875,"x_min":0,"x_max":0,"o":"m 307 427 l 428 427 b 606 283 538 427 606 373 b 431 143 606 201 534 143 b 250 280 323 143 256 197 l 54 280 b 429 -22 63 100 208 -22 b 814 271 654 -22 814 95 b 574 507 814 406 720 494 l 574 511 b 776 739 694 532 776 619 b 433 1000 776 896 637 1000 b 73 701 221 1000 80 882 l 261 701 b 425 843 267 787 330 843 b 583 711 526 843 583 791 b 426 575 583 631 519 575 l 307 575 z "},"4":{"ha":900,"x_min":0,"x_max":0,"o":"m 536 0 l 730 0 l 730 174 l 858 174 l 858 338 l 730 338 l 730 979 l 441 979 b 49 349 241 683 134 511 l 49 174 l 536 174 z m 229 338 b 536 833 308 491 393 625 l 540 833 l 540 332 l 229 332 z "},"5":{"ha":868,"x_min":0,"x_max":0,"o":"m 446 -22 b 823 327 670 -22 823 119 b 502 655 823 517 689 655 b 284 548 402 655 324 614 l 280 548 l 302 816 l 764 816 l 764 979 l 142 979 l 94 416 l 277 416 b 448 506 311 472 374 506 b 628 321 554 506 628 430 b 447 140 628 215 554 140 b 267 280 352 140 279 197 l 78 280 b 446 -22 84 103 235 -22 z "},"6":{"ha":893,"x_min":0,"x_max":0,"o":"m 464 -22 b 840 323 683 -22 840 122 b 516 646 840 509 702 646 b 256 487 391 646 295 583 l 252 487 b 466 839 247 708 330 839 b 625 730 543 839 606 795 l 827 730 b 467 1001 800 890 654 1001 b 57 481 214 1001 57 806 b 139 158 57 351 85 241 b 464 -22 208 41 323 -22 z m 462 141 b 283 319 361 141 283 220 b 463 492 283 418 361 492 b 640 317 565 492 640 418 b 462 141 640 219 562 141 z "},"7":{"ha":795,"x_min":0,"x_max":0,"o":"m 120 0 l 335 0 l 743 814 l 743 979 l 43 979 l 43 816 l 541 816 l 541 812 z "},"8":{"ha":906,"x_min":0,"x_max":0,"o":"m 453 -22 b 850 264 688 -22 850 95 b 620 516 850 393 757 493 l 620 520 b 810 741 734 547 810 635 b 453 1000 810 892 663 1000 b 96 742 243 1000 96 891 b 286 520 96 634 172 547 l 286 516 b 56 265 150 494 56 394 b 453 -22 56 96 216 -22 z m 453 127 b 270 280 345 127 270 192 b 453 433 270 368 345 433 b 635 280 561 433 635 368 b 453 127 635 192 561 127 z m 453 582 b 298 717 362 582 298 639 b 453 852 298 795 362 852 b 608 717 543 852 608 795 b 453 582 608 639 543 582 z "},"9":{"ha":896,"x_min":0,"x_max":0,"o":"m 428 -22 b 839 498 686 -22 839 174 b 757 822 839 629 811 739 b 431 1001 689 938 572 1001 b 54 656 212 1001 54 857 b 378 333 54 470 194 333 b 639 493 507 333 604 397 b 640 493 639 493 640 493 b 641 493 640 493 641 493 b 643 493 641 493 642 493 b 431 140 648 269 566 140 b 269 250 353 140 288 184 l 66 250 b 428 -22 94 90 241 -22 z m 432 487 b 254 662 330 487 254 562 b 433 838 254 760 333 838 b 611 661 533 838 611 760 b 432 487 611 562 534 487 z "}," ":{"ha":298,"x_min":0,"x_max":0,"o":""},"A":{"ha":958,"x_min":0,"x_max":0,"o":"m 722 0 l 940 0 l 600 979 l 359 979 l 19 0 l 229 0 l 304 237 l 648 237 z m 473 791 l 478 791 l 604 391 l 348 391 z "},"À":{"ha":958,"x_min":0,"x_max":0,"o":"m 722 0 l 940 0 l 600 979 l 359 979 l 19 0 l 229 0 l 304 237 l 648 237 z m 473 791 l 478 791 l 604 391 l 348 391 z m 405 1057 l 559 1057 l 401 1267 l 216 1267 z "},"Á":{"ha":958,"x_min":0,"x_max":0,"o":"m 722 0 l 940 0 l 600 979 l 359 979 l 19 0 l 229 0 l 304 237 l 648 237 z m 473 791 l 478 791 l 604 391 l 348 391 z m 553 1053 l 741 1263 l 556 1263 l 399 1053 z "},"Ä":{"ha":958,"x_min":0,"x_max":0,"o":"m 722 0 l 940 0 l 600 979 l 359 979 l 19 0 l 229 0 l 304 237 l 648 237 z m 473 791 l 478 791 l 604 391 l 348 391 z m 338 1059 b 429 1147 390 1059 429 1099 b 338 1236 429 1196 390 1236 b 246 1147 286 1236 246 1196 b 338 1059 246 1099 286 1059 z m 622 1059 b 713 1147 674 1059 713 1099 b 622 1236 713 1196 674 1236 b 530 1147 570 1236 530 1196 b 622 1059 530 1099 570 1059 z "},"Ǟ":{"ha":958,"x_min":0,"x_max":0,"o":"m 722 0 l 940 0 l 600 979 l 359 979 l 19 0 l 229 0 l 304 237 l 648 237 z m 473 791 l 478 791 l 604 391 l 348 391 z m 341 1230 b 254 1145 291 1230 254 1192 b 341 1061 254 1099 291 1061 b 428 1145 390 1061 428 1099 b 341 1230 428 1192 390 1230 z m 245 1406 l 245 1309 l 714 1309 l 714 1406 z m 618 1230 b 531 1145 569 1230 531 1192 b 618 1061 531 1099 569 1061 b 705 1145 668 1061 705 1099 b 618 1230 705 1192 668 1230 z "},"Å":{"ha":958,"x_min":0,"x_max":0,"o":"m 722 0 l 940 0 l 600 979 l 359 979 l 19 0 l 229 0 l 304 237 l 648 237 z m 473 791 l 478 791 l 604 391 l 348 391 z m 479 1026 b 629 1173 562 1026 629 1093 b 479 1320 629 1254 562 1320 b 330 1173 398 1320 330 1254 b 479 1026 330 1093 398 1026 z m 479 1105 b 410 1173 442 1105 410 1136 b 479 1242 410 1211 442 1242 b 549 1173 517 1242 549 1211 b 479 1105 549 1136 517 1105 z "},"Ǻ":{"ha":958,"x_min":0,"x_max":0,"o":"m 722 0 l 940 0 l 600 979 l 359 979 l 19 0 l 229 0 l 304 237 l 648 237 z m 473 791 l 478 791 l 604 391 l 348 391 z m 479 1015 b 619 1152 559 1015 619 1075 b 479 1289 619 1230 559 1289 b 339 1152 400 1289 339 1230 b 479 1015 339 1075 400 1015 z m 479 1089 b 416 1152 444 1089 416 1117 b 479 1215 416 1188 444 1215 b 543 1152 515 1215 543 1188 b 479 1089 543 1117 515 1089 z m 494 1457 l 414 1326 l 548 1326 l 663 1457 z "},"Ã":{"ha":958,"x_min":0,"x_max":0,"o":"m 722 0 l 940 0 l 600 979 l 359 979 l 19 0 l 229 0 l 304 237 l 648 237 z m 473 791 l 478 791 l 604 391 l 348 391 z m 574 1045 b 720 1232 656 1045 720 1116 l 612 1232 b 568 1149 612 1179 597 1149 b 391 1240 519 1149 488 1240 b 245 1057 308 1240 245 1173 l 353 1057 b 399 1137 353 1104 369 1137 b 574 1045 450 1137 481 1045 z "},"Ằ":{"ha":958,"x_min":0,"x_max":0,"o":"m 722 0 l 940 0 l 600 979 l 359 979 l 19 0 l 229 0 l 304 237 l 648 237 z m 473 791 l 478 791 l 604 391 l 348 391 z m 721 1255 l 597 1255 b 479 1155 595 1200 549 1155 b 362 1255 410 1155 363 1200 l 238 1255 b 479 1055 239 1144 330 1055 b 721 1255 629 1055 720 1144 z m 572 1280 l 441 1444 l 269 1444 l 429 1280 z "},"Ǡ":{"ha":958,"x_min":0,"x_max":0,"o":"m 722 0 l 940 0 l 600 979 l 359 979 l 19 0 l 229 0 l 304 237 l 648 237 z m 473 791 l 478 791 l 604 391 l 348 391 z m 479 1055 b 573 1145 533 1055 573 1095 b 479 1235 573 1195 533 1235 b 386 1145 426 1235 386 1195 b 479 1055 386 1095 426 1055 z m 714 1406 l 245 1406 l 245 1309 l 714 1309 z "},"Ḁ":{"ha":958,"x_min":0,"x_max":0,"o":"m 722 0 l 940 0 l 600 979 l 359 979 l 19 0 l 229 0 l 304 237 l 648 237 z m 473 791 l 478 791 l 604 391 l 348 391 z m 479 -393 b 629 -246 562 -393 629 -327 b 479 -99 629 -165 562 -99 b 330 -246 398 -99 330 -165 b 479 -393 330 -327 398 -393 z m 479 -314 b 410 -246 442 -314 410 -283 b 479 -178 410 -209 442 -178 b 549 -246 517 -178 549 -209 b 479 -314 549 -283 517 -314 z "},"Â":{"ha":958,"x_min":0,"x_max":0,"o":"m 722 0 l 940 0 l 600 979 l 359 979 l 19 0 l 229 0 l 304 237 l 648 237 z m 473 791 l 478 791 l 604 391 l 348 391 z m 402 1262 l 216 1046 l 367 1046 l 477 1180 l 481 1180 l 592 1046 l 743 1046 l 557 1262 z "},"Ậ":{"ha":958,"x_min":0,"x_max":0,"o":"m 722 0 l 940 0 l 600 979 l 359 979 l 19 0 l 229 0 l 304 237 l 648 237 z m 473 791 l 478 791 l 604 391 l 348 391 z m 479 -311 b 581 -210 536 -311 581 -265 b 479 -109 581 -154 536 -109 b 378 -210 422 -109 378 -154 b 479 -311 378 -265 422 -311 z m 402 1262 l 216 1046 l 367 1046 l 477 1180 l 481 1180 l 592 1046 l 743 1046 l 557 1262 z "},"Ấ":{"ha":958,"x_min":0,"x_max":0,"o":"m 722 0 l 940 0 l 600 979 l 359 979 l 19 0 l 229 0 l 304 237 l 648 237 z m 473 791 l 478 791 l 604 391 l 348 391 z m 401 1234 l 224 1055 l 382 1055 l 477 1156 l 485 1156 l 579 1055 l 736 1055 l 559 1234 z m 538 1280 l 682 1280 l 842 1444 l 669 1444 z "},"Ẫ":{"ha":958,"x_min":0,"x_max":0,"o":"m 722 0 l 940 0 l 600 979 l 359 979 l 19 0 l 229 0 l 304 237 l 648 237 z m 473 791 l 478 791 l 604 391 l 348 391 z m 570 1270 b 715 1446 653 1270 715 1337 l 611 1446 b 562 1370 608 1397 594 1370 b 393 1456 515 1370 491 1456 b 246 1282 308 1456 246 1393 l 351 1282 b 400 1357 353 1329 368 1357 b 570 1270 453 1357 473 1270 z m 401 1228 l 224 1055 l 380 1055 l 475 1150 l 484 1150 l 578 1055 l 735 1055 l 558 1228 z "},"Ầ":{"ha":958,"x_min":0,"x_max":0,"o":"m 722 0 l 940 0 l 600 979 l 359 979 l 19 0 l 229 0 l 304 237 l 648 237 z m 473 791 l 478 791 l 604 391 l 348 391 z m 401 1234 l 224 1055 l 380 1055 l 475 1156 l 484 1156 l 578 1055 l 735 1055 l 558 1234 z m 713 1280 l 581 1444 l 408 1444 l 570 1280 z "},"Ẩ":{"ha":958,"x_min":0,"x_max":0,"o":"m 722 0 l 940 0 l 600 979 l 359 979 l 19 0 l 229 0 l 304 237 l 648 237 z m 473 791 l 478 791 l 604 391 l 348 391 z m 401 1234 l 224 1055 l 381 1055 l 476 1156 l 484 1156 l 579 1055 l 736 1055 l 559 1234 z m 559 1343 b 626 1355 576 1350 604 1355 b 688 1308 663 1355 688 1336 b 637 1244 688 1282 672 1257 l 700 1178 b 802 1318 764 1202 802 1259 b 651 1447 802 1397 743 1447 b 559 1429 617 1447 581 1440 z "},"Ă":{"ha":958,"x_min":0,"x_max":0,"o":"m 722 0 l 940 0 l 600 979 l 359 979 l 19 0 l 229 0 l 304 237 l 648 237 z m 473 791 l 478 791 l 604 391 l 348 391 z m 240 1261 b 479 1046 242 1141 332 1046 b 719 1261 627 1046 717 1141 l 598 1261 b 479 1145 597 1195 550 1145 b 361 1261 409 1145 362 1195 z "},"Ắ":{"ha":958,"x_min":0,"x_max":0,"o":"m 722 0 l 940 0 l 600 979 l 359 979 l 19 0 l 229 0 l 304 237 l 648 237 z m 473 791 l 478 791 l 604 391 l 348 391 z m 238 1255 b 479 1055 239 1144 330 1055 b 721 1255 629 1055 720 1144 l 597 1255 b 479 1155 595 1200 549 1155 b 362 1255 410 1155 363 1200 z m 387 1280 l 530 1280 l 690 1444 l 518 1444 z "},"Ẵ":{"ha":958,"x_min":0,"x_max":0,"o":"m 722 0 l 940 0 l 600 979 l 359 979 l 19 0 l 229 0 l 304 237 l 648 237 z m 473 791 l 478 791 l 604 391 l 348 391 z m 240 1237 b 479 1055 243 1137 332 1055 b 719 1237 627 1055 715 1137 l 596 1237 b 479 1154 591 1191 547 1154 b 363 1237 412 1154 368 1191 z m 570 1271 b 719 1446 654 1271 719 1339 l 608 1446 b 562 1371 605 1399 591 1371 b 392 1456 517 1371 490 1456 b 240 1286 305 1456 240 1390 l 351 1286 b 399 1356 353 1326 369 1356 b 570 1271 450 1356 473 1271 z "},"Ẳ":{"ha":958,"x_min":0,"x_max":0,"o":"m 722 0 l 940 0 l 600 979 l 359 979 l 19 0 l 229 0 l 304 237 l 648 237 z m 473 791 l 478 791 l 604 391 l 348 391 z m 353 1374 b 420 1388 370 1382 395 1388 b 484 1341 457 1388 484 1369 b 422 1275 484 1314 460 1288 l 473 1211 b 595 1357 543 1236 595 1298 b 446 1477 595 1430 537 1477 b 353 1459 412 1477 372 1469 z m 241 1237 b 479 1055 244 1129 341 1055 b 720 1237 618 1055 716 1129 l 597 1237 b 479 1154 591 1188 544 1154 b 363 1237 415 1154 369 1188 z "},"Ặ":{"ha":958,"x_min":0,"x_max":0,"o":"m 722 0 l 940 0 l 600 979 l 359 979 l 19 0 l 229 0 l 304 237 l 648 237 z m 473 791 l 478 791 l 604 391 l 348 391 z m 479 -311 b 581 -210 536 -311 581 -265 b 479 -109 581 -154 536 -109 b 378 -210 422 -109 378 -154 b 479 -311 378 -265 422 -311 z m 240 1261 b 479 1046 242 1141 332 1046 b 719 1261 627 1046 717 1141 l 598 1261 b 479 1145 597 1195 550 1145 b 361 1261 409 1145 362 1195 z "},"Ȃ":{"ha":958,"x_min":0,"x_max":0,"o":"m 722 0 l 940 0 l 600 979 l 359 979 l 19 0 l 229 0 l 304 237 l 648 237 z m 473 791 l 478 791 l 604 391 l 348 391 z m 240 1046 l 361 1046 b 479 1163 362 1113 409 1163 b 598 1046 550 1163 597 1113 l 719 1046 b 479 1261 717 1167 627 1261 b 240 1046 332 1261 242 1167 z "},"Ǎ":{"ha":958,"x_min":0,"x_max":0,"o":"m 722 0 l 940 0 l 600 979 l 359 979 l 19 0 l 229 0 l 304 237 l 648 237 z m 473 791 l 478 791 l 604 391 l 348 391 z m 402 1046 l 557 1046 l 743 1262 l 592 1262 l 481 1128 l 477 1128 l 367 1262 l 216 1262 z "},"Ȧ":{"ha":958,"x_min":0,"x_max":0,"o":"m 722 0 l 940 0 l 600 979 l 359 979 l 19 0 l 229 0 l 304 237 l 648 237 z m 473 791 l 478 791 l 604 391 l 348 391 z m 479 1059 b 581 1160 536 1059 581 1104 b 479 1260 581 1215 536 1260 b 378 1160 422 1260 378 1215 b 479 1059 378 1104 422 1059 z "},"Ạ":{"ha":958,"x_min":0,"x_max":0,"o":"m 722 0 l 940 0 l 600 979 l 359 979 l 19 0 l 229 0 l 304 237 l 648 237 z m 473 791 l 478 791 l 604 391 l 348 391 z m 479 -311 b 581 -210 536 -311 581 -265 b 479 -109 581 -154 536 -109 b 378 -210 422 -109 378 -154 b 479 -311 378 -265 422 -311 z "},"Ả":{"ha":958,"x_min":0,"x_max":0,"o":"m 722 0 l 940 0 l 600 979 l 359 979 l 19 0 l 229 0 l 304 237 l 648 237 z m 473 791 l 478 791 l 604 391 l 348 391 z m 354 1214 b 426 1227 374 1222 404 1227 b 492 1177 465 1227 492 1206 b 426 1105 492 1147 465 1118 l 484 1034 b 612 1188 559 1063 612 1122 b 451 1320 612 1270 549 1320 b 354 1303 415 1320 378 1314 z "},"Ȁ":{"ha":958,"x_min":0,"x_max":0,"o":"m 722 0 l 940 0 l 600 979 l 359 979 l 19 0 l 229 0 l 304 237 l 648 237 z m 473 791 l 478 791 l 604 391 l 348 391 z m 541 1053 l 691 1053 l 534 1263 l 352 1263 z m 273 1053 l 423 1053 l 266 1263 l 84 1263 z "},"Ā":{"ha":958,"x_min":0,"x_max":0,"o":"m 722 0 l 940 0 l 600 979 l 359 979 l 19 0 l 229 0 l 304 237 l 648 237 z m 473 791 l 478 791 l 604 391 l 348 391 z m 714 1198 l 245 1198 l 245 1101 l 714 1101 z "},"Ą":{"ha":958,"x_min":0,"x_max":0,"o":"m 838 -307 b 924 -296 873 -307 901 -304 l 924 -191 b 882 -194 910 -193 897 -194 b 804 -120 836 -194 804 -164 b 902 5 804 -69 836 -28 l 938 5 l 600 979 l 359 979 l 19 0 l 229 0 l 304 237 l 648 237 l 720 7 l 770 7 b 668 -154 703 -34 668 -88 b 838 -307 668 -244 738 -307 z m 472 787 l 480 787 l 604 391 l 348 391 z "},"B":{"ha":895,"x_min":0,"x_max":0,"o":"m 521 0 b 859 280 730 0 859 108 b 629 517 859 410 762 507 l 629 522 b 812 734 732 538 812 627 b 513 979 812 884 697 979 l 81 979 l 81 0 z m 286 826 l 460 826 b 611 703 556 826 611 781 b 439 572 611 620 549 572 l 286 572 z m 286 153 l 286 437 l 464 437 b 650 296 585 437 650 388 b 469 153 650 203 587 153 z "},"Ḇ":{"ha":895,"x_min":0,"x_max":0,"o":"m 521 0 b 859 280 730 0 859 108 b 629 517 859 410 762 507 l 629 522 b 812 734 732 538 812 627 b 513 979 812 884 697 979 l 81 979 l 81 0 z m 286 826 l 460 826 b 611 703 556 826 611 781 b 439 572 611 620 549 572 l 286 572 z m 286 153 l 286 437 l 464 437 b 650 296 585 437 650 388 b 469 153 650 203 587 153 z m 659 -156 l 190 -156 l 190 -253 l 659 -253 z "},"Ḅ":{"ha":895,"x_min":0,"x_max":0,"o":"m 425 -311 b 526 -210 481 -311 526 -265 b 425 -109 526 -154 481 -109 b 323 -210 368 -109 323 -154 b 425 -311 323 -265 368 -311 z m 521 0 b 859 280 730 0 859 108 b 629 517 859 410 762 507 l 629 522 b 812 734 732 538 812 627 b 513 979 812 884 697 979 l 81 979 l 81 0 z m 286 826 l 460 826 b 611 703 556 826 611 781 b 439 572 611 620 549 572 l 286 572 z m 286 153 l 286 437 l 464 437 b 650 296 585 437 650 388 b 469 153 650 203 587 153 z "},"Ḃ":{"ha":895,"x_min":0,"x_max":0,"o":"m 425 1059 b 526 1160 481 1059 526 1104 b 425 1260 526 1215 481 1260 b 323 1160 368 1260 323 1215 b 425 1059 323 1104 368 1059 z m 521 0 b 859 280 730 0 859 108 b 629 517 859 410 762 507 l 629 522 b 812 734 732 538 812 627 b 513 979 812 884 697 979 l 81 979 l 81 0 z m 286 826 l 460 826 b 611 703 556 826 611 781 b 439 572 611 620 549 572 l 286 572 z m 286 153 l 286 437 l 464 437 b 650 296 585 437 650 388 b 469 153 650 203 587 153 z "},"C":{"ha":989,"x_min":0,"x_max":0,"o":"m 514 -17 b 945 340 754 -17 922 121 l 745 340 b 515 153 724 224 636 153 b 260 490 358 153 260 281 b 514 826 260 696 359 826 b 745 627 633 826 726 747 l 944 627 b 514 996 928 846 749 996 b 51 490 231 996 51 805 b 514 -17 51 174 229 -17 z "},"Ć":{"ha":989,"x_min":0,"x_max":0,"o":"m 579 1054 l 767 1264 l 582 1264 l 425 1054 z m 514 -17 b 945 340 754 -17 922 121 l 745 340 b 515 153 724 224 636 153 b 260 490 358 153 260 281 b 514 826 260 696 359 826 b 745 627 633 826 726 747 l 944 627 b 514 996 928 846 749 996 b 51 490 231 996 51 805 b 514 -17 51 174 229 -17 z "},"Č":{"ha":989,"x_min":0,"x_max":0,"o":"m 514 -17 b 945 340 754 -17 922 121 l 745 340 b 515 153 724 224 636 153 b 260 490 358 153 260 281 b 514 826 260 696 359 826 b 745 627 633 826 726 747 l 944 627 b 514 996 928 846 749 996 b 51 490 231 996 51 805 b 514 -17 51 174 229 -17 z m 428 1047 l 583 1047 l 768 1263 l 618 1263 l 507 1129 l 503 1129 l 393 1263 l 242 1263 z "},"Ĉ":{"ha":989,"x_min":0,"x_max":0,"o":"m 514 -17 b 945 340 754 -17 922 121 l 745 340 b 515 153 724 224 636 153 b 260 490 358 153 260 281 b 514 826 260 696 359 826 b 745 627 633 826 726 747 l 944 627 b 514 996 928 846 749 996 b 51 490 231 996 51 805 b 514 -17 51 174 229 -17 z m 428 1263 l 242 1047 l 393 1047 l 503 1181 l 507 1181 l 618 1047 l 768 1047 l 583 1263 z "},"Ċ":{"ha":989,"x_min":0,"x_max":0,"o":"m 505 1059 b 606 1160 562 1059 606 1105 b 505 1261 606 1216 562 1261 b 404 1160 448 1261 404 1216 b 505 1059 404 1105 448 1059 z m 514 -17 b 945 340 754 -17 922 121 l 745 340 b 515 153 724 224 636 153 b 260 490 358 153 260 281 b 514 826 260 696 359 826 b 745 627 633 826 726 747 l 944 627 b 514 996 928 846 749 996 b 51 490 231 996 51 805 b 514 -17 51 174 229 -17 z "},"Ç":{"ha":989,"x_min":0,"x_max":0,"o":"m 745 340 b 515 153 724 224 636 153 b 260 490 358 153 260 281 b 514 826 260 696 359 826 b 745 627 633 826 726 747 l 944 627 b 514 996 928 846 749 996 b 51 490 231 996 51 805 b 459 -14 51 195 206 9 l 427 -86 l 427 -155 l 465 -155 b 549 -193 526 -155 549 -165 b 477 -230 549 -218 526 -230 b 401 -220 450 -230 417 -226 l 401 -302 b 496 -313 426 -309 459 -313 b 660 -186 599 -312 660 -264 b 534 -79 660 -118 614 -79 l 562 -15 b 945 340 776 2 923 136 z "},"Ḉ":{"ha":989,"x_min":0,"x_max":0,"o":"m 767 1264 l 582 1264 l 425 1054 l 579 1054 z m 745 340 b 515 153 724 224 636 153 b 260 490 358 153 260 281 b 514 826 260 696 359 826 b 745 627 633 826 726 747 l 944 627 b 514 996 928 846 749 996 b 51 490 231 996 51 805 b 459 -14 51 195 206 9 l 427 -86 l 427 -155 l 465 -155 b 549 -193 526 -155 549 -165 b 477 -230 549 -218 526 -230 b 401 -220 450 -230 417 -226 l 401 -302 b 496 -313 426 -309 459 -313 b 660 -186 599 -312 660 -264 b 534 -79 660 -118 614 -79 l 562 -15 b 945 340 776 2 923 136 z "},"D":{"ha":975,"x_min":0,"x_max":0,"o":"m 81 979 l 81 0 l 458 0 b 925 493 752 0 925 182 b 458 979 925 804 752 979 z m 286 810 l 434 810 b 716 492 614 810 716 697 b 434 170 716 281 617 170 l 286 170 z "},"Ḋ":{"ha":975,"x_min":0,"x_max":0,"o":"m 437 1059 b 538 1160 494 1059 538 1104 b 437 1260 538 1215 494 1260 b 336 1160 380 1260 336 1215 b 437 1059 336 1104 380 1059 z m 81 979 l 81 0 l 458 0 b 925 493 752 0 925 182 b 458 979 925 804 752 979 z m 286 810 l 434 810 b 716 492 614 810 716 697 b 434 170 716 281 617 170 l 286 170 z "},"Ḓ":{"ha":975,"x_min":0,"x_max":0,"o":"m 81 979 l 81 0 l 458 0 b 925 493 752 0 925 182 b 458 979 925 804 752 979 z m 286 810 l 434 810 b 716 492 614 810 716 697 b 434 170 716 281 617 170 l 286 170 z m 359 -109 l 174 -324 l 324 -324 l 435 -191 l 439 -191 l 549 -324 l 700 -324 l 514 -109 z "},"Ḑ":{"ha":975,"x_min":0,"x_max":0,"o":"m 422 -339 l 530 -105 l 357 -105 l 275 -339 z m 81 979 l 81 0 l 458 0 b 925 493 752 0 925 182 b 458 979 925 804 752 979 z m 286 810 l 434 810 b 716 492 614 810 716 697 b 434 170 716 281 617 170 l 286 170 z "},"Ḏ":{"ha":975,"x_min":0,"x_max":0,"o":"m 671 -156 l 202 -156 l 202 -253 l 671 -253 z m 81 979 l 81 0 l 458 0 b 925 493 752 0 925 182 b 458 979 925 804 752 979 z m 286 810 l 434 810 b 716 492 614 810 716 697 b 434 170 716 281 617 170 l 286 170 z "},"Ď":{"ha":975,"x_min":0,"x_max":0,"o":"m 359 1046 l 514 1046 l 700 1262 l 549 1262 l 439 1128 l 435 1128 l 324 1262 l 174 1262 z m 81 979 l 81 0 l 458 0 b 925 493 752 0 925 182 b 458 979 925 804 752 979 z m 286 810 l 434 810 b 716 492 614 810 716 697 b 434 170 716 281 617 170 l 286 170 z "},"Ḍ":{"ha":975,"x_min":0,"x_max":0,"o":"m 437 -311 b 538 -210 494 -311 538 -265 b 437 -109 538 -154 494 -109 b 336 -210 380 -109 336 -154 b 437 -311 336 -265 380 -311 z m 81 979 l 81 0 l 458 0 b 925 493 752 0 925 182 b 458 979 925 804 752 979 z m 286 810 l 434 810 b 716 492 614 810 716 697 b 434 170 716 281 617 170 l 286 170 z "},"Đ":{"ha":1029,"x_min":0,"x_max":0,"o":"m 322 170 l 322 422 l 502 422 l 502 572 l 322 572 l 322 810 l 470 810 b 752 492 650 810 752 697 b 470 170 752 281 653 170 z m 117 979 l 117 572 l 58 572 l 58 422 l 117 422 l 117 0 l 494 0 b 961 493 788 0 961 182 b 494 979 961 804 788 979 z "},"E":{"ha":796,"x_min":0,"x_max":0,"o":"m 730 170 l 286 170 l 286 416 l 705 416 l 705 574 l 286 574 l 286 810 l 730 810 l 730 979 l 81 979 l 81 0 l 730 0 z "},"È":{"ha":796,"x_min":0,"x_max":0,"o":"m 331 1057 l 485 1057 l 328 1267 l 142 1267 z m 730 170 l 286 170 l 286 416 l 705 416 l 705 574 l 286 574 l 286 810 l 730 810 l 730 979 l 81 979 l 81 0 l 730 0 z "},"Ȅ":{"ha":796,"x_min":0,"x_max":0,"o":"m 467 1053 l 617 1053 l 460 1263 l 278 1263 z m 199 1053 l 349 1053 l 192 1263 l 10 1263 z m 730 170 l 286 170 l 286 416 l 705 416 l 705 574 l 286 574 l 286 810 l 730 810 l 730 979 l 81 979 l 81 0 l 730 0 z "},"É":{"ha":796,"x_min":0,"x_max":0,"o":"m 479 1053 l 667 1263 l 482 1263 l 325 1053 z m 730 170 l 286 170 l 286 416 l 705 416 l 705 574 l 286 574 l 286 810 l 730 810 l 730 979 l 81 979 l 81 0 l 730 0 z "},"Ê":{"ha":796,"x_min":0,"x_max":0,"o":"m 328 1262 l 142 1046 l 293 1046 l 404 1180 l 408 1180 l 518 1046 l 669 1046 l 483 1262 z m 730 170 l 286 170 l 286 416 l 705 416 l 705 574 l 286 574 l 286 810 l 730 810 l 730 979 l 81 979 l 81 0 l 730 0 z "},"Ể":{"ha":796,"x_min":0,"x_max":0,"o":"m 730 170 l 286 170 l 286 416 l 705 416 l 705 574 l 286 574 l 286 810 l 730 810 l 730 979 l 81 979 l 81 0 l 730 0 z m 328 1234 l 151 1055 l 307 1055 l 402 1156 l 410 1156 l 505 1055 l 662 1055 l 486 1234 z m 486 1343 b 552 1355 503 1350 530 1355 b 614 1308 589 1355 614 1336 b 564 1244 614 1282 598 1257 l 626 1178 b 728 1318 690 1202 728 1259 b 577 1447 728 1397 669 1447 b 486 1429 543 1447 507 1440 z "},"Ề":{"ha":796,"x_min":0,"x_max":0,"o":"m 730 170 l 286 170 l 286 416 l 705 416 l 705 574 l 286 574 l 286 810 l 730 810 l 730 979 l 81 979 l 81 0 l 730 0 z m 327 1234 l 150 1055 l 307 1055 l 401 1156 l 410 1156 l 505 1055 l 661 1055 l 484 1234 z m 639 1280 l 507 1444 l 334 1444 l 496 1280 z "},"Ễ":{"ha":796,"x_min":0,"x_max":0,"o":"m 496 1270 b 642 1446 579 1270 642 1337 l 537 1446 b 488 1370 534 1397 520 1370 b 319 1456 441 1370 417 1456 b 172 1282 234 1456 172 1393 l 277 1282 b 326 1357 279 1329 294 1357 b 496 1270 379 1357 399 1270 z m 327 1228 l 150 1055 l 307 1055 l 401 1150 l 410 1150 l 505 1055 l 661 1055 l 484 1228 z m 730 170 l 286 170 l 286 416 l 705 416 l 705 574 l 286 574 l 286 810 l 730 810 l 730 979 l 81 979 l 81 0 l 730 0 z "},"Ệ":{"ha":796,"x_min":0,"x_max":0,"o":"m 406 -311 b 507 -210 463 -311 507 -265 b 406 -109 507 -154 463 -109 b 304 -210 349 -109 304 -154 b 406 -311 304 -265 349 -311 z m 328 1262 l 142 1046 l 293 1046 l 404 1180 l 408 1180 l 518 1046 l 669 1046 l 483 1262 z m 730 170 l 286 170 l 286 416 l 705 416 l 705 574 l 286 574 l 286 810 l 730 810 l 730 979 l 81 979 l 81 0 l 730 0 z "},"Ế":{"ha":796,"x_min":0,"x_max":0,"o":"m 730 170 l 286 170 l 286 416 l 705 416 l 705 574 l 286 574 l 286 810 l 730 810 l 730 979 l 81 979 l 81 0 l 730 0 z m 328 1234 l 151 1055 l 308 1055 l 403 1156 l 411 1156 l 505 1055 l 663 1055 l 486 1234 z m 465 1280 l 608 1280 l 768 1444 l 595 1444 z "},"Ë":{"ha":796,"x_min":0,"x_max":0,"o":"m 264 1059 b 355 1147 316 1059 355 1099 b 264 1236 355 1196 316 1236 b 172 1147 212 1236 172 1196 b 264 1059 172 1099 212 1059 z m 548 1059 b 640 1147 600 1059 640 1099 b 548 1236 640 1196 600 1236 b 456 1147 496 1236 456 1196 b 548 1059 456 1099 496 1059 z m 730 170 l 286 170 l 286 416 l 705 416 l 705 574 l 286 574 l 286 810 l 730 810 l 730 979 l 81 979 l 81 0 l 730 0 z "},"Ẹ":{"ha":796,"x_min":0,"x_max":0,"o":"m 406 -311 b 507 -210 463 -311 507 -265 b 406 -109 507 -154 463 -109 b 304 -210 349 -109 304 -154 b 406 -311 304 -265 349 -311 z m 730 170 l 286 170 l 286 416 l 705 416 l 705 574 l 286 574 l 286 810 l 730 810 l 730 979 l 81 979 l 81 0 l 730 0 z "},"Ȇ":{"ha":796,"x_min":0,"x_max":0,"o":"m 730 170 l 286 170 l 286 416 l 705 416 l 705 574 l 286 574 l 286 810 l 730 810 l 730 979 l 81 979 l 81 0 l 730 0 z m 166 1046 l 287 1046 b 406 1163 288 1113 335 1163 b 524 1046 476 1163 523 1113 l 645 1046 b 406 1261 643 1167 553 1261 b 166 1046 258 1261 168 1167 z "},"Ẻ":{"ha":796,"x_min":0,"x_max":0,"o":"m 730 170 l 286 170 l 286 416 l 705 416 l 705 574 l 286 574 l 286 810 l 730 810 l 730 979 l 81 979 l 81 0 l 730 0 z m 280 1214 b 352 1227 300 1222 330 1227 b 418 1177 391 1227 418 1206 b 352 1105 418 1147 391 1118 l 410 1034 b 538 1188 485 1063 538 1122 b 377 1320 538 1270 475 1320 b 280 1303 341 1320 304 1314 z "},"Ě":{"ha":796,"x_min":0,"x_max":0,"o":"m 328 1046 l 483 1046 l 669 1262 l 518 1262 l 408 1128 l 404 1128 l 293 1262 l 142 1262 z m 730 170 l 286 170 l 286 416 l 705 416 l 705 574 l 286 574 l 286 810 l 730 810 l 730 979 l 81 979 l 81 0 l 730 0 z "},"Ē":{"ha":796,"x_min":0,"x_max":0,"o":"m 730 170 l 286 170 l 286 416 l 705 416 l 705 574 l 286 574 l 286 810 l 730 810 l 730 979 l 81 979 l 81 0 l 730 0 z m 640 1198 l 171 1198 l 171 1101 l 640 1101 z "},"Ḕ":{"ha":796,"x_min":0,"x_max":0,"o":"m 171 1101 l 640 1101 l 640 1198 l 171 1198 z m 481 1280 l 350 1444 l 178 1444 l 338 1280 z m 730 170 l 286 170 l 286 416 l 705 416 l 705 574 l 286 574 l 286 810 l 730 810 l 730 979 l 81 979 l 81 0 l 730 0 z "},"Ḗ":{"ha":796,"x_min":0,"x_max":0,"o":"m 640 1101 l 640 1198 l 171 1198 l 171 1101 z m 330 1280 l 473 1280 l 633 1444 l 461 1444 z m 730 170 l 286 170 l 286 416 l 705 416 l 705 574 l 286 574 l 286 810 l 730 810 l 730 979 l 81 979 l 81 0 l 730 0 z "},"Ẽ":{"ha":796,"x_min":0,"x_max":0,"o":"m 730 170 l 286 170 l 286 416 l 705 416 l 705 574 l 286 574 l 286 810 l 730 810 l 730 979 l 81 979 l 81 0 l 730 0 z m 500 1045 b 646 1232 583 1045 646 1116 l 538 1232 b 494 1149 538 1179 524 1149 b 317 1240 446 1149 414 1240 b 172 1057 234 1240 172 1173 l 279 1057 b 326 1137 279 1104 295 1137 b 500 1045 376 1137 408 1045 z "},"Ḙ":{"ha":796,"x_min":0,"x_max":0,"o":"m 730 170 l 286 170 l 286 416 l 705 416 l 705 574 l 286 574 l 286 810 l 730 810 l 730 979 l 81 979 l 81 0 l 730 0 z m 328 -109 l 142 -324 l 293 -324 l 404 -191 l 408 -191 l 518 -324 l 669 -324 l 483 -109 z "},"Ĕ":{"ha":796,"x_min":0,"x_max":0,"o":"m 730 170 l 286 170 l 286 416 l 705 416 l 705 574 l 286 574 l 286 810 l 730 810 l 730 979 l 81 979 l 81 0 l 730 0 z m 166 1261 b 406 1046 168 1141 258 1046 b 645 1261 553 1046 643 1141 l 524 1261 b 406 1145 523 1195 476 1145 b 287 1261 335 1145 288 1195 z "},"Ḛ":{"ha":796,"x_min":0,"x_max":0,"o":"m 500 -295 b 646 -109 583 -295 646 -224 l 538 -109 b 494 -191 538 -161 524 -191 b 317 -100 446 -191 414 -100 b 172 -283 234 -100 172 -167 l 279 -283 b 326 -203 279 -236 295 -203 b 500 -295 376 -203 408 -295 z m 730 170 l 286 170 l 286 416 l 705 416 l 705 574 l 286 574 l 286 810 l 730 810 l 730 979 l 81 979 l 81 0 l 730 0 z "},"Ė":{"ha":796,"x_min":0,"x_max":0,"o":"m 406 1059 b 507 1160 463 1059 507 1104 b 406 1260 507 1215 463 1260 b 304 1160 349 1260 304 1215 b 406 1059 304 1104 349 1059 z m 730 170 l 286 170 l 286 416 l 705 416 l 705 574 l 286 574 l 286 810 l 730 810 l 730 979 l 81 979 l 81 0 l 730 0 z "},"Ȩ":{"ha":796,"x_min":0,"x_max":0,"o":"m 730 810 l 730 979 l 81 979 l 81 0 l 366 0 l 327 -86 l 327 -155 l 365 -155 b 450 -193 426 -155 450 -165 b 377 -230 450 -218 426 -230 b 302 -220 350 -230 317 -226 l 302 -302 b 397 -313 326 -309 359 -313 b 560 -186 499 -312 560 -264 b 435 -79 560 -118 514 -79 l 468 0 l 730 0 l 730 170 l 286 170 l 286 416 l 705 416 l 705 574 l 286 574 l 286 810 z "},"Ḝ":{"ha":796,"x_min":0,"x_max":0,"o":"m 524 1261 b 406 1145 523 1195 476 1145 b 287 1261 335 1145 288 1195 l 166 1261 b 406 1046 168 1141 258 1046 b 645 1261 553 1046 643 1141 z m 730 810 l 730 979 l 81 979 l 81 0 l 366 0 l 327 -86 l 327 -155 l 365 -155 b 450 -193 426 -155 450 -165 b 377 -230 450 -218 426 -230 b 302 -220 350 -230 317 -226 l 302 -302 b 397 -313 326 -309 359 -313 b 560 -186 499 -312 560 -264 b 435 -79 560 -118 514 -79 l 468 0 l 730 0 l 730 170 l 286 170 l 286 416 l 705 416 l 705 574 l 286 574 l 286 810 z "},"Ę":{"ha":796,"x_min":0,"x_max":0,"o":"m 563 0 b 465 -161 496 -43 465 -94 b 637 -307 465 -250 532 -307 b 730 -293 675 -307 710 -302 l 730 -189 b 681 -194 715 -193 701 -194 b 602 -125 633 -194 602 -166 b 730 20 602 -68 644 -20 l 730 170 l 286 170 l 286 416 l 705 416 l 705 574 l 286 574 l 286 810 l 730 810 l 730 979 l 81 979 l 81 0 z "},"F":{"ha":762,"x_min":0,"x_max":0,"o":"m 286 0 l 286 385 l 684 385 l 684 547 l 286 547 l 286 810 l 722 810 l 722 979 l 81 979 l 81 0 z "},"Ḟ":{"ha":762,"x_min":0,"x_max":0,"o":"m 393 1059 b 494 1160 450 1059 494 1104 b 393 1260 494 1215 450 1260 b 292 1160 336 1260 292 1215 b 393 1059 292 1104 336 1059 z m 286 0 l 286 385 l 684 385 l 684 547 l 286 547 l 286 810 l 722 810 l 722 979 l 81 979 l 81 0 z "},"G":{"ha":1010,"x_min":0,"x_max":0,"o":"m 956 411 l 956 522 l 544 522 l 544 372 l 757 372 l 756 357 b 526 153 752 235 659 153 b 260 495 363 153 260 283 b 518 826 260 703 357 826 b 742 663 629 826 712 765 l 947 663 b 517 996 918 861 746 996 b 51 492 230 996 51 806 b 522 -17 51 174 230 -17 b 956 411 795 -17 956 144 z "},"Ǵ":{"ha":1010,"x_min":0,"x_max":0,"o":"m 583 1053 l 771 1263 l 586 1263 l 429 1053 z m 956 411 l 956 522 l 544 522 l 544 372 l 757 372 l 756 357 b 526 153 752 235 659 153 b 260 495 363 153 260 283 b 518 826 260 703 357 826 b 742 663 629 826 712 765 l 947 663 b 517 996 918 861 746 996 b 51 492 230 996 51 806 b 522 -17 51 174 230 -17 b 956 411 795 -17 956 144 z "},"Ǧ":{"ha":1010,"x_min":0,"x_max":0,"o":"m 432 1046 l 587 1046 l 772 1262 l 622 1262 l 511 1128 l 507 1128 l 397 1262 l 246 1262 z m 956 411 l 956 522 l 544 522 l 544 372 l 757 372 l 756 357 b 526 153 752 235 659 153 b 260 495 363 153 260 283 b 518 826 260 703 357 826 b 742 663 629 826 712 765 l 947 663 b 517 996 918 861 746 996 b 51 492 230 996 51 806 b 522 -17 51 174 230 -17 b 956 411 795 -17 956 144 z "},"Ĝ":{"ha":1010,"x_min":0,"x_max":0,"o":"m 432 1262 l 246 1046 l 397 1046 l 507 1180 l 511 1180 l 622 1046 l 772 1046 l 587 1262 z m 956 411 l 956 522 l 544 522 l 544 372 l 757 372 l 756 357 b 526 153 752 235 659 153 b 260 495 363 153 260 283 b 518 826 260 703 357 826 b 742 663 629 826 712 765 l 947 663 b 517 996 918 861 746 996 b 51 492 230 996 51 806 b 522 -17 51 174 230 -17 b 956 411 795 -17 956 144 z "},"Ğ":{"ha":1010,"x_min":0,"x_max":0,"o":"m 956 411 l 956 522 l 544 522 l 544 372 l 757 372 l 756 357 b 526 153 752 235 659 153 b 260 495 363 153 260 283 b 518 826 260 703 357 826 b 742 663 629 826 712 765 l 947 663 b 517 996 918 861 746 996 b 51 492 230 996 51 806 b 522 -17 51 174 230 -17 b 956 411 795 -17 956 144 z m 270 1261 b 509 1046 272 1141 361 1046 b 749 1261 657 1046 747 1141 l 628 1261 b 509 1145 627 1195 580 1145 b 391 1261 439 1145 392 1195 z "},"Ḡ":{"ha":1010,"x_min":0,"x_max":0,"o":"m 956 411 l 956 522 l 544 522 l 544 372 l 757 372 l 756 357 b 526 153 752 235 659 153 b 260 495 363 153 260 283 b 518 826 260 703 357 826 b 742 663 629 826 712 765 l 947 663 b 517 996 918 861 746 996 b 51 492 230 996 51 806 b 522 -17 51 174 230 -17 b 956 411 795 -17 956 144 z m 744 1198 l 275 1198 l 275 1101 l 744 1101 z "},"Ġ":{"ha":1010,"x_min":0,"x_max":0,"o":"m 509 1059 b 610 1160 566 1059 610 1104 b 509 1260 610 1215 566 1260 b 408 1160 452 1260 408 1215 b 509 1059 408 1104 452 1059 z m 956 411 l 956 522 l 544 522 l 544 372 l 757 372 l 756 357 b 526 153 752 235 659 153 b 260 495 363 153 260 283 b 518 826 260 703 357 826 b 742 663 629 826 712 765 l 947 663 b 517 996 918 861 746 996 b 51 492 230 996 51 806 b 522 -17 51 174 230 -17 b 956 411 795 -17 956 144 z "},"Ģ":{"ha":1010,"x_min":0,"x_max":0,"o":"m 494 -339 l 603 -105 l 429 -105 l 347 -339 z m 956 411 l 956 522 l 544 522 l 544 372 l 757 372 l 756 357 b 526 153 752 235 659 153 b 260 495 363 153 260 283 b 518 826 260 703 357 826 b 742 663 629 826 712 765 l 947 663 b 517 996 918 861 746 996 b 51 492 230 996 51 806 b 522 -17 51 174 230 -17 b 956 411 795 -17 956 144 z "},"H":{"ha":1013,"x_min":0,"x_max":0,"o":"m 932 0 l 932 979 l 727 979 l 727 581 l 286 581 l 286 979 l 81 979 l 81 0 l 286 0 l 286 412 l 727 412 l 727 0 z "},"Ḧ":{"ha":1013,"x_min":0,"x_max":0,"o":"m 932 0 l 932 979 l 727 979 l 727 581 l 286 581 l 286 979 l 81 979 l 81 0 l 286 0 l 286 412 l 727 412 l 727 0 z m 365 1059 b 456 1147 417 1059 456 1099 b 365 1236 456 1196 417 1236 b 273 1147 313 1236 273 1196 b 365 1059 273 1099 313 1059 z m 649 1059 b 741 1147 701 1059 741 1099 b 649 1236 741 1196 701 1236 b 557 1147 597 1236 557 1196 b 649 1059 557 1099 597 1059 z "},"Ȟ":{"ha":1013,"x_min":0,"x_max":0,"o":"m 932 0 l 932 979 l 727 979 l 727 581 l 286 581 l 286 979 l 81 979 l 81 0 l 286 0 l 286 412 l 727 412 l 727 0 z m 429 1046 l 584 1046 l 770 1262 l 619 1262 l 509 1128 l 505 1128 l 394 1262 l 243 1262 z "},"Ĥ":{"ha":1013,"x_min":0,"x_max":0,"o":"m 932 0 l 932 979 l 727 979 l 727 581 l 286 581 l 286 979 l 81 979 l 81 0 l 286 0 l 286 412 l 727 412 l 727 0 z m 429 1262 l 243 1046 l 394 1046 l 505 1180 l 509 1180 l 619 1046 l 770 1046 l 584 1262 z "},"Ḥ":{"ha":1013,"x_min":0,"x_max":0,"o":"m 932 0 l 932 979 l 727 979 l 727 581 l 286 581 l 286 979 l 81 979 l 81 0 l 286 0 l 286 412 l 727 412 l 727 0 z m 507 -311 b 608 -210 564 -311 608 -265 b 507 -109 608 -154 564 -109 b 406 -210 450 -109 406 -154 b 507 -311 406 -265 450 -311 z "},"Ḣ":{"ha":1013,"x_min":0,"x_max":0,"o":"m 932 0 l 932 979 l 727 979 l 727 581 l 286 581 l 286 979 l 81 979 l 81 0 l 286 0 l 286 412 l 727 412 l 727 0 z m 507 1059 b 608 1160 564 1059 608 1104 b 507 1260 608 1215 564 1260 b 406 1160 450 1260 406 1215 b 507 1059 406 1104 450 1059 z "},"Ḫ":{"ha":1013,"x_min":0,"x_max":0,"o":"m 267 -119 b 507 -334 269 -240 359 -334 b 746 -119 654 -334 744 -240 l 625 -119 b 507 -236 624 -186 577 -236 b 388 -119 436 -236 389 -186 z m 932 0 l 932 979 l 727 979 l 727 581 l 286 581 l 286 979 l 81 979 l 81 0 l 286 0 l 286 412 l 727 412 l 727 0 z "},"Ḩ":{"ha":1013,"x_min":0,"x_max":0,"o":"m 727 979 l 727 581 l 286 581 l 286 979 l 81 979 l 81 0 l 110 0 l 71 -86 l 71 -155 l 109 -155 b 193 -193 170 -155 193 -165 b 121 -230 193 -218 170 -230 b 45 -220 94 -230 61 -226 l 45 -302 b 140 -313 70 -309 103 -313 b 304 -186 243 -312 304 -264 b 178 -79 304 -118 258 -79 l 212 0 l 286 0 l 286 412 l 727 412 l 727 0 l 932 0 l 932 979 z "},"Ħ":{"ha":1042,"x_min":0,"x_max":0,"o":"m 741 581 l 300 581 l 300 713 l 741 713 z m 1018 857 l 946 857 l 946 979 l 741 979 l 741 857 l 300 857 l 300 979 l 96 979 l 96 857 l 24 857 l 24 713 l 96 713 l 96 0 l 300 0 l 300 412 l 741 412 l 741 0 l 946 0 l 946 713 l 1018 713 z "},"I":{"ha":368,"x_min":0,"x_max":0,"o":"m 286 0 l 286 979 l 81 979 l 81 0 z "},"İ":{"ha":368,"x_min":0,"x_max":0,"o":"m 286 0 l 286 979 l 81 979 l 81 0 z m 184 1059 b 285 1160 241 1059 285 1104 b 184 1260 285 1215 241 1260 b 83 1160 127 1260 83 1215 b 184 1059 83 1104 127 1059 z "},"Ì":{"ha":368,"x_min":0,"x_max":0,"o":"m 286 0 l 286 979 l 81 979 l 81 0 z m 109 1057 l 263 1057 l 106 1267 l -79 1267 z "},"Ȉ":{"ha":368,"x_min":0,"x_max":0,"o":"m 286 0 l 286 979 l 81 979 l 81 0 z m 245 1053 l 395 1053 l 239 1263 l 56 1263 z m -23 1053 l 127 1053 l -30 1263 l -212 1263 z "},"Í":{"ha":368,"x_min":0,"x_max":0,"o":"m 286 0 l 286 979 l 81 979 l 81 0 z m 258 1053 l 446 1263 l 260 1263 l 103 1053 z "},"Î":{"ha":368,"x_min":0,"x_max":0,"o":"m 286 0 l 286 979 l 81 979 l 81 0 z m 106 1262 l -79 1046 l 71 1046 l 182 1180 l 186 1180 l 296 1046 l 447 1046 l 261 1262 z "},"Ǐ":{"ha":368,"x_min":0,"x_max":0,"o":"m 286 0 l 286 979 l 81 979 l 81 0 z m 106 1046 l 261 1046 l 447 1262 l 296 1262 l 186 1128 l 182 1128 l 71 1262 l -79 1262 z "},"Ï":{"ha":368,"x_min":0,"x_max":0,"o":"m 286 0 l 286 979 l 81 979 l 81 0 z m 42 1059 b 134 1147 94 1059 134 1099 b 42 1236 134 1196 94 1236 b -50 1147 -10 1236 -50 1196 b 42 1059 -50 1099 -10 1059 z m 326 1059 b 418 1147 378 1059 418 1099 b 326 1236 418 1196 378 1236 b 235 1147 274 1236 235 1196 b 326 1059 235 1099 274 1059 z "},"Ḯ":{"ha":368,"x_min":0,"x_max":0,"o":"m 286 0 l 286 979 l 81 979 l 81 0 z m 108 1280 l 251 1280 l 412 1444 l 239 1444 z m 45 1061 b 132 1145 94 1061 132 1099 b 45 1230 132 1192 94 1230 b -42 1145 -5 1230 -42 1192 b 45 1061 -42 1099 -5 1061 z m 322 1061 b 410 1145 372 1061 410 1099 b 322 1230 410 1192 372 1230 b 235 1145 273 1230 235 1192 b 322 1061 235 1099 273 1061 z "},"Ĭ":{"ha":368,"x_min":0,"x_max":0,"o":"m 286 0 l 286 979 l 81 979 l 81 0 z m -56 1261 b 184 1046 -54 1141 36 1046 b 423 1261 332 1046 421 1141 l 302 1261 b 184 1145 301 1195 254 1145 b 65 1261 113 1145 66 1195 z "},"Ị":{"ha":368,"x_min":0,"x_max":0,"o":"m 286 0 l 286 979 l 81 979 l 81 0 z m 184 -311 b 285 -210 241 -311 285 -265 b 184 -109 285 -154 241 -109 b 83 -210 127 -109 83 -154 b 184 -311 83 -265 127 -311 z "},"Ȋ":{"ha":368,"x_min":0,"x_max":0,"o":"m 286 0 l 286 979 l 81 979 l 81 0 z m -56 1046 l 65 1046 b 184 1163 66 1113 113 1163 b 302 1046 254 1163 301 1113 l 423 1046 b 184 1261 421 1167 332 1261 b -56 1046 36 1261 -54 1167 z "},"Ī":{"ha":368,"x_min":0,"x_max":0,"o":"m 286 0 l 286 979 l 81 979 l 81 0 z m 418 1198 l -51 1198 l -51 1101 l 418 1101 z "},"Ḭ":{"ha":368,"x_min":0,"x_max":0,"o":"m 286 0 l 286 979 l 81 979 l 81 0 z m 279 -295 b 424 -109 361 -295 424 -224 l 317 -109 b 273 -191 316 -161 302 -191 b 96 -100 224 -191 192 -100 b -50 -283 12 -100 -50 -167 l 57 -283 b 104 -203 58 -236 73 -203 b 279 -295 154 -203 186 -295 z "},"Ỉ":{"ha":368,"x_min":0,"x_max":0,"o":"m 286 0 l 286 979 l 81 979 l 81 0 z m 58 1214 b 130 1227 78 1222 108 1227 b 196 1177 170 1227 196 1206 b 130 1105 196 1147 169 1118 l 189 1034 b 316 1188 263 1063 316 1122 b 155 1320 316 1270 253 1320 b 58 1303 119 1320 82 1314 z "},"Ĩ":{"ha":368,"x_min":0,"x_max":0,"o":"m 286 0 l 286 979 l 81 979 l 81 0 z m 279 1045 b 424 1232 361 1045 424 1116 l 317 1232 b 273 1149 316 1179 302 1149 b 96 1240 224 1149 192 1240 b -50 1057 12 1240 -50 1173 l 57 1057 b 104 1137 58 1104 73 1137 b 279 1045 154 1137 186 1045 z "},"Į":{"ha":368,"x_min":0,"x_max":0,"o":"m 185 -307 b 268 -296 217 -307 245 -303 l 268 -191 b 229 -194 256 -193 243 -194 b 151 -120 182 -194 151 -165 b 250 5 151 -70 184 -28 l 286 5 l 286 979 l 81 979 l 81 8 l 121 8 b 17 -157 48 -37 17 -87 b 185 -307 17 -246 85 -307 z "},"J":{"ha":775,"x_min":0,"x_max":0,"o":"m 21 288 b 352 -20 21 101 152 -20 b 686 307 562 -20 686 98 l 686 979 l 481 979 l 481 308 b 350 157 481 210 435 157 b 220 288 273 157 221 209 z "},"Ĵ":{"ha":775,"x_min":0,"x_max":0,"o":"m 21 288 b 352 -20 21 101 152 -20 b 686 307 562 -20 686 98 l 686 979 l 481 979 l 481 308 b 350 157 481 210 435 157 b 220 288 273 157 221 209 z m 509 1262 l 323 1046 l 474 1046 l 585 1180 l 589 1180 l 699 1046 l 850 1046 l 664 1262 z "},"K":{"ha":918,"x_min":0,"x_max":0,"o":"m 286 0 l 286 299 l 378 409 l 668 0 l 913 0 l 526 545 l 888 979 l 660 979 l 292 532 l 286 532 l 286 979 l 81 979 l 81 0 z "},"Ḱ":{"ha":918,"x_min":0,"x_max":0,"o":"m 526 1053 l 713 1263 l 528 1263 l 371 1053 z m 286 0 l 286 299 l 378 409 l 668 0 l 913 0 l 526 545 l 888 979 l 660 979 l 292 532 l 286 532 l 286 979 l 81 979 l 81 0 z "},"Ǩ":{"ha":918,"x_min":0,"x_max":0,"o":"m 286 0 l 286 299 l 378 409 l 668 0 l 913 0 l 526 545 l 888 979 l 660 979 l 292 532 l 286 532 l 286 979 l 81 979 l 81 0 z m 374 1046 l 529 1046 l 715 1262 l 564 1262 l 454 1128 l 450 1128 l 339 1262 l 189 1262 z "},"Ḳ":{"ha":918,"x_min":0,"x_max":0,"o":"m 452 -311 b 553 -210 509 -311 553 -265 b 452 -109 553 -154 509 -109 b 351 -210 395 -109 351 -154 b 452 -311 351 -265 395 -311 z m 286 0 l 286 299 l 378 409 l 668 0 l 913 0 l 526 545 l 888 979 l 660 979 l 292 532 l 286 532 l 286 979 l 81 979 l 81 0 z "},"Ḵ":{"ha":918,"x_min":0,"x_max":0,"o":"m 286 0 l 286 299 l 378 409 l 668 0 l 913 0 l 526 545 l 888 979 l 660 979 l 292 532 l 286 532 l 286 979 l 81 979 l 81 0 z m 686 -156 l 217 -156 l 217 -253 l 686 -253 z "},"Ķ":{"ha":918,"x_min":0,"x_max":0,"o":"m 286 0 l 286 299 l 378 409 l 668 0 l 913 0 l 526 545 l 888 979 l 660 979 l 292 532 l 286 532 l 286 979 l 81 979 l 81 0 z m 437 -339 l 545 -105 l 372 -105 l 290 -339 z "},"L":{"ha":754,"x_min":0,"x_max":0,"o":"m 714 170 l 286 170 l 286 979 l 81 979 l 81 0 l 714 0 z "},"Ĺ":{"ha":754,"x_min":0,"x_max":0,"o":"m 258 1053 l 446 1263 l 260 1263 l 103 1053 z m 714 170 l 286 170 l 286 979 l 81 979 l 81 0 l 714 0 z "},"Ḽ":{"ha":754,"x_min":0,"x_max":0,"o":"m 714 170 l 286 170 l 286 979 l 81 979 l 81 0 l 714 0 z m 314 -109 l 128 -324 l 279 -324 l 389 -191 l 393 -191 l 504 -324 l 654 -324 l 469 -109 z "},"Ḷ":{"ha":754,"x_min":0,"x_max":0,"o":"m 391 -311 b 492 -210 448 -311 492 -265 b 391 -109 492 -154 448 -109 b 290 -210 334 -109 290 -154 b 391 -311 290 -265 334 -311 z m 714 170 l 286 170 l 286 979 l 81 979 l 81 0 l 714 0 z "},"Ḹ":{"ha":754,"x_min":0,"x_max":0,"o":"m 391 -311 b 492 -210 448 -311 492 -265 b 391 -109 492 -154 448 -109 b 290 -210 334 -109 290 -154 b 391 -311 290 -265 334 -311 z m 714 170 l 286 170 l 286 979 l 81 979 l 81 0 l 714 0 z m 418 1198 l -51 1198 l -51 1101 l 418 1101 z "},"Ḻ":{"ha":754,"x_min":0,"x_max":0,"o":"m 626 -156 l 157 -156 l 157 -253 l 626 -253 z m 714 170 l 286 170 l 286 979 l 81 979 l 81 0 l 714 0 z "},"Ļ":{"ha":754,"x_min":0,"x_max":0,"o":"m 376 -339 l 485 -105 l 311 -105 l 229 -339 z m 714 170 l 286 170 l 286 979 l 81 979 l 81 0 l 714 0 z "},"Ľ":{"ha":754,"x_min":0,"x_max":0,"o":"m 458 979 l 458 637 l 591 637 l 625 979 z m 714 170 l 286 170 l 286 979 l 81 979 l 81 0 l 714 0 z "},"Ł":{"ha":765,"x_min":0,"x_max":0,"o":"m 297 170 l 297 536 l 496 635 l 496 771 l 297 671 l 297 979 l 92 979 l 92 568 l 26 534 l 26 399 l 92 433 l 92 0 l 725 0 l 725 170 z "},"M":{"ha":1199,"x_min":0,"x_max":0,"o":"m 1118 979 l 880 979 l 602 285 l 597 285 l 319 979 l 81 979 l 81 0 l 264 0 l 264 661 l 269 661 l 535 9 l 664 9 l 930 661 l 935 661 l 935 0 l 1118 0 z "},"Ḿ":{"ha":1199,"x_min":0,"x_max":0,"o":"m 1118 979 l 880 979 l 602 285 l 597 285 l 319 979 l 81 979 l 81 0 l 264 0 l 264 661 l 269 661 l 535 9 l 664 9 l 930 661 l 935 661 l 935 0 l 1118 0 z m 673 1053 l 861 1263 l 676 1263 l 519 1053 z "},"Ṁ":{"ha":1199,"x_min":0,"x_max":0,"o":"m 1118 979 l 880 979 l 602 285 l 597 285 l 319 979 l 81 979 l 81 0 l 264 0 l 264 661 l 269 661 l 535 9 l 664 9 l 930 661 l 935 661 l 935 0 l 1118 0 z m 600 1059 b 701 1160 656 1059 701 1104 b 600 1260 701 1215 656 1260 b 498 1160 543 1260 498 1215 b 600 1059 498 1104 543 1059 z "},"Ṃ":{"ha":1199,"x_min":0,"x_max":0,"o":"m 1118 979 l 880 979 l 602 285 l 597 285 l 319 979 l 81 979 l 81 0 l 264 0 l 264 661 l 269 661 l 535 9 l 664 9 l 930 661 l 935 661 l 935 0 l 1118 0 z m 600 -311 b 701 -210 656 -311 701 -265 b 600 -109 701 -154 656 -109 b 498 -210 543 -109 498 -154 b 600 -311 498 -265 543 -311 z "},"N":{"ha":992,"x_min":0,"x_max":0,"o":"m 277 0 l 277 641 l 283 641 l 741 0 l 911 0 l 911 979 l 715 979 l 715 341 l 709 341 l 252 979 l 81 979 l 81 0 z "},"Ǹ":{"ha":992,"x_min":0,"x_max":0,"o":"m 422 1057 l 576 1057 l 418 1267 l 233 1267 z m 277 0 l 277 641 l 283 641 l 741 0 l 911 0 l 911 979 l 715 979 l 715 341 l 709 341 l 252 979 l 81 979 l 81 0 z "},"Ń":{"ha":992,"x_min":0,"x_max":0,"o":"m 570 1053 l 758 1263 l 573 1263 l 416 1053 z m 277 0 l 277 641 l 283 641 l 741 0 l 911 0 l 911 979 l 715 979 l 715 341 l 709 341 l 252 979 l 81 979 l 81 0 z "},"Ñ":{"ha":992,"x_min":0,"x_max":0,"o":"m 591 1045 b 736 1232 673 1045 736 1116 l 629 1232 b 585 1149 629 1179 614 1149 b 408 1240 536 1149 505 1240 b 262 1057 325 1240 262 1173 l 370 1057 b 416 1137 370 1104 386 1137 b 591 1045 467 1137 498 1045 z m 277 0 l 277 641 l 283 641 l 741 0 l 911 0 l 911 979 l 715 979 l 715 341 l 709 341 l 252 979 l 81 979 l 81 0 z "},"Ṇ":{"ha":992,"x_min":0,"x_max":0,"o":"m 496 -311 b 597 -210 553 -311 597 -265 b 496 -109 597 -154 553 -109 b 395 -210 439 -109 395 -154 b 496 -311 395 -265 439 -311 z m 277 0 l 277 641 l 283 641 l 741 0 l 911 0 l 911 979 l 715 979 l 715 341 l 709 341 l 252 979 l 81 979 l 81 0 z "},"Ṅ":{"ha":992,"x_min":0,"x_max":0,"o":"m 496 1059 b 597 1160 553 1059 597 1104 b 496 1260 597 1215 553 1260 b 395 1160 439 1260 395 1215 b 496 1059 395 1104 439 1059 z m 277 0 l 277 641 l 283 641 l 741 0 l 911 0 l 911 979 l 715 979 l 715 341 l 709 341 l 252 979 l 81 979 l 81 0 z "},"Ň":{"ha":992,"x_min":0,"x_max":0,"o":"m 419 1046 l 574 1046 l 760 1262 l 609 1262 l 498 1128 l 494 1128 l 384 1262 l 233 1262 z m 277 0 l 277 641 l 283 641 l 741 0 l 911 0 l 911 979 l 715 979 l 715 341 l 709 341 l 252 979 l 81 979 l 81 0 z "},"Ṋ":{"ha":992,"x_min":0,"x_max":0,"o":"m 277 0 l 277 641 l 283 641 l 741 0 l 911 0 l 911 979 l 715 979 l 715 341 l 709 341 l 252 979 l 81 979 l 81 0 z m 419 -109 l 233 -324 l 384 -324 l 494 -191 l 498 -191 l 609 -324 l 760 -324 l 574 -109 z "},"Ṉ":{"ha":992,"x_min":0,"x_max":0,"o":"m 731 -156 l 262 -156 l 262 -253 l 731 -253 z m 277 0 l 277 641 l 283 641 l 741 0 l 911 0 l 911 979 l 715 979 l 715 341 l 709 341 l 252 979 l 81 979 l 81 0 z "},"Ņ":{"ha":992,"x_min":0,"x_max":0,"o":"m 481 -339 l 590 -105 l 416 -105 l 334 -339 z m 277 0 l 277 641 l 283 641 l 741 0 l 911 0 l 911 979 l 715 979 l 715 341 l 709 341 l 252 979 l 81 979 l 81 0 z "},"O":{"ha":1045,"x_min":0,"x_max":0,"o":"m 523 996 b 51 489 233 996 51 801 b 523 -17 51 178 233 -17 b 995 489 812 -17 995 178 b 523 996 995 801 812 996 z m 523 825 b 785 489 683 825 785 694 b 523 155 785 284 683 155 b 260 489 362 155 260 284 b 523 825 260 694 363 825 z "},"Ö":{"ha":1045,"x_min":0,"x_max":0,"o":"m 381 1059 b 473 1147 433 1059 473 1099 b 381 1236 473 1196 433 1236 b 290 1147 329 1236 290 1196 b 381 1059 290 1099 329 1059 z m 665 1059 b 757 1147 718 1059 757 1099 b 665 1236 757 1196 718 1236 b 574 1147 613 1236 574 1196 b 665 1059 574 1099 613 1059 z m 523 996 b 51 489 233 996 51 801 b 523 -17 51 178 233 -17 b 995 489 812 -17 995 178 b 523 996 995 801 812 996 z m 523 825 b 785 489 683 825 785 694 b 523 155 785 284 683 155 b 260 489 362 155 260 284 b 523 825 260 694 363 825 z "},"Ø":{"ha":1045,"x_min":0,"x_max":0,"o":"m 733 706 b 785 489 767 650 785 576 b 523 155 785 284 683 155 b 391 191 473 155 428 168 z m 328 248 b 260 489 284 306 260 389 b 523 825 260 694 363 825 b 677 772 583 825 635 806 z m 916 981 l 842 1021 l 781 929 b 523 996 710 972 623 996 b 51 489 233 996 51 801 b 218 82 51 309 111 169 l 164 1 l 233 -45 l 288 36 b 523 -17 354 1 433 -17 b 995 489 812 -17 995 178 b 848 879 995 657 942 791 z "},"Õ":{"ha":1045,"x_min":0,"x_max":0,"o":"m 523 996 b 51 489 233 996 51 801 b 523 -17 51 178 233 -17 b 995 489 812 -17 995 178 b 523 996 995 801 812 996 z m 523 825 b 785 489 683 825 785 694 b 523 155 785 284 683 155 b 260 489 362 155 260 284 b 523 825 260 694 363 825 z m 618 1045 b 763 1232 700 1045 763 1116 l 656 1232 b 612 1149 655 1179 641 1149 b 435 1240 563 1149 531 1240 b 289 1057 351 1240 289 1173 l 396 1057 b 443 1137 397 1104 412 1137 b 618 1045 493 1137 525 1045 z "},"Ó":{"ha":1045,"x_min":0,"x_max":0,"o":"m 597 1053 l 785 1263 l 600 1263 l 442 1053 z m 523 996 b 51 489 233 996 51 801 b 523 -17 51 178 233 -17 b 995 489 812 -17 995 178 b 523 996 995 801 812 996 z m 523 825 b 785 489 683 825 785 694 b 523 155 785 284 683 155 b 260 489 362 155 260 284 b 523 825 260 694 363 825 z "},"Ô":{"ha":1045,"x_min":0,"x_max":0,"o":"m 446 1262 l 260 1046 l 410 1046 l 521 1180 l 525 1180 l 635 1046 l 786 1046 l 600 1262 z m 523 996 b 51 489 233 996 51 801 b 523 -17 51 178 233 -17 b 995 489 812 -17 995 178 b 523 996 995 801 812 996 z m 523 825 b 785 489 683 825 785 694 b 523 155 785 284 683 155 b 260 489 362 155 260 284 b 523 825 260 694 363 825 z "},"Ò":{"ha":1045,"x_min":0,"x_max":0,"o":"m 448 1057 l 602 1057 l 445 1267 l 260 1267 z m 523 996 b 51 489 233 996 51 801 b 523 -17 51 178 233 -17 b 995 489 812 -17 995 178 b 523 996 995 801 812 996 z m 523 825 b 785 489 683 825 785 694 b 523 155 785 284 683 155 b 260 489 362 155 260 284 b 523 825 260 694 363 825 z "},"Ổ":{"ha":1045,"x_min":0,"x_max":0,"o":"m 445 1234 l 268 1055 l 425 1055 l 519 1156 l 528 1156 l 623 1055 l 779 1055 l 603 1234 z m 603 1343 b 669 1355 620 1350 647 1355 b 731 1308 707 1355 731 1336 b 681 1244 731 1282 715 1257 l 743 1178 b 846 1318 808 1202 846 1259 b 694 1447 846 1397 787 1447 b 603 1429 661 1447 625 1440 z m 523 996 b 51 489 233 996 51 801 b 523 -17 51 178 233 -17 b 995 489 812 -17 995 178 b 523 996 995 801 812 996 z m 523 825 b 785 489 683 825 785 694 b 523 155 785 284 683 155 b 260 489 362 155 260 284 b 523 825 260 694 363 825 z "},"Ồ":{"ha":1045,"x_min":0,"x_max":0,"o":"m 444 1234 l 267 1055 l 424 1055 l 519 1156 l 527 1156 l 622 1055 l 779 1055 l 602 1234 z m 756 1280 l 625 1444 l 452 1444 l 613 1280 z m 523 996 b 51 489 233 996 51 801 b 523 -17 51 178 233 -17 b 995 489 812 -17 995 178 b 523 996 995 801 812 996 z m 523 825 b 785 489 683 825 785 694 b 523 155 785 284 683 155 b 260 489 362 155 260 284 b 523 825 260 694 363 825 z "},"Ọ":{"ha":1045,"x_min":0,"x_max":0,"o":"m 523 -311 b 624 -210 580 -311 624 -265 b 523 -109 624 -154 580 -109 b 422 -210 466 -109 422 -154 b 523 -311 422 -265 466 -311 z m 523 996 b 51 489 233 996 51 801 b 523 -17 51 178 233 -17 b 995 489 812 -17 995 178 b 523 996 995 801 812 996 z m 523 825 b 785 489 683 825 785 694 b 523 155 785 284 683 155 b 260 489 362 155 260 284 b 523 825 260 694 363 825 z "},"Ȍ":{"ha":1045,"x_min":0,"x_max":0,"o":"m 584 1053 l 734 1053 l 578 1263 l 395 1263 z m 316 1053 l 467 1053 l 309 1263 l 127 1263 z m 523 996 b 51 489 233 996 51 801 b 523 -17 51 178 233 -17 b 995 489 812 -17 995 178 b 523 996 995 801 812 996 z m 523 825 b 785 489 683 825 785 694 b 523 155 785 284 683 155 b 260 489 362 155 260 284 b 523 825 260 694 363 825 z "},"Ṍ":{"ha":1045,"x_min":0,"x_max":0,"o":"m 523 996 b 51 489 233 996 51 801 b 523 -17 51 178 233 -17 b 995 489 812 -17 995 178 b 523 996 995 801 812 996 z m 523 825 b 785 489 683 825 785 694 b 523 155 785 284 683 155 b 260 489 362 155 260 284 b 523 825 260 694 363 825 z m 615 1042 b 760 1227 698 1042 760 1112 l 652 1227 b 608 1145 652 1176 637 1145 b 430 1238 559 1145 526 1238 b 285 1053 346 1238 285 1170 l 392 1053 b 439 1134 393 1101 408 1134 b 615 1042 489 1134 522 1042 z m 448 1280 l 591 1280 l 751 1444 l 579 1444 z "},"Ṓ":{"ha":1045,"x_min":0,"x_max":0,"o":"m 758 1101 l 758 1198 l 288 1198 l 288 1101 z m 447 1280 l 590 1280 l 751 1444 l 578 1444 z m 523 996 b 51 489 233 996 51 801 b 523 -17 51 178 233 -17 b 995 489 812 -17 995 178 b 523 996 995 801 812 996 z m 523 825 b 785 489 683 825 785 694 b 523 155 785 284 683 155 b 260 489 362 155 260 284 b 523 825 260 694 363 825 z "},"Ỗ":{"ha":1045,"x_min":0,"x_max":0,"o":"m 614 1270 b 759 1446 696 1270 759 1337 l 654 1446 b 606 1370 652 1397 637 1370 b 436 1456 558 1370 534 1456 b 290 1282 351 1456 290 1393 l 395 1282 b 444 1357 397 1329 411 1357 b 614 1270 496 1357 517 1270 z m 444 1228 l 267 1055 l 424 1055 l 519 1150 l 527 1150 l 622 1055 l 779 1055 l 602 1228 z m 523 996 b 51 489 233 996 51 801 b 523 -17 51 178 233 -17 b 995 489 812 -17 995 178 b 523 996 995 801 812 996 z m 523 825 b 785 489 683 825 785 694 b 523 155 785 284 683 155 b 260 489 362 155 260 284 b 523 825 260 694 363 825 z "},"Ȱ":{"ha":1045,"x_min":0,"x_max":0,"o":"m 523 1055 b 616 1145 576 1055 616 1095 b 523 1235 616 1195 576 1235 b 429 1145 469 1235 429 1195 b 523 1055 429 1095 469 1055 z m 758 1406 l 288 1406 l 288 1309 l 758 1309 z m 523 996 b 51 489 233 996 51 801 b 523 -17 51 178 233 -17 b 995 489 812 -17 995 178 b 523 996 995 801 812 996 z m 523 825 b 785 489 683 825 785 694 b 523 155 785 284 683 155 b 260 489 362 155 260 284 b 523 825 260 694 363 825 z "},"Ṑ":{"ha":1045,"x_min":0,"x_max":0,"o":"m 288 1101 l 758 1101 l 758 1198 l 288 1198 z m 599 1280 l 467 1444 l 295 1444 l 456 1280 z m 523 996 b 51 489 233 996 51 801 b 523 -17 51 178 233 -17 b 995 489 812 -17 995 178 b 523 996 995 801 812 996 z m 523 825 b 785 489 683 825 785 694 b 523 155 785 284 683 155 b 260 489 362 155 260 284 b 523 825 260 694 363 825 z "},"Ǒ":{"ha":1045,"x_min":0,"x_max":0,"o":"m 446 1046 l 600 1046 l 786 1262 l 635 1262 l 525 1128 l 521 1128 l 410 1262 l 260 1262 z m 523 996 b 51 489 233 996 51 801 b 523 -17 51 178 233 -17 b 995 489 812 -17 995 178 b 523 996 995 801 812 996 z m 523 825 b 785 489 683 825 785 694 b 523 155 785 284 683 155 b 260 489 362 155 260 284 b 523 825 260 694 363 825 z "},"Ǿ":{"ha":1045,"x_min":0,"x_max":0,"o":"m 802 1263 l 616 1263 l 459 1053 l 614 1053 z m 733 706 b 785 489 767 650 785 576 b 523 155 785 284 683 155 b 391 191 473 155 428 168 z m 328 248 b 260 489 284 306 260 389 b 523 825 260 694 363 825 b 677 772 583 825 635 806 z m 916 981 l 842 1021 l 781 929 b 523 996 710 972 623 996 b 51 489 233 996 51 801 b 218 82 51 309 111 169 l 164 1 l 233 -45 l 288 36 b 523 -17 354 1 433 -17 b 995 489 812 -17 995 178 b 848 879 995 657 942 791 z "},"Ő":{"ha":1045,"x_min":0,"x_max":0,"o":"m 730 1053 l 918 1263 l 736 1263 l 579 1053 z m 462 1053 l 650 1263 l 468 1263 l 311 1053 z m 523 996 b 51 489 233 996 51 801 b 523 -17 51 178 233 -17 b 995 489 812 -17 995 178 b 523 996 995 801 812 996 z m 523 825 b 785 489 683 825 785 694 b 523 155 785 284 683 155 b 260 489 362 155 260 284 b 523 825 260 694 363 825 z "},"Ŏ":{"ha":1045,"x_min":0,"x_max":0,"o":"m 523 996 b 51 489 233 996 51 801 b 523 -17 51 178 233 -17 b 995 489 812 -17 995 178 b 523 996 995 801 812 996 z m 523 825 b 785 489 683 825 785 694 b 523 155 785 284 683 155 b 260 489 362 155 260 284 b 523 825 260 694 363 825 z m 283 1261 b 523 1046 286 1141 375 1046 b 762 1261 671 1046 760 1141 l 642 1261 b 523 1145 640 1195 593 1145 b 404 1261 452 1145 406 1195 z "},"Ȏ":{"ha":1045,"x_min":0,"x_max":0,"o":"m 283 1046 l 404 1046 b 523 1163 406 1113 452 1163 b 642 1046 593 1163 640 1113 l 762 1046 b 523 1261 760 1167 671 1261 b 283 1046 375 1261 286 1167 z m 523 996 b 51 489 233 996 51 801 b 523 -17 51 178 233 -17 b 995 489 812 -17 995 178 b 523 996 995 801 812 996 z m 523 825 b 785 489 683 825 785 694 b 523 155 785 284 683 155 b 260 489 362 155 260 284 b 523 825 260 694 363 825 z "},"Ỏ":{"ha":1045,"x_min":0,"x_max":0,"o":"m 397 1214 b 469 1227 417 1222 447 1227 b 535 1177 509 1227 535 1206 b 469 1105 535 1147 508 1118 l 528 1034 b 655 1188 602 1063 655 1122 b 494 1320 655 1270 592 1320 b 397 1303 458 1320 421 1314 z m 523 996 b 51 489 233 996 51 801 b 523 -17 51 178 233 -17 b 995 489 812 -17 995 178 b 523 996 995 801 812 996 z m 523 825 b 785 489 683 825 785 694 b 523 155 785 284 683 155 b 260 489 362 155 260 284 b 523 825 260 694 363 825 z "},"Ȫ":{"ha":1045,"x_min":0,"x_max":0,"o":"m 523 996 b 51 489 233 996 51 801 b 523 -17 51 178 233 -17 b 995 489 812 -17 995 178 b 523 996 995 801 812 996 z m 523 825 b 785 489 683 825 785 694 b 523 155 785 284 683 155 b 260 489 362 155 260 284 b 523 825 260 694 363 825 z m 385 1230 b 297 1145 334 1230 297 1192 b 385 1061 297 1099 334 1061 b 471 1145 433 1061 471 1099 b 385 1230 471 1192 433 1230 z m 288 1406 l 288 1309 l 758 1309 l 758 1406 z m 661 1230 b 574 1145 612 1230 574 1192 b 661 1061 574 1099 612 1061 b 749 1145 711 1061 749 1099 b 661 1230 749 1192 711 1230 z "},"Ȭ":{"ha":1045,"x_min":0,"x_max":0,"o":"m 614 1042 b 759 1227 697 1042 759 1112 l 652 1227 b 608 1145 651 1176 637 1145 b 429 1238 559 1145 526 1238 b 284 1053 345 1238 284 1170 l 391 1053 b 438 1134 392 1101 408 1134 b 614 1042 488 1134 521 1042 z m 758 1406 l 288 1406 l 288 1309 l 758 1309 z m 523 996 b 51 489 233 996 51 801 b 523 -17 51 178 233 -17 b 995 489 812 -17 995 178 b 523 996 995 801 812 996 z m 523 825 b 785 489 683 825 785 694 b 523 155 785 284 683 155 b 260 489 362 155 260 284 b 523 825 260 694 363 825 z "},"Ȯ":{"ha":1045,"x_min":0,"x_max":0,"o":"m 523 1059 b 624 1160 580 1059 624 1104 b 523 1260 624 1215 580 1260 b 422 1160 466 1260 422 1215 b 523 1059 422 1104 466 1059 z m 523 996 b 51 489 233 996 51 801 b 523 -17 51 178 233 -17 b 995 489 812 -17 995 178 b 523 996 995 801 812 996 z m 523 825 b 785 489 683 825 785 694 b 523 155 785 284 683 155 b 260 489 362 155 260 284 b 523 825 260 694 363 825 z "},"Ộ":{"ha":1045,"x_min":0,"x_max":0,"o":"m 523 -311 b 624 -210 580 -311 624 -265 b 523 -109 624 -154 580 -109 b 422 -210 466 -109 422 -154 b 523 -311 422 -265 466 -311 z m 446 1262 l 260 1046 l 410 1046 l 521 1180 l 525 1180 l 635 1046 l 786 1046 l 600 1262 z m 523 996 b 51 489 233 996 51 801 b 523 -17 51 178 233 -17 b 995 489 812 -17 995 178 b 523 996 995 801 812 996 z m 523 825 b 785 489 683 825 785 694 b 523 155 785 284 683 155 b 260 489 362 155 260 284 b 523 825 260 694 363 825 z "},"Ố":{"ha":1045,"x_min":0,"x_max":0,"o":"m 445 1234 l 268 1055 l 425 1055 l 520 1156 l 528 1156 l 623 1055 l 780 1055 l 603 1234 z m 582 1280 l 725 1280 l 886 1444 l 713 1444 z m 523 996 b 51 489 233 996 51 801 b 523 -17 51 178 233 -17 b 995 489 812 -17 995 178 b 523 996 995 801 812 996 z m 523 825 b 785 489 683 825 785 694 b 523 155 785 284 683 155 b 260 489 362 155 260 284 b 523 825 260 694 363 825 z "},"Ṏ":{"ha":1045,"x_min":0,"x_max":0,"o":"m 616 1042 b 760 1224 699 1042 760 1112 l 653 1224 b 609 1145 652 1176 638 1145 b 431 1238 560 1145 527 1238 b 286 1053 347 1238 286 1170 l 393 1053 b 439 1134 393 1101 409 1134 b 616 1042 490 1134 522 1042 z m 385 1466 b 297 1381 334 1466 297 1428 b 385 1297 297 1335 334 1297 b 471 1381 433 1297 471 1335 b 385 1466 471 1428 433 1466 z m 661 1466 b 574 1381 612 1466 574 1428 b 661 1297 574 1335 612 1297 b 749 1381 711 1297 749 1335 b 661 1466 749 1428 711 1466 z m 523 996 b 51 489 233 996 51 801 b 523 -17 51 178 233 -17 b 995 489 812 -17 995 178 b 523 996 995 801 812 996 z m 523 825 b 785 489 683 825 785 694 b 523 155 785 284 683 155 b 260 489 362 155 260 284 b 523 825 260 694 363 825 z "},"Ō":{"ha":1045,"x_min":0,"x_max":0,"o":"m 523 996 b 51 489 233 996 51 801 b 523 -17 51 178 233 -17 b 995 489 812 -17 995 178 b 523 996 995 801 812 996 z m 523 825 b 785 489 683 825 785 694 b 523 155 785 284 683 155 b 260 489 362 155 260 284 b 523 825 260 694 363 825 z m 758 1198 l 288 1198 l 288 1101 l 758 1101 z "},"Ǫ":{"ha":1045,"x_min":0,"x_max":0,"o":"m 764 -296 l 764 -190 b 716 -195 751 -193 732 -195 b 637 -124 668 -195 637 -167 b 815 72 637 -43 726 -4 b 994 490 905 147 994 260 b 523 996 994 802 814 996 b 51 490 232 996 51 802 b 523 -17 51 176 231 -17 b 586 -9 542 -17 566 -15 l 586 -12 b 503 -167 530 -52 503 -102 b 675 -309 503 -252 571 -309 b 764 -296 707 -309 742 -304 z m 523 825 b 785 490 684 825 785 695 b 523 155 785 283 684 155 b 260 490 361 155 260 283 b 523 825 260 694 361 825 z "},"Ǭ":{"ha":1045,"x_min":0,"x_max":0,"o":"m 764 -296 l 764 -190 b 716 -195 751 -193 732 -195 b 637 -124 668 -195 637 -167 b 815 72 637 -43 726 -4 b 994 490 905 147 994 260 b 523 996 994 802 814 996 b 51 490 232 996 51 802 b 523 -17 51 176 231 -17 b 586 -9 542 -17 566 -15 l 586 -12 b 503 -167 530 -52 503 -102 b 675 -309 503 -252 571 -309 b 764 -296 707 -309 742 -304 z m 523 825 b 785 490 684 825 785 695 b 523 155 785 283 684 155 b 260 490 361 155 260 283 b 523 825 260 694 361 825 z m 758 1198 l 288 1198 l 288 1101 l 758 1101 z "},"Ơ":{"ha":1080,"x_min":0,"x_max":0,"o":"m 523 825 b 785 489 683 825 785 694 b 523 155 785 284 683 155 b 260 489 362 155 260 284 b 523 825 260 694 363 825 z m 995 486 b 927 779 995 595 970 699 l 930 782 b 971 775 938 778 956 775 b 1086 926 1041 775 1086 833 l 1086 1109 l 929 1109 l 929 986 b 866 899 929 928 909 899 b 518 996 780 899 711 996 b 51 490 232 996 51 800 b 522 -17 51 179 233 -17 b 995 486 811 -17 995 179 z "},"Ợ":{"ha":1080,"x_min":0,"x_max":0,"o":"m 523 -311 b 624 -210 580 -311 624 -265 b 523 -109 624 -154 580 -109 b 422 -210 466 -109 422 -154 b 523 -311 422 -265 466 -311 z m 523 825 b 785 489 683 825 785 694 b 523 155 785 284 683 155 b 260 489 362 155 260 284 b 523 825 260 694 363 825 z m 995 486 b 927 779 995 595 970 699 l 930 782 b 971 775 938 778 956 775 b 1086 926 1041 775 1086 833 l 1086 1109 l 929 1109 l 929 986 b 866 899 929 928 909 899 b 518 996 780 899 711 996 b 51 490 232 996 51 800 b 522 -17 51 179 233 -17 b 995 486 811 -17 995 179 z "},"Ở":{"ha":1080,"x_min":0,"x_max":0,"o":"m 397 1214 b 469 1227 417 1222 447 1227 b 535 1177 509 1227 535 1206 b 469 1105 535 1147 508 1118 l 528 1034 b 655 1188 602 1063 655 1122 b 494 1320 655 1270 592 1320 b 397 1303 458 1320 421 1314 z m 523 825 b 785 489 683 825 785 694 b 523 155 785 284 683 155 b 260 489 362 155 260 284 b 523 825 260 694 363 825 z m 995 486 b 927 779 995 595 970 699 l 930 782 b 971 775 938 778 956 775 b 1086 926 1041 775 1086 833 l 1086 1109 l 929 1109 l 929 986 b 866 899 929 928 909 899 b 518 996 780 899 711 996 b 51 490 232 996 51 800 b 522 -17 51 179 233 -17 b 995 486 811 -17 995 179 z "},"Ỡ":{"ha":1080,"x_min":0,"x_max":0,"o":"m 523 825 b 785 489 683 825 785 694 b 523 155 785 284 683 155 b 260 489 362 155 260 284 b 523 825 260 694 363 825 z m 995 486 b 927 779 995 595 970 699 l 930 782 b 971 775 938 778 956 775 b 1086 926 1041 775 1086 833 l 1086 1109 l 929 1109 l 929 986 b 866 899 929 928 909 899 b 518 996 780 899 711 996 b 51 490 232 996 51 800 b 522 -17 51 179 233 -17 b 995 486 811 -17 995 179 z m 618 1045 b 763 1232 700 1045 763 1116 l 656 1232 b 612 1149 655 1179 641 1149 b 435 1240 563 1149 531 1240 b 289 1057 351 1240 289 1173 l 396 1057 b 443 1137 397 1104 412 1137 b 618 1045 493 1137 525 1045 z "},"Ờ":{"ha":1080,"x_min":0,"x_max":0,"o":"m 448 1057 l 602 1057 l 445 1267 l 260 1267 z m 523 825 b 785 489 683 825 785 694 b 523 155 785 284 683 155 b 260 489 362 155 260 284 b 523 825 260 694 363 825 z m 995 486 b 927 779 995 595 970 699 l 930 782 b 971 775 938 778 956 775 b 1086 926 1041 775 1086 833 l 1086 1109 l 929 1109 l 929 986 b 866 899 929 928 909 899 b 518 996 780 899 711 996 b 51 490 232 996 51 800 b 522 -17 51 179 233 -17 b 995 486 811 -17 995 179 z "},"Ớ":{"ha":1080,"x_min":0,"x_max":0,"o":"m 597 1053 l 785 1263 l 600 1263 l 442 1053 z m 523 825 b 785 489 683 825 785 694 b 523 155 785 284 683 155 b 260 489 362 155 260 284 b 523 825 260 694 363 825 z m 995 486 b 927 779 995 595 970 699 l 930 782 b 971 775 938 778 956 775 b 1086 926 1041 775 1086 833 l 1086 1109 l 929 1109 l 929 986 b 866 899 929 928 909 899 b 518 996 780 899 711 996 b 51 490 232 996 51 800 b 522 -17 51 179 233 -17 b 995 486 811 -17 995 179 z "},"P":{"ha":868,"x_min":0,"x_max":0,"o":"m 81 979 l 81 0 l 286 0 l 286 309 l 479 309 b 829 644 686 309 829 443 b 490 979 829 845 690 979 z m 286 817 l 435 817 b 621 643 553 817 621 754 b 435 469 621 531 552 469 l 286 469 z "},"Ṗ":{"ha":868,"x_min":0,"x_max":0,"o":"m 81 979 l 81 0 l 286 0 l 286 309 l 479 309 b 829 644 686 309 829 443 b 490 979 829 845 690 979 z m 286 817 l 435 817 b 621 643 553 817 621 754 b 435 469 621 531 552 469 l 286 469 z m 399 1059 b 500 1160 456 1059 500 1104 b 399 1260 500 1215 456 1260 b 298 1160 342 1260 298 1215 b 399 1059 298 1104 342 1059 z "},"Ṕ":{"ha":868,"x_min":0,"x_max":0,"o":"m 473 1053 l 661 1263 l 476 1263 l 319 1053 z m 81 979 l 81 0 l 286 0 l 286 309 l 479 309 b 829 644 686 309 829 443 b 490 979 829 845 690 979 z m 286 817 l 435 817 b 621 643 553 817 621 754 b 435 469 621 531 552 469 l 286 469 z "},"Q":{"ha":1045,"x_min":0,"x_max":0,"o":"m 962 -92 l 838 95 b 994 489 939 178 994 317 b 523 996 994 800 812 996 b 51 489 233 996 51 800 b 523 -17 51 175 233 -17 b 694 10 585 -17 642 -8 l 764 -92 z m 523 153 b 260 489 362 153 260 284 b 523 827 260 694 362 827 b 785 489 683 827 785 694 b 713 264 785 395 760 317 l 671 322 l 486 322 l 593 162 b 523 153 571 156 548 153 z "},"R":{"ha":892,"x_min":0,"x_max":0,"o":"m 286 819 l 464 819 b 629 663 566 819 629 758 b 466 507 629 566 569 507 l 286 507 z m 286 358 l 454 358 l 636 0 l 868 0 l 662 389 b 840 667 774 433 840 541 b 486 979 840 860 711 979 l 81 979 l 81 0 l 286 0 z "},"Ř":{"ha":892,"x_min":0,"x_max":0,"o":"m 286 819 l 464 819 b 629 663 566 819 629 758 b 466 507 629 566 569 507 l 286 507 z m 286 358 l 454 358 l 636 0 l 868 0 l 662 389 b 840 667 774 433 840 541 b 486 979 840 860 711 979 l 81 979 l 81 0 l 286 0 z m 340 1046 l 495 1046 l 681 1262 l 530 1262 l 420 1128 l 416 1128 l 305 1262 l 155 1262 z "},"Ṟ":{"ha":892,"x_min":0,"x_max":0,"o":"m 286 819 l 464 819 b 629 663 566 819 629 758 b 466 507 629 566 569 507 l 286 507 z m 286 358 l 454 358 l 636 0 l 868 0 l 662 389 b 840 667 774 433 840 541 b 486 979 840 860 711 979 l 81 979 l 81 0 l 286 0 z m 652 -156 l 183 -156 l 183 -253 l 652 -253 z "},"Ṝ":{"ha":892,"x_min":0,"x_max":0,"o":"m 418 -311 b 519 -210 475 -311 519 -265 b 418 -109 519 -154 475 -109 b 317 -210 361 -109 317 -154 b 418 -311 317 -265 361 -311 z m 286 819 l 464 819 b 629 663 566 819 629 758 b 466 507 629 566 569 507 l 286 507 z m 286 358 l 454 358 l 636 0 l 868 0 l 662 389 b 840 667 774 433 840 541 b 486 979 840 860 711 979 l 81 979 l 81 0 l 286 0 z m 652 1198 l 183 1198 l 183 1101 l 652 1101 z "},"Ȑ":{"ha":892,"x_min":0,"x_max":0,"o":"m 479 1053 l 629 1053 l 473 1263 l 290 1263 z m 211 1053 l 361 1053 l 204 1263 l 22 1263 z m 286 819 l 464 819 b 629 663 566 819 629 758 b 466 507 629 566 569 507 l 286 507 z m 286 358 l 454 358 l 636 0 l 868 0 l 662 389 b 840 667 774 433 840 541 b 486 979 840 860 711 979 l 81 979 l 81 0 l 286 0 z "},"Ȓ":{"ha":892,"x_min":0,"x_max":0,"o":"m 286 819 l 464 819 b 629 663 566 819 629 758 b 466 507 629 566 569 507 l 286 507 z m 286 358 l 454 358 l 636 0 l 868 0 l 662 389 b 840 667 774 433 840 541 b 486 979 840 860 711 979 l 81 979 l 81 0 l 286 0 z m 178 1046 l 299 1046 b 418 1163 300 1113 347 1163 b 536 1046 488 1163 535 1113 l 657 1046 b 418 1261 655 1167 566 1261 b 178 1046 270 1261 180 1167 z "},"Ŕ":{"ha":892,"x_min":0,"x_max":0,"o":"m 492 1053 l 680 1263 l 494 1263 l 337 1053 z m 286 819 l 464 819 b 629 663 566 819 629 758 b 466 507 629 566 569 507 l 286 507 z m 286 358 l 454 358 l 636 0 l 868 0 l 662 389 b 840 667 774 433 840 541 b 486 979 840 860 711 979 l 81 979 l 81 0 l 286 0 z "},"Ṛ":{"ha":892,"x_min":0,"x_max":0,"o":"m 418 -311 b 519 -210 475 -311 519 -265 b 418 -109 519 -154 475 -109 b 317 -210 361 -109 317 -154 b 418 -311 317 -265 361 -311 z m 286 819 l 464 819 b 629 663 566 819 629 758 b 466 507 629 566 569 507 l 286 507 z m 286 358 l 454 358 l 636 0 l 868 0 l 662 389 b 840 667 774 433 840 541 b 486 979 840 860 711 979 l 81 979 l 81 0 l 286 0 z "},"Ṙ":{"ha":892,"x_min":0,"x_max":0,"o":"m 418 1059 b 519 1160 475 1059 519 1104 b 418 1260 519 1215 475 1260 b 317 1160 361 1260 317 1215 b 418 1059 317 1104 361 1059 z m 286 819 l 464 819 b 629 663 566 819 629 758 b 466 507 629 566 569 507 l 286 507 z m 286 358 l 454 358 l 636 0 l 868 0 l 662 389 b 840 667 774 433 840 541 b 486 979 840 860 711 979 l 81 979 l 81 0 l 286 0 z "},"Ŗ":{"ha":892,"x_min":0,"x_max":0,"o":"m 286 819 l 464 819 b 629 663 566 819 629 758 b 466 507 629 566 569 507 l 286 507 z m 286 358 l 454 358 l 636 0 l 868 0 l 662 389 b 840 667 774 433 840 541 b 486 979 840 860 711 979 l 81 979 l 81 0 l 286 0 z m 403 -339 l 511 -105 l 338 -105 l 256 -339 z "},"S":{"ha":877,"x_min":0,"x_max":0,"o":"m 45 279 b 436 -17 51 95 201 -17 b 833 293 679 -17 833 103 b 551 568 833 442 747 526 l 433 593 b 273 713 320 619 273 653 b 441 834 273 786 340 834 b 623 701 544 834 616 784 l 815 701 b 441 996 812 878 669 996 b 66 696 222 996 66 876 b 336 422 66 553 155 461 l 463 395 b 628 269 581 368 628 333 b 444 145 628 197 553 145 b 242 279 336 145 252 198 z "},"Š":{"ha":877,"x_min":0,"x_max":0,"o":"m 45 279 b 436 -17 51 95 201 -17 b 833 293 679 -17 833 103 b 551 568 833 442 747 526 l 433 593 b 273 713 320 619 273 653 b 441 834 273 786 340 834 b 623 701 544 834 616 784 l 815 701 b 441 996 812 878 669 996 b 66 696 222 996 66 876 b 336 422 66 553 155 461 l 463 395 b 628 269 581 368 628 333 b 444 145 628 197 553 145 b 242 279 336 145 252 198 z m 366 1046 l 521 1046 l 707 1262 l 556 1262 l 446 1128 l 441 1128 l 331 1262 l 180 1262 z "},"Ş":{"ha":877,"x_min":0,"x_max":0,"o":"m 433 593 b 273 713 320 619 273 653 b 441 834 273 786 340 834 b 623 701 544 834 616 784 l 815 701 b 441 996 812 878 669 996 b 66 696 222 996 66 876 b 336 422 66 553 155 461 l 463 395 b 628 269 581 368 628 333 b 444 145 628 197 553 145 b 242 279 336 145 252 198 l 45 279 b 391 -16 50 107 182 -2 l 359 -86 l 359 -155 l 397 -155 b 482 -193 458 -155 482 -165 b 410 -230 482 -218 458 -230 b 334 -220 382 -230 350 -226 l 334 -302 b 429 -313 359 -309 392 -313 b 593 -186 532 -312 593 -264 b 467 -79 593 -118 547 -79 l 494 -14 b 833 293 703 3 833 119 b 551 568 833 442 747 526 z "},"Ṡ":{"ha":877,"x_min":0,"x_max":0,"o":"m 444 1059 b 545 1160 500 1059 545 1104 b 444 1260 545 1215 500 1260 b 342 1160 387 1260 342 1215 b 444 1059 342 1104 387 1059 z m 45 279 b 436 -17 51 95 201 -17 b 833 293 679 -17 833 103 b 551 568 833 442 747 526 l 433 593 b 273 713 320 619 273 653 b 441 834 273 786 340 834 b 623 701 544 834 616 784 l 815 701 b 441 996 812 878 669 996 b 66 696 222 996 66 876 b 336 422 66 553 155 461 l 463 395 b 628 269 581 368 628 333 b 444 145 628 197 553 145 b 242 279 336 145 252 198 z "},"Ṣ":{"ha":877,"x_min":0,"x_max":0,"o":"m 438 -311 b 539 -210 495 -311 539 -265 b 438 -109 539 -154 495 -109 b 337 -210 381 -109 337 -154 b 438 -311 337 -265 381 -311 z m 45 279 b 436 -17 51 95 201 -17 b 833 293 679 -17 833 103 b 551 568 833 442 747 526 l 433 593 b 273 713 320 619 273 653 b 441 834 273 786 340 834 b 623 701 544 834 616 784 l 815 701 b 441 996 812 878 669 996 b 66 696 222 996 66 876 b 336 422 66 553 155 461 l 463 395 b 628 269 581 368 628 333 b 444 145 628 197 553 145 b 242 279 336 145 252 198 z "},"Ș":{"ha":877,"x_min":0,"x_max":0,"o":"m 45 279 b 436 -17 51 95 201 -17 b 833 293 679 -17 833 103 b 551 568 833 442 747 526 l 433 593 b 273 713 320 619 273 653 b 441 834 273 786 340 834 b 623 701 544 834 616 784 l 815 701 b 441 996 812 878 669 996 b 66 696 222 996 66 876 b 336 422 66 553 155 461 l 463 395 b 628 269 581 368 628 333 b 444 145 628 197 553 145 b 242 279 336 145 252 198 z m 423 -339 l 532 -105 l 358 -105 l 276 -339 z "},"Ṩ":{"ha":877,"x_min":0,"x_max":0,"o":"m 438 -311 b 539 -210 495 -311 539 -265 b 438 -109 539 -154 495 -109 b 337 -210 381 -109 337 -154 b 438 -311 337 -265 381 -311 z m 45 279 b 436 -17 51 95 201 -17 b 833 293 679 -17 833 103 b 551 568 833 442 747 526 l 433 593 b 273 713 320 619 273 653 b 441 834 273 786 340 834 b 623 701 544 834 616 784 l 815 701 b 441 996 812 878 669 996 b 66 696 222 996 66 876 b 336 422 66 553 155 461 l 463 395 b 628 269 581 368 628 333 b 444 145 628 197 553 145 b 242 279 336 145 252 198 z m 444 1059 b 545 1160 500 1059 545 1104 b 444 1260 545 1215 500 1260 b 342 1160 387 1260 342 1215 b 444 1059 342 1104 387 1059 z "},"Ṧ":{"ha":877,"x_min":0,"x_max":0,"o":"m 365 1055 l 522 1055 l 699 1234 l 543 1234 l 448 1133 l 439 1133 l 345 1234 l 188 1234 z m 444 1256 b 534 1344 496 1256 534 1296 b 444 1432 534 1393 496 1432 b 353 1344 391 1432 353 1393 b 444 1256 353 1296 391 1256 z m 45 279 b 436 -17 51 95 201 -17 b 833 293 679 -17 833 103 b 551 568 833 442 747 526 l 433 593 b 273 713 320 619 273 653 b 441 834 273 786 340 834 b 623 701 544 834 616 784 l 815 701 b 441 996 812 878 669 996 b 66 696 222 996 66 876 b 336 422 66 553 155 461 l 463 395 b 628 269 581 368 628 333 b 444 145 628 197 553 145 b 242 279 336 145 252 198 z "},"Ŝ":{"ha":877,"x_min":0,"x_max":0,"o":"m 45 279 b 436 -17 51 95 201 -17 b 833 293 679 -17 833 103 b 551 568 833 442 747 526 l 433 593 b 273 713 320 619 273 653 b 441 834 273 786 340 834 b 623 701 544 834 616 784 l 815 701 b 441 996 812 878 669 996 b 66 696 222 996 66 876 b 336 422 66 553 155 461 l 463 395 b 628 269 581 368 628 333 b 444 145 628 197 553 145 b 242 279 336 145 252 198 z m 366 1262 l 180 1046 l 331 1046 l 441 1180 l 446 1180 l 556 1046 l 707 1046 l 521 1262 z "},"Ṥ":{"ha":877,"x_min":0,"x_max":0,"o":"m 598 1053 l 786 1263 l 601 1263 l 444 1053 z m 290 1064 b 391 1165 347 1064 391 1109 b 290 1265 391 1221 347 1265 b 189 1165 233 1265 189 1221 b 290 1064 189 1109 233 1064 z m 45 279 b 436 -17 51 95 201 -17 b 833 293 679 -17 833 103 b 551 568 833 442 747 526 l 433 593 b 273 713 320 619 273 653 b 441 834 273 786 340 834 b 623 701 544 834 616 784 l 815 701 b 441 996 812 878 669 996 b 66 696 222 996 66 876 b 336 422 66 553 155 461 l 463 395 b 628 269 581 368 628 333 b 444 145 628 197 553 145 b 242 279 336 145 252 198 z "},"Ś":{"ha":877,"x_min":0,"x_max":0,"o":"m 517 1053 l 705 1263 l 520 1263 l 363 1053 z m 45 279 b 436 -17 51 95 201 -17 b 833 293 679 -17 833 103 b 551 568 833 442 747 526 l 433 593 b 273 713 320 619 273 653 b 441 834 273 786 340 834 b 623 701 544 834 616 784 l 815 701 b 441 996 812 878 669 996 b 66 696 222 996 66 876 b 336 422 66 553 155 461 l 463 395 b 628 269 581 368 628 333 b 444 145 628 197 553 145 b 242 279 336 145 252 198 z "},"T":{"ha":842,"x_min":0,"x_max":0,"o":"m 524 0 l 524 810 l 810 810 l 810 979 l 33 979 l 33 810 l 319 810 l 319 0 z "},"Ṱ":{"ha":842,"x_min":0,"x_max":0,"o":"m 524 0 l 524 810 l 810 810 l 810 979 l 33 979 l 33 810 l 319 810 l 319 0 z m 344 -109 l 158 -324 l 309 -324 l 419 -191 l 423 -191 l 534 -324 l 684 -324 l 498 -109 z "},"Ṭ":{"ha":842,"x_min":0,"x_max":0,"o":"m 421 -311 b 522 -210 478 -311 522 -265 b 421 -109 522 -154 478 -109 b 320 -210 364 -109 320 -154 b 421 -311 320 -265 364 -311 z m 524 0 l 524 810 l 810 810 l 810 979 l 33 979 l 33 810 l 319 810 l 319 0 z "},"Ț":{"ha":842,"x_min":0,"x_max":0,"o":"m 406 -339 l 515 -105 l 341 -105 l 259 -339 z m 524 0 l 524 810 l 810 810 l 810 979 l 33 979 l 33 810 l 319 810 l 319 0 z "},"Ṫ":{"ha":842,"x_min":0,"x_max":0,"o":"m 421 1059 b 522 1160 478 1059 522 1104 b 421 1260 522 1215 478 1260 b 320 1160 364 1260 320 1215 b 421 1059 320 1104 364 1059 z m 524 0 l 524 810 l 810 810 l 810 979 l 33 979 l 33 810 l 319 810 l 319 0 z "},"Ţ":{"ha":842,"x_min":0,"x_max":0,"o":"m 524 0 l 524 810 l 810 810 l 810 979 l 33 979 l 33 810 l 319 810 l 319 0 l 382 0 l 342 -86 l 342 -155 l 380 -155 b 465 -193 441 -155 465 -165 b 393 -230 465 -218 441 -230 b 317 -220 366 -230 333 -226 l 317 -302 b 412 -313 342 -309 375 -313 b 576 -186 515 -312 576 -264 b 450 -79 576 -118 530 -79 l 484 0 z "},"Ṯ":{"ha":842,"x_min":0,"x_max":0,"o":"m 656 -156 l 186 -156 l 186 -253 l 656 -253 z m 524 0 l 524 810 l 810 810 l 810 979 l 33 979 l 33 810 l 319 810 l 319 0 z "},"Ť":{"ha":842,"x_min":0,"x_max":0,"o":"m 344 1046 l 498 1046 l 684 1262 l 534 1262 l 423 1128 l 419 1128 l 309 1262 l 158 1262 z m 524 0 l 524 810 l 810 810 l 810 979 l 33 979 l 33 810 l 319 810 l 319 0 z "},"Ŧ":{"ha":880,"x_min":0,"x_max":0,"o":"m 817 810 l 817 979 l 39 979 l 39 810 l 326 810 l 326 543 l 146 543 l 146 399 l 326 399 l 326 0 l 530 0 l 530 399 l 734 399 l 734 543 l 530 543 l 530 810 z "},"U":{"ha":983,"x_min":0,"x_max":0,"o":"m 286 979 l 81 979 l 81 346 b 492 -17 81 130 241 -17 b 901 346 742 -17 901 130 l 901 979 l 696 979 l 696 366 b 492 159 696 241 623 159 b 286 366 360 159 286 241 z "},"Ù":{"ha":983,"x_min":0,"x_max":0,"o":"m 417 1057 l 571 1057 l 414 1267 l 229 1267 z m 286 979 l 81 979 l 81 346 b 492 -17 81 130 241 -17 b 901 346 742 -17 901 130 l 901 979 l 696 979 l 696 366 b 492 159 696 241 623 159 b 286 366 360 159 286 241 z "},"Ȕ":{"ha":983,"x_min":0,"x_max":0,"o":"m 553 1053 l 703 1053 l 547 1263 l 364 1263 z m 285 1053 l 435 1053 l 278 1263 l 96 1263 z m 286 979 l 81 979 l 81 346 b 492 -17 81 130 241 -17 b 901 346 742 -17 901 130 l 901 979 l 696 979 l 696 366 b 492 159 696 241 623 159 b 286 366 360 159 286 241 z "},"Ú":{"ha":983,"x_min":0,"x_max":0,"o":"m 566 1053 l 753 1263 l 568 1263 l 411 1053 z m 286 979 l 81 979 l 81 346 b 492 -17 81 130 241 -17 b 901 346 742 -17 901 130 l 901 979 l 696 979 l 696 366 b 492 159 696 241 623 159 b 286 366 360 159 286 241 z "},"Ű":{"ha":983,"x_min":0,"x_max":0,"o":"m 286 979 l 81 979 l 81 346 b 492 -17 81 130 241 -17 b 901 346 742 -17 901 130 l 901 979 l 696 979 l 696 366 b 492 159 696 241 623 159 b 286 366 360 159 286 241 z m 699 1053 l 887 1263 l 705 1263 l 548 1053 z m 431 1053 l 619 1263 l 437 1263 l 280 1053 z "},"Û":{"ha":983,"x_min":0,"x_max":0,"o":"m 414 1262 l 229 1046 l 379 1046 l 490 1180 l 494 1180 l 604 1046 l 755 1046 l 569 1262 z m 286 979 l 81 979 l 81 346 b 492 -17 81 130 241 -17 b 901 346 742 -17 901 130 l 901 979 l 696 979 l 696 366 b 492 159 696 241 623 159 b 286 366 360 159 286 241 z "},"Ǔ":{"ha":983,"x_min":0,"x_max":0,"o":"m 414 1046 l 569 1046 l 755 1262 l 604 1262 l 494 1128 l 490 1128 l 379 1262 l 229 1262 z m 286 979 l 81 979 l 81 346 b 492 -17 81 130 241 -17 b 901 346 742 -17 901 130 l 901 979 l 696 979 l 696 366 b 492 159 696 241 623 159 b 286 366 360 159 286 241 z "},"Ṷ":{"ha":983,"x_min":0,"x_max":0,"o":"m 286 979 l 81 979 l 81 346 b 492 -17 81 130 241 -17 b 901 346 742 -17 901 130 l 901 979 l 696 979 l 696 366 b 492 159 696 241 623 159 b 286 366 360 159 286 241 z m 414 -109 l 229 -324 l 379 -324 l 490 -191 l 494 -191 l 604 -324 l 755 -324 l 569 -109 z "},"Ü":{"ha":983,"x_min":0,"x_max":0,"o":"m 350 1059 b 441 1147 402 1059 441 1099 b 350 1236 441 1196 402 1236 b 258 1147 298 1236 258 1196 b 350 1059 258 1099 298 1059 z m 634 1059 b 726 1147 686 1059 726 1099 b 634 1236 726 1196 686 1236 b 543 1147 582 1236 543 1196 b 634 1059 543 1099 582 1059 z m 286 979 l 81 979 l 81 346 b 492 -17 81 130 241 -17 b 901 346 742 -17 901 130 l 901 979 l 696 979 l 696 366 b 492 159 696 241 623 159 b 286 366 360 159 286 241 z "},"Ǜ":{"ha":983,"x_min":0,"x_max":0,"o":"m 568 1280 l 436 1444 l 264 1444 l 425 1280 z m 353 1061 b 440 1145 402 1061 440 1099 b 353 1230 440 1192 402 1230 b 266 1145 303 1230 266 1192 b 353 1061 266 1099 303 1061 z m 630 1061 b 718 1145 680 1061 718 1099 b 630 1230 718 1192 680 1230 b 543 1145 581 1230 543 1192 b 630 1061 543 1099 581 1061 z m 286 979 l 81 979 l 81 346 b 492 -17 81 130 241 -17 b 901 346 742 -17 901 130 l 901 979 l 696 979 l 696 366 b 492 159 696 241 623 159 b 286 366 360 159 286 241 z "},"Ǘ":{"ha":983,"x_min":0,"x_max":0,"o":"m 416 1280 l 559 1280 l 720 1444 l 547 1444 z m 353 1061 b 440 1145 402 1061 440 1099 b 353 1230 440 1192 402 1230 b 266 1145 303 1230 266 1192 b 353 1061 266 1099 303 1061 z m 630 1061 b 718 1145 680 1061 718 1099 b 630 1230 718 1192 680 1230 b 543 1145 581 1230 543 1192 b 630 1061 543 1099 581 1061 z m 286 979 l 81 979 l 81 346 b 492 -17 81 130 241 -17 b 901 346 742 -17 901 130 l 901 979 l 696 979 l 696 366 b 492 159 696 241 623 159 b 286 366 360 159 286 241 z "},"Ǖ":{"ha":983,"x_min":0,"x_max":0,"o":"m 286 979 l 81 979 l 81 346 b 492 -17 81 130 241 -17 b 901 346 742 -17 901 130 l 901 979 l 696 979 l 696 366 b 492 159 696 241 623 159 b 286 366 360 159 286 241 z m 353 1230 b 266 1145 303 1230 266 1192 b 353 1061 266 1099 303 1061 b 440 1145 402 1061 440 1099 b 353 1230 440 1192 402 1230 z m 257 1406 l 257 1309 l 726 1309 l 726 1406 z m 630 1230 b 543 1145 581 1230 543 1192 b 630 1061 543 1099 581 1061 b 718 1145 680 1061 718 1099 b 630 1230 718 1192 680 1230 z "},"Ǚ":{"ha":983,"x_min":0,"x_max":0,"o":"m 417 1280 l 566 1280 l 741 1453 l 588 1453 l 498 1360 l 486 1360 l 395 1453 l 243 1453 z m 353 1230 b 266 1145 303 1230 266 1192 b 353 1061 266 1099 303 1061 b 440 1145 402 1061 440 1099 b 353 1230 440 1192 402 1230 z m 630 1230 b 543 1145 581 1230 543 1192 b 630 1061 543 1099 581 1061 b 718 1145 680 1061 718 1099 b 630 1230 718 1192 680 1230 z m 286 979 l 81 979 l 81 346 b 492 -17 81 130 241 -17 b 901 346 742 -17 901 130 l 901 979 l 696 979 l 696 366 b 492 159 696 241 623 159 b 286 366 360 159 286 241 z "},"Ṳ":{"ha":983,"x_min":0,"x_max":0,"o":"m 286 979 l 81 979 l 81 346 b 492 -17 81 130 241 -17 b 901 346 742 -17 901 130 l 901 979 l 696 979 l 696 366 b 492 159 696 241 623 159 b 286 366 360 159 286 241 z m 350 -292 b 441 -203 402 -292 441 -252 b 350 -114 441 -154 402 -114 b 258 -203 298 -114 258 -154 b 350 -292 258 -252 298 -292 z m 634 -292 b 726 -203 686 -292 726 -252 b 634 -114 726 -154 686 -114 b 543 -203 582 -114 543 -154 b 634 -292 543 -252 582 -292 z "},"Ṵ":{"ha":983,"x_min":0,"x_max":0,"o":"m 587 -295 b 732 -109 669 -295 732 -224 l 625 -109 b 581 -191 624 -161 610 -191 b 404 -100 532 -191 500 -100 b 258 -283 320 -100 258 -167 l 365 -283 b 412 -203 366 -236 381 -203 b 587 -295 462 -203 494 -295 z m 286 979 l 81 979 l 81 346 b 492 -17 81 130 241 -17 b 901 346 742 -17 901 130 l 901 979 l 696 979 l 696 366 b 492 159 696 241 623 159 b 286 366 360 159 286 241 z "},"Ủ":{"ha":983,"x_min":0,"x_max":0,"o":"m 286 979 l 81 979 l 81 346 b 492 -17 81 130 241 -17 b 901 346 742 -17 901 130 l 901 979 l 696 979 l 696 366 b 492 159 696 241 623 159 b 286 366 360 159 286 241 z m 366 1214 b 438 1227 386 1222 416 1227 b 504 1177 477 1227 504 1206 b 438 1105 504 1147 477 1118 l 496 1034 b 624 1188 571 1063 624 1122 b 463 1320 624 1270 561 1320 b 366 1303 427 1320 390 1314 z "},"Ŭ":{"ha":983,"x_min":0,"x_max":0,"o":"m 286 979 l 81 979 l 81 346 b 492 -17 81 130 241 -17 b 901 346 742 -17 901 130 l 901 979 l 696 979 l 696 366 b 492 159 696 241 623 159 b 286 366 360 159 286 241 z m 252 1261 b 492 1046 254 1141 344 1046 b 731 1261 640 1046 729 1141 l 610 1261 b 492 1145 609 1195 562 1145 b 373 1261 421 1145 374 1195 z "},"Ȗ":{"ha":983,"x_min":0,"x_max":0,"o":"m 286 979 l 81 979 l 81 346 b 492 -17 81 130 241 -17 b 901 346 742 -17 901 130 l 901 979 l 696 979 l 696 366 b 492 159 696 241 623 159 b 286 366 360 159 286 241 z m 252 1046 l 373 1046 b 492 1163 374 1113 421 1163 b 610 1046 562 1163 609 1113 l 731 1046 b 492 1261 729 1167 640 1261 b 252 1046 344 1261 254 1167 z "},"Ṹ":{"ha":983,"x_min":0,"x_max":0,"o":"m 286 979 l 81 979 l 81 346 b 492 -17 81 130 241 -17 b 901 346 742 -17 901 130 l 901 979 l 696 979 l 696 366 b 492 159 696 241 623 159 b 286 366 360 159 286 241 z m 584 1042 b 728 1227 667 1042 728 1112 l 621 1227 b 577 1145 621 1176 606 1145 b 399 1238 528 1145 495 1238 b 254 1053 315 1238 254 1170 l 361 1053 b 408 1134 361 1101 377 1134 b 584 1042 458 1134 490 1042 z m 416 1280 l 559 1280 l 720 1444 l 548 1444 z "},"Ụ":{"ha":983,"x_min":0,"x_max":0,"o":"m 492 -311 b 593 -210 549 -311 593 -265 b 492 -109 593 -154 549 -109 b 391 -210 435 -109 391 -154 b 492 -311 391 -265 435 -311 z m 286 979 l 81 979 l 81 346 b 492 -17 81 130 241 -17 b 901 346 742 -17 901 130 l 901 979 l 696 979 l 696 366 b 492 159 696 241 623 159 b 286 366 360 159 286 241 z "},"Ũ":{"ha":983,"x_min":0,"x_max":0,"o":"m 286 979 l 81 979 l 81 346 b 492 -17 81 130 241 -17 b 901 346 742 -17 901 130 l 901 979 l 696 979 l 696 366 b 492 159 696 241 623 159 b 286 366 360 159 286 241 z m 587 1045 b 732 1232 669 1045 732 1116 l 625 1232 b 581 1149 624 1179 610 1149 b 404 1240 532 1149 500 1240 b 258 1057 320 1240 258 1173 l 365 1057 b 412 1137 366 1104 381 1137 b 587 1045 462 1137 494 1045 z "},"Ū":{"ha":983,"x_min":0,"x_max":0,"o":"m 286 979 l 81 979 l 81 346 b 492 -17 81 130 241 -17 b 901 346 742 -17 901 130 l 901 979 l 696 979 l 696 366 b 492 159 696 241 623 159 b 286 366 360 159 286 241 z m 726 1198 l 257 1198 l 257 1101 l 726 1101 z "},"Ṻ":{"ha":983,"x_min":0,"x_max":0,"o":"m 726 1101 l 726 1198 l 257 1198 l 257 1101 z m 353 1291 b 440 1376 402 1291 440 1330 b 353 1460 440 1423 402 1460 b 266 1376 303 1460 266 1423 b 353 1291 266 1330 303 1291 z m 630 1291 b 718 1376 680 1291 718 1330 b 630 1460 718 1423 680 1460 b 543 1376 581 1460 543 1423 b 630 1291 543 1330 581 1291 z m 286 979 l 81 979 l 81 346 b 492 -17 81 130 241 -17 b 901 346 742 -17 901 130 l 901 979 l 696 979 l 696 366 b 492 159 696 241 623 159 b 286 366 360 159 286 241 z "},"Ů":{"ha":983,"x_min":0,"x_max":0,"o":"m 492 1026 b 642 1173 574 1026 642 1093 b 492 1320 642 1254 574 1320 b 342 1173 410 1320 342 1254 b 492 1026 342 1093 410 1026 z m 492 1105 b 422 1173 454 1105 422 1136 b 492 1242 422 1211 454 1242 b 561 1173 530 1242 561 1211 b 492 1105 561 1136 530 1105 z m 286 979 l 81 979 l 81 346 b 492 -17 81 130 241 -17 b 901 346 742 -17 901 130 l 901 979 l 696 979 l 696 366 b 492 159 696 241 623 159 b 286 366 360 159 286 241 z "},"Ų":{"ha":983,"x_min":0,"x_max":0,"o":"m 643 -309 b 734 -296 677 -309 711 -304 l 734 -191 b 687 -195 717 -194 702 -195 b 607 -125 640 -195 607 -166 b 754 51 607 -50 680 -9 b 901 346 827 111 901 192 l 901 979 l 696 979 l 696 366 b 492 159 696 237 619 159 b 286 366 364 159 286 237 l 286 979 l 81 979 l 81 346 b 492 -17 81 127 244 -17 b 557 -9 518 -17 543 -14 l 557 -11 b 473 -168 501 -55 473 -107 b 643 -309 473 -252 542 -309 z "},"Ư":{"ha":1124,"x_min":0,"x_max":0,"o":"m 903 942 l 903 979 l 696 979 l 696 366 b 492 159 696 237 619 159 b 286 366 364 159 286 237 l 286 979 l 81 979 l 81 346 b 492 -17 81 127 244 -17 b 901 346 739 -17 901 127 l 901 803 b 975 788 913 793 957 788 b 1156 976 1088 788 1156 859 l 1156 1114 l 1004 1114 l 1004 1015 b 957 931 1004 958 991 934 b 903 942 939 928 921 932 z "},"Ừ":{"ha":1124,"x_min":0,"x_max":0,"o":"m 417 1057 l 571 1057 l 414 1267 l 229 1267 z m 903 942 l 903 979 l 696 979 l 696 366 b 492 159 696 237 619 159 b 286 366 364 159 286 237 l 286 979 l 81 979 l 81 346 b 492 -17 81 127 244 -17 b 901 346 739 -17 901 127 l 901 803 b 975 788 913 793 957 788 b 1156 976 1088 788 1156 859 l 1156 1114 l 1004 1114 l 1004 1015 b 957 931 1004 958 991 934 b 903 942 939 928 921 932 z "},"Ứ":{"ha":1124,"x_min":0,"x_max":0,"o":"m 566 1053 l 753 1263 l 568 1263 l 411 1053 z m 903 942 l 903 979 l 696 979 l 696 366 b 492 159 696 237 619 159 b 286 366 364 159 286 237 l 286 979 l 81 979 l 81 346 b 492 -17 81 127 244 -17 b 901 346 739 -17 901 127 l 901 803 b 975 788 913 793 957 788 b 1156 976 1088 788 1156 859 l 1156 1114 l 1004 1114 l 1004 1015 b 957 931 1004 958 991 934 b 903 942 939 928 921 932 z "},"Ự":{"ha":1124,"x_min":0,"x_max":0,"o":"m 492 -311 b 593 -210 549 -311 593 -265 b 492 -109 593 -154 549 -109 b 391 -210 435 -109 391 -154 b 492 -311 391 -265 435 -311 z m 903 942 l 903 979 l 696 979 l 696 366 b 492 159 696 237 619 159 b 286 366 364 159 286 237 l 286 979 l 81 979 l 81 346 b 492 -17 81 127 244 -17 b 901 346 739 -17 901 127 l 901 803 b 975 788 913 793 957 788 b 1156 976 1088 788 1156 859 l 1156 1114 l 1004 1114 l 1004 1015 b 957 931 1004 958 991 934 b 903 942 939 928 921 932 z "},"Ử":{"ha":1124,"x_min":0,"x_max":0,"o":"m 366 1214 b 438 1227 386 1222 416 1227 b 504 1177 477 1227 504 1206 b 438 1105 504 1147 477 1118 l 496 1034 b 624 1188 571 1063 624 1122 b 463 1320 624 1270 561 1320 b 366 1303 427 1320 390 1314 z m 903 942 l 903 979 l 696 979 l 696 366 b 492 159 696 237 619 159 b 286 366 364 159 286 237 l 286 979 l 81 979 l 81 346 b 492 -17 81 127 244 -17 b 901 346 739 -17 901 127 l 901 803 b 975 788 913 793 957 788 b 1156 976 1088 788 1156 859 l 1156 1114 l 1004 1114 l 1004 1015 b 957 931 1004 958 991 934 b 903 942 939 928 921 932 z "},"Ữ":{"ha":1124,"x_min":0,"x_max":0,"o":"m 587 1045 b 732 1232 669 1045 732 1116 l 625 1232 b 581 1149 624 1179 610 1149 b 404 1240 532 1149 500 1240 b 258 1057 320 1240 258 1173 l 365 1057 b 412 1137 366 1104 381 1137 b 587 1045 462 1137 494 1045 z m 903 942 l 903 979 l 696 979 l 696 366 b 492 159 696 237 619 159 b 286 366 364 159 286 237 l 286 979 l 81 979 l 81 346 b 492 -17 81 127 244 -17 b 901 346 739 -17 901 127 l 901 803 b 975 788 913 793 957 788 b 1156 976 1088 788 1156 859 l 1156 1114 l 1004 1114 l 1004 1015 b 957 931 1004 958 991 934 b 903 942 939 928 921 932 z "},"V":{"ha":942,"x_min":0,"x_max":0,"o":"m 595 0 l 924 979 l 701 979 l 477 211 l 472 211 l 248 979 l 19 979 l 348 0 z "},"Ṽ":{"ha":942,"x_min":0,"x_max":0,"o":"m 566 1045 b 711 1232 648 1045 711 1116 l 604 1232 b 560 1149 604 1179 589 1149 b 383 1240 511 1149 479 1240 b 237 1057 300 1240 237 1173 l 345 1057 b 391 1137 345 1104 361 1137 b 566 1045 441 1137 473 1045 z m 595 0 l 924 979 l 701 979 l 477 211 l 472 211 l 248 979 l 19 979 l 348 0 z "},"Ṿ":{"ha":942,"x_min":0,"x_max":0,"o":"m 471 -311 b 572 -210 528 -311 572 -265 b 471 -109 572 -154 528 -109 b 370 -210 414 -109 370 -154 b 471 -311 370 -265 414 -311 z m 595 0 l 924 979 l 701 979 l 477 211 l 472 211 l 248 979 l 19 979 l 348 0 z "},"W":{"ha":1341,"x_min":0,"x_max":0,"o":"m 667 669 l 673 669 l 859 0 l 1053 0 l 1312 979 l 1100 979 l 945 270 l 940 270 l 757 979 l 584 979 l 401 270 l 395 270 l 241 979 l 29 979 l 288 0 l 481 0 z "},"Ẁ":{"ha":1341,"x_min":0,"x_max":0,"o":"m 596 1057 l 750 1057 l 593 1267 l 408 1267 z m 667 669 l 673 669 l 859 0 l 1053 0 l 1312 979 l 1100 979 l 945 270 l 940 270 l 757 979 l 584 979 l 401 270 l 395 270 l 241 979 l 29 979 l 288 0 l 481 0 z "},"Ẃ":{"ha":1341,"x_min":0,"x_max":0,"o":"m 745 1053 l 932 1263 l 747 1263 l 590 1053 z m 667 669 l 673 669 l 859 0 l 1053 0 l 1312 979 l 1100 979 l 945 270 l 940 270 l 757 979 l 584 979 l 401 270 l 395 270 l 241 979 l 29 979 l 288 0 l 481 0 z "},"Ẇ":{"ha":1341,"x_min":0,"x_max":0,"o":"m 671 1059 b 772 1160 728 1059 772 1104 b 671 1260 772 1215 728 1260 b 570 1160 614 1260 570 1215 b 671 1059 570 1104 614 1059 z m 667 669 l 673 669 l 859 0 l 1053 0 l 1312 979 l 1100 979 l 945 270 l 940 270 l 757 979 l 584 979 l 401 270 l 395 270 l 241 979 l 29 979 l 288 0 l 481 0 z "},"Ẉ":{"ha":1341,"x_min":0,"x_max":0,"o":"m 671 -311 b 772 -210 728 -311 772 -265 b 671 -109 772 -154 728 -109 b 570 -210 614 -109 570 -154 b 671 -311 570 -265 614 -311 z m 667 669 l 673 669 l 859 0 l 1053 0 l 1312 979 l 1100 979 l 945 270 l 940 270 l 757 979 l 584 979 l 401 270 l 395 270 l 241 979 l 29 979 l 288 0 l 481 0 z "},"Ẅ":{"ha":1341,"x_min":0,"x_max":0,"o":"m 529 1059 b 621 1147 581 1059 621 1099 b 529 1236 621 1196 581 1236 b 437 1147 477 1236 437 1196 b 529 1059 437 1099 477 1059 z m 813 1059 b 905 1147 865 1059 905 1099 b 813 1236 905 1196 865 1236 b 722 1147 761 1236 722 1196 b 813 1059 722 1099 761 1059 z m 667 669 l 673 669 l 859 0 l 1053 0 l 1312 979 l 1100 979 l 945 270 l 940 270 l 757 979 l 584 979 l 401 270 l 395 270 l 241 979 l 29 979 l 288 0 l 481 0 z "},"Ŵ":{"ha":1341,"x_min":0,"x_max":0,"o":"m 593 1262 l 408 1046 l 558 1046 l 669 1180 l 673 1180 l 783 1046 l 934 1046 l 748 1262 z m 667 669 l 673 669 l 859 0 l 1053 0 l 1312 979 l 1100 979 l 945 270 l 940 270 l 757 979 l 584 979 l 401 270 l 395 270 l 241 979 l 29 979 l 288 0 l 481 0 z "},"X":{"ha":952,"x_min":0,"x_max":0,"o":"m 29 0 l 250 0 l 466 342 l 471 342 l 686 0 l 919 0 l 603 487 l 603 492 l 923 979 l 694 979 l 485 626 l 479 626 l 272 979 l 31 979 l 340 496 l 340 490 z "},"Ẋ":{"ha":952,"x_min":0,"x_max":0,"o":"m 29 0 l 250 0 l 466 342 l 471 342 l 686 0 l 919 0 l 603 487 l 603 492 l 923 979 l 694 979 l 485 626 l 479 626 l 272 979 l 31 979 l 340 496 l 340 490 z m 476 1059 b 577 1160 533 1059 577 1104 b 476 1260 577 1215 533 1260 b 375 1160 419 1260 375 1215 b 476 1059 375 1104 419 1059 z "},"Ẍ":{"ha":952,"x_min":0,"x_max":0,"o":"m 29 0 l 250 0 l 466 342 l 471 342 l 686 0 l 919 0 l 603 487 l 603 492 l 923 979 l 694 979 l 485 626 l 479 626 l 272 979 l 31 979 l 340 496 l 340 490 z m 334 1059 b 426 1147 387 1059 426 1099 b 334 1236 426 1196 387 1236 b 243 1147 282 1236 243 1196 b 334 1059 243 1099 282 1059 z m 618 1059 b 710 1147 671 1059 710 1099 b 618 1236 710 1196 671 1236 b 527 1147 566 1236 527 1196 b 618 1059 527 1099 566 1059 z "},"Y":{"ha":924,"x_min":0,"x_max":0,"o":"m 564 0 l 564 366 l 905 979 l 686 979 l 466 561 l 461 561 l 242 979 l 19 979 l 359 366 l 359 0 z "},"Ỳ":{"ha":924,"x_min":0,"x_max":0,"o":"m 564 0 l 564 366 l 905 979 l 686 979 l 466 561 l 461 561 l 242 979 l 19 979 l 359 366 l 359 0 z m 387 1057 l 541 1057 l 384 1267 l 199 1267 z "},"Ý":{"ha":924,"x_min":0,"x_max":0,"o":"m 564 0 l 564 366 l 905 979 l 686 979 l 466 561 l 461 561 l 242 979 l 19 979 l 359 366 l 359 0 z m 536 1053 l 724 1263 l 538 1263 l 381 1053 z "},"Ẏ":{"ha":924,"x_min":0,"x_max":0,"o":"m 564 0 l 564 366 l 905 979 l 686 979 l 466 561 l 461 561 l 242 979 l 19 979 l 359 366 l 359 0 z m 462 1059 b 563 1160 519 1059 563 1104 b 462 1260 563 1215 519 1260 b 361 1160 405 1260 361 1215 b 462 1059 361 1104 405 1059 z "},"Ỵ":{"ha":924,"x_min":0,"x_max":0,"o":"m 564 0 l 564 366 l 905 979 l 686 979 l 466 561 l 461 561 l 242 979 l 19 979 l 359 366 l 359 0 z m 462 -311 b 563 -210 519 -311 563 -265 b 462 -109 563 -154 519 -109 b 361 -210 405 -109 361 -154 b 462 -311 361 -265 405 -311 z "},"Ÿ":{"ha":924,"x_min":0,"x_max":0,"o":"m 564 0 l 564 366 l 905 979 l 686 979 l 466 561 l 461 561 l 242 979 l 19 979 l 359 366 l 359 0 z m 320 1059 b 412 1147 372 1059 412 1099 b 320 1236 412 1196 372 1236 b 229 1147 268 1236 229 1196 b 320 1059 229 1099 268 1059 z m 604 1059 b 696 1147 656 1059 696 1099 b 604 1236 696 1196 656 1236 b 513 1147 552 1236 513 1196 b 604 1059 513 1099 552 1059 z "},"Ỹ":{"ha":924,"x_min":0,"x_max":0,"o":"m 564 0 l 564 366 l 905 979 l 686 979 l 466 561 l 461 561 l 242 979 l 19 979 l 359 366 l 359 0 z m 557 1045 b 702 1232 639 1045 702 1116 l 595 1232 b 551 1149 594 1179 580 1149 b 374 1240 502 1149 470 1240 b 228 1057 290 1240 228 1173 l 335 1057 b 382 1137 336 1104 351 1137 b 557 1045 432 1137 464 1045 z "},"Ŷ":{"ha":924,"x_min":0,"x_max":0,"o":"m 564 0 l 564 366 l 905 979 l 686 979 l 466 561 l 461 561 l 242 979 l 19 979 l 359 366 l 359 0 z m 385 1262 l 199 1046 l 349 1046 l 460 1180 l 464 1180 l 574 1046 l 725 1046 l 539 1262 z "},"Ȳ":{"ha":924,"x_min":0,"x_max":0,"o":"m 564 0 l 564 366 l 905 979 l 686 979 l 466 561 l 461 561 l 242 979 l 19 979 l 359 366 l 359 0 z m 696 1198 l 227 1198 l 227 1101 l 696 1101 z "},"Ỷ":{"ha":924,"x_min":0,"x_max":0,"o":"m 564 0 l 564 366 l 905 979 l 686 979 l 466 561 l 461 561 l 242 979 l 19 979 l 359 366 l 359 0 z m 336 1214 b 408 1227 356 1222 386 1227 b 474 1177 448 1227 474 1206 b 408 1105 474 1147 447 1118 l 467 1034 b 594 1188 541 1063 594 1122 b 433 1320 594 1270 531 1320 b 336 1303 397 1320 360 1314 z "},"Z":{"ha":876,"x_min":0,"x_max":0,"o":"m 60 0 l 816 0 l 816 170 l 307 170 l 307 174 l 802 846 l 802 979 l 72 979 l 72 810 l 557 810 l 557 804 l 60 134 z "},"Ź":{"ha":876,"x_min":0,"x_max":0,"o":"m 512 1053 l 700 1263 l 515 1263 l 357 1053 z m 60 0 l 816 0 l 816 170 l 307 170 l 307 174 l 802 846 l 802 979 l 72 979 l 72 810 l 557 810 l 557 804 l 60 134 z "},"Ž":{"ha":876,"x_min":0,"x_max":0,"o":"m 60 0 l 816 0 l 816 170 l 307 170 l 307 174 l 802 846 l 802 979 l 72 979 l 72 810 l 557 810 l 557 804 l 60 134 z m 361 1046 l 515 1046 l 701 1262 l 551 1262 l 440 1128 l 436 1128 l 326 1262 l 175 1262 z "},"Ẑ":{"ha":876,"x_min":0,"x_max":0,"o":"m 60 0 l 816 0 l 816 170 l 307 170 l 307 174 l 802 846 l 802 979 l 72 979 l 72 810 l 557 810 l 557 804 l 60 134 z m 361 1262 l 175 1046 l 326 1046 l 436 1180 l 440 1180 l 551 1046 l 701 1046 l 515 1262 z "},"Ẕ":{"ha":876,"x_min":0,"x_max":0,"o":"m 60 0 l 816 0 l 816 170 l 307 170 l 307 174 l 802 846 l 802 979 l 72 979 l 72 810 l 557 810 l 557 804 l 60 134 z m 673 -156 l 203 -156 l 203 -253 l 673 -253 z "},"Ẓ":{"ha":876,"x_min":0,"x_max":0,"o":"m 438 -311 b 539 -210 495 -311 539 -265 b 438 -109 539 -154 495 -109 b 337 -210 381 -109 337 -154 b 438 -311 337 -265 381 -311 z m 60 0 l 816 0 l 816 170 l 307 170 l 307 174 l 802 846 l 802 979 l 72 979 l 72 810 l 557 810 l 557 804 l 60 134 z "},"Ż":{"ha":876,"x_min":0,"x_max":0,"o":"m 438 1059 b 539 1160 495 1059 539 1104 b 438 1260 539 1215 495 1260 b 337 1160 381 1260 337 1215 b 438 1059 337 1104 381 1059 z m 60 0 l 816 0 l 816 170 l 307 170 l 307 174 l 802 846 l 802 979 l 72 979 l 72 810 l 557 810 l 557 804 l 60 134 z "},"Æ":{"ha":1383,"x_min":0,"x_max":0,"o":"m 563 821 l 655 821 l 655 406 l 390 406 z m 655 0 l 1296 0 l 1296 169 l 842 169 l 842 413 l 1271 413 l 1271 570 l 842 570 l 842 810 l 1296 810 l 1296 979 l 435 979 l 19 0 l 223 0 l 330 253 l 655 253 z "},"Ǣ":{"ha":1383,"x_min":0,"x_max":0,"o":"m 563 821 l 655 821 l 655 406 l 390 406 z m 655 0 l 1296 0 l 1296 169 l 842 169 l 842 413 l 1271 413 l 1271 570 l 842 570 l 842 810 l 1296 810 l 1296 979 l 435 979 l 19 0 l 223 0 l 330 253 l 655 253 z m 1217 1198 l 747 1198 l 747 1101 l 1217 1101 z "},"Ǽ":{"ha":1383,"x_min":0,"x_max":0,"o":"m 1056 1053 l 1244 1263 l 1059 1263 l 901 1053 z m 563 821 l 655 821 l 655 406 l 390 406 z m 655 0 l 1296 0 l 1296 169 l 842 169 l 842 413 l 1271 413 l 1271 570 l 842 570 l 842 810 l 1296 810 l 1296 979 l 435 979 l 19 0 l 223 0 l 330 253 l 655 253 z "},"Œ":{"ha":1503,"x_min":0,"x_max":0,"o":"m 528 827 b 793 489 689 827 793 694 b 528 153 793 284 690 153 b 263 489 367 153 263 284 b 528 827 263 694 367 827 z m 816 0 l 1437 0 l 1437 170 l 1000 170 l 1000 416 l 1411 416 l 1411 574 l 1000 574 l 1000 810 l 1437 810 l 1437 979 l 816 979 l 816 817 b 498 1000 759 933 642 1000 b 54 489 235 1000 54 796 b 496 -22 54 183 235 -22 b 816 160 640 -22 767 51 z "},"Ð":{"ha":1003,"x_min":0,"x_max":0,"o":"m 286 170 l 286 422 l 466 422 l 466 572 l 286 572 l 286 810 l 434 810 b 716 492 614 810 716 697 b 434 170 716 281 617 170 z m 81 979 l 81 572 l 22 572 l 22 422 l 81 422 l 81 0 l 458 0 b 925 493 752 0 925 182 b 458 979 925 804 752 979 z "},"Þ":{"ha":902,"x_min":0,"x_max":0,"o":"m 102 979 l 102 0 l 307 0 l 307 199 l 507 199 b 839 509 696 199 839 316 b 517 819 839 703 701 819 l 309 819 l 309 979 z m 307 656 l 461 656 b 631 509 564 656 631 607 b 460 360 631 410 564 360 l 307 360 z "},"Α":{"ha":958,"x_min":0,"x_max":0,"o":"m 722 0 l 940 0 l 600 979 l 359 979 l 19 0 l 229 0 l 304 237 l 648 237 z m 473 791 l 478 791 l 604 391 l 348 391 z "},"Β":{"ha":903,"x_min":0,"x_max":0,"o":"m 521 0 b 859 280 730 0 859 108 b 629 517 859 410 762 507 l 629 522 b 812 734 732 538 812 627 b 513 979 812 884 697 979 l 81 979 l 81 0 z m 286 826 l 460 826 b 611 703 556 826 611 781 b 439 572 611 620 549 572 l 286 572 z m 286 153 l 286 437 l 464 437 b 650 296 585 437 650 388 b 469 153 650 203 587 153 z "},"Γ":{"ha":755,"x_min":0,"x_max":0,"o":"m 294 0 l 294 810 l 716 810 l 716 979 l 89 979 l 89 0 z "},"Δ":{"ha":945,"x_min":0,"x_max":0,"o":"m 910 0 l 910 117 l 593 979 l 353 979 l 36 117 l 36 0 z m 251 174 l 465 798 l 469 798 l 680 174 l 680 169 l 251 169 z "},"Ε":{"ha":804,"x_min":0,"x_max":0,"o":"m 730 170 l 286 170 l 286 416 l 705 416 l 705 574 l 286 574 l 286 810 l 730 810 l 730 979 l 81 979 l 81 0 l 730 0 z "},"Ζ":{"ha":877,"x_min":0,"x_max":0,"o":"m 60 0 l 816 0 l 816 170 l 307 170 l 307 174 l 802 846 l 802 979 l 72 979 l 72 810 l 557 810 l 557 804 l 60 134 z "},"Η":{"ha":1028,"x_min":0,"x_max":0,"o":"m 932 0 l 932 979 l 727 979 l 727 581 l 286 581 l 286 979 l 81 979 l 81 0 l 286 0 l 286 412 l 727 412 l 727 0 z "},"Θ":{"ha":1076,"x_min":0,"x_max":0,"o":"m 711 409 l 711 564 l 364 564 l 364 409 z m 538 996 b 51 490 229 996 51 798 b 538 -17 51 180 233 -17 b 1025 490 843 -17 1025 180 b 538 996 1025 798 848 996 z m 538 825 b 818 490 715 825 818 698 b 538 155 818 281 715 155 b 258 490 361 155 258 281 b 538 825 258 698 361 825 z "},"Ι":{"ha":382,"x_min":0,"x_max":0,"o":"m 286 0 l 286 979 l 81 979 l 81 0 z "},"Κ":{"ha":925,"x_min":0,"x_max":0,"o":"m 286 0 l 286 299 l 378 409 l 668 0 l 913 0 l 526 545 l 888 979 l 660 979 l 292 532 l 286 532 l 286 979 l 81 979 l 81 0 z "},"Λ":{"ha":938,"x_min":0,"x_max":0,"o":"m 702 0 l 919 0 l 589 979 l 349 979 l 19 0 l 229 0 l 463 788 l 468 788 z "},"Μ":{"ha":1214,"x_min":0,"x_max":0,"o":"m 1118 979 l 880 979 l 602 285 l 597 285 l 319 979 l 81 979 l 81 0 l 264 0 l 264 661 l 269 661 l 535 9 l 664 9 l 930 661 l 935 661 l 935 0 l 1118 0 z "},"Ν":{"ha":1007,"x_min":0,"x_max":0,"o":"m 277 0 l 277 641 l 283 641 l 741 0 l 911 0 l 911 979 l 715 979 l 715 341 l 709 341 l 252 979 l 81 979 l 81 0 z "},"Ξ":{"ha":870,"x_min":0,"x_max":0,"o":"m 66 979 l 66 806 l 804 806 l 804 979 z m 745 413 l 745 574 l 125 574 l 125 413 z m 66 173 l 66 0 l 804 0 l 804 173 z "},"Ο":{"ha":1045,"x_min":0,"x_max":0,"o":"m 523 996 b 51 489 233 996 51 801 b 523 -17 51 178 233 -17 b 995 489 812 -17 995 178 b 523 996 995 801 812 996 z m 523 825 b 785 489 683 825 785 694 b 523 155 785 284 683 155 b 260 489 362 155 260 284 b 523 825 260 694 363 825 z "},"Π":{"ha":1015,"x_min":0,"x_max":0,"o":"m 926 0 l 926 979 l 89 979 l 89 0 l 294 0 l 294 810 l 721 810 l 721 0 z "},"Ρ":{"ha":876,"x_min":0,"x_max":0,"o":"m 81 979 l 81 0 l 286 0 l 286 309 l 479 309 b 829 644 686 309 829 443 b 490 979 829 845 690 979 z m 286 817 l 435 817 b 621 643 553 817 621 754 b 435 469 621 531 552 469 l 286 469 z "},"Σ":{"ha":864,"x_min":0,"x_max":0,"o":"m 312 174 l 543 496 l 543 500 l 331 804 l 331 810 l 785 810 l 785 979 l 75 979 l 75 834 l 320 491 l 61 125 l 61 0 l 803 0 l 803 170 l 312 170 z "},"Τ":{"ha":853,"x_min":0,"x_max":0,"o":"m 524 0 l 524 810 l 810 810 l 810 979 l 33 979 l 33 810 l 319 810 l 319 0 z "},"Υ":{"ha":924,"x_min":0,"x_max":0,"o":"m 564 0 l 564 366 l 905 979 l 686 979 l 466 561 l 461 561 l 242 979 l 19 979 l 359 366 l 359 0 z "},"Φ":{"ha":1205,"x_min":0,"x_max":0,"o":"m 966 484 b 696 193 966 313 866 205 l 696 776 b 966 484 866 763 966 656 z m 239 484 b 509 776 239 656 339 763 l 509 193 b 239 484 339 205 239 313 z m 696 -72 l 696 31 b 1166 484 977 44 1166 224 b 696 938 1166 745 977 925 l 696 1041 l 509 1041 l 509 938 b 39 484 229 925 39 745 b 509 31 39 224 229 44 l 509 -72 z "},"Χ":{"ha":953,"x_min":0,"x_max":0,"o":"m 29 0 l 250 0 l 466 342 l 471 342 l 686 0 l 919 0 l 603 487 l 603 492 l 923 979 l 694 979 l 485 626 l 479 626 l 272 979 l 31 979 l 340 496 l 340 490 z "},"Ψ":{"ha":1130,"x_min":0,"x_max":0,"o":"m 663 0 l 663 210 b 1068 612 913 214 1068 370 l 1068 979 l 873 979 l 873 611 b 663 376 873 467 802 386 l 663 979 l 468 979 l 468 376 b 256 611 328 386 256 467 l 256 979 l 62 979 l 62 612 b 468 210 62 370 216 214 l 468 0 z "},"Ω":{"ha":1066,"x_min":0,"x_max":0,"o":"m 801 534 b 616 203 801 380 738 279 l 616 0 l 1007 0 l 1007 162 l 809 162 l 809 168 b 1007 549 929 241 1007 379 b 533 996 1007 814 815 996 b 60 549 252 996 60 814 b 258 168 60 379 137 241 l 258 162 l 60 162 l 60 0 l 451 0 l 451 203 b 265 534 329 279 265 380 b 533 825 265 715 371 825 b 801 534 695 825 801 715 z "},"Ά":{"ha":1048,"x_min":0,"x_max":0,"o":"m 782 0 l 1000 0 l 659 979 l 418 979 l 79 0 l 289 0 l 363 237 l 707 237 z m 533 791 l 538 791 l 663 391 l 408 391 z m 214 758 l 322 979 l 115 979 l 63 758 z "},"Έ":{"ha":1094,"x_min":0,"x_max":0,"o":"m 181 758 l 290 979 l 82 979 l 31 758 z m 1020 170 l 576 170 l 576 416 l 995 416 l 995 574 l 576 574 l 576 810 l 1020 810 l 1020 979 l 372 979 l 372 0 l 1020 0 z "},"Ή":{"ha":1318,"x_min":0,"x_max":0,"o":"m 181 758 l 290 979 l 82 979 l 31 758 z m 1222 0 l 1222 979 l 1017 979 l 1017 581 l 576 581 l 576 979 l 372 979 l 372 0 l 576 0 l 576 412 l 1017 412 l 1017 0 z "},"Ί":{"ha":673,"x_min":0,"x_max":0,"o":"m 576 0 l 576 979 l 372 979 l 372 0 z m 181 758 l 290 979 l 82 979 l 31 758 z "},"Ϊ":{"ha":320,"x_min":0,"x_max":0,"o":"m 255 0 l 255 979 l 50 979 l 50 0 z m 11 1059 b 102 1147 63 1059 102 1099 b 11 1236 102 1196 63 1236 b -81 1147 -41 1236 -81 1196 b 11 1059 -81 1099 -41 1059 z m 295 1059 b 387 1147 347 1059 387 1099 b 295 1236 387 1196 347 1236 b 203 1147 243 1236 203 1196 b 295 1059 203 1099 243 1059 z "},"Ό":{"ha":1223,"x_min":0,"x_max":0,"o":"m 701 996 b 229 489 411 996 229 801 b 701 -17 229 178 411 -17 b 1173 489 991 -17 1173 178 b 701 996 1173 801 991 996 z m 701 825 b 964 489 861 825 964 694 b 701 155 964 284 861 155 b 438 489 541 155 438 284 b 701 825 438 694 541 825 z m 173 758 l 281 979 l 74 979 l 22 758 z "},"Ύ":{"ha":1227,"x_min":0,"x_max":0,"o":"m 174 758 l 283 979 l 75 979 l 24 758 z m 868 0 l 868 366 l 1209 979 l 989 979 l 770 561 l 765 561 l 546 979 l 323 979 l 663 366 l 663 0 z "},"Ϋ":{"ha":924,"x_min":0,"x_max":0,"o":"m 564 0 l 564 366 l 905 979 l 686 979 l 466 561 l 461 561 l 242 979 l 19 979 l 359 366 l 359 0 z m 320 1059 b 412 1147 372 1059 412 1099 b 320 1236 412 1196 372 1236 b 229 1147 268 1236 229 1196 b 320 1059 229 1099 268 1059 z m 604 1059 b 696 1147 656 1059 696 1099 b 604 1236 696 1196 656 1236 b 513 1147 552 1236 513 1196 b 604 1059 513 1099 552 1059 z "},"Ώ":{"ha":1244,"x_min":0,"x_max":0,"o":"m 979 534 b 793 203 979 380 916 279 l 793 0 l 1185 0 l 1185 162 l 987 162 l 987 168 b 1185 549 1107 241 1185 379 b 711 996 1185 814 993 996 b 237 549 429 996 237 814 b 435 168 237 379 315 241 l 435 162 l 237 162 l 237 0 l 629 0 l 629 203 b 443 534 507 279 443 380 b 711 825 443 715 549 825 b 979 534 873 825 979 715 z m 173 758 l 281 979 l 74 979 l 22 758 z "},"А":{"ha":972,"x_min":0,"x_max":0,"o":"m 729 0 l 947 0 l 606 979 l 366 979 l 26 0 l 236 0 l 311 237 l 654 237 z m 480 791 l 485 791 l 610 391 l 355 391 z "},"Б":{"ha":894,"x_min":0,"x_max":0,"o":"m 836 309 b 490 611 836 490 694 611 l 300 611 l 300 810 l 746 810 l 746 979 l 96 979 l 96 0 l 497 0 b 836 309 698 0 836 123 z m 300 163 l 300 455 l 446 455 b 627 309 560 455 627 404 b 446 163 627 214 560 163 z "},"В":{"ha":916,"x_min":0,"x_max":0,"o":"m 528 0 b 866 280 736 0 866 108 b 635 517 866 410 768 507 l 635 522 b 819 734 739 538 819 627 b 520 979 819 884 704 979 l 88 979 l 88 0 z m 293 826 l 467 826 b 618 703 563 826 618 781 b 446 572 618 620 555 572 l 293 572 z m 293 153 l 293 437 l 471 437 b 657 296 591 437 657 388 b 475 153 657 203 593 153 z "},"Г":{"ha":769,"x_min":0,"x_max":0,"o":"m 301 0 l 301 809 l 726 809 l 726 979 l 96 979 l 96 0 z "},"Д":{"ha":1059,"x_min":0,"x_max":0,"o":"m 370 410 l 396 810 l 705 810 l 705 170 l 305 170 l 305 175 b 370 410 349 226 363 301 z m 203 0 l 846 0 l 846 -193 l 1031 -193 l 1031 170 l 909 170 l 909 979 l 216 979 l 182 426 b 85 170 174 293 154 216 l 17 170 l 17 -193 l 203 -193 z "},"Е":{"ha":817,"x_min":0,"x_max":0,"o":"m 736 170 l 293 170 l 293 416 l 711 416 l 711 574 l 293 574 l 293 810 l 736 810 l 736 979 l 88 979 l 88 0 l 736 0 z "},"Ё":{"ha":817,"x_min":0,"x_max":0,"o":"m 271 1059 b 362 1147 323 1059 362 1099 b 271 1236 362 1196 323 1236 b 179 1147 218 1236 179 1196 b 271 1059 179 1099 218 1059 z m 555 1059 b 646 1147 607 1059 646 1099 b 555 1236 646 1196 607 1236 b 463 1147 503 1236 463 1196 b 555 1059 463 1099 503 1059 z m 736 170 l 293 170 l 293 416 l 711 416 l 711 574 l 293 574 l 293 810 l 736 810 l 736 979 l 88 979 l 88 0 l 736 0 z "},"Ж":{"ha":1400,"x_min":0,"x_max":0,"o":"m 984 515 l 1358 979 l 1131 979 l 804 564 l 798 564 l 798 979 l 599 979 l 599 564 l 593 564 l 267 979 l 35 979 l 412 511 l 12 0 l 258 0 l 593 430 l 599 430 l 599 0 l 798 0 l 798 430 l 804 430 l 1137 0 l 1388 0 z "},"З":{"ha":872,"x_min":0,"x_max":0,"o":"m 302 420 l 433 420 b 612 284 545 420 612 370 b 437 140 612 199 542 140 b 245 278 326 140 252 194 l 50 278 b 435 -25 58 95 211 -25 b 823 271 660 -25 823 99 b 607 509 823 401 739 494 l 607 515 b 791 739 717 538 791 628 b 439 1004 791 896 649 1004 b 71 704 220 1004 78 888 l 260 704 b 434 844 266 790 332 844 b 596 715 534 844 596 795 b 431 580 596 634 529 580 l 302 580 z "},"И":{"ha":1045,"x_min":0,"x_max":0,"o":"m 745 0 l 949 0 l 949 979 l 752 979 l 308 316 l 300 316 l 300 979 l 96 979 l 96 0 l 293 0 l 737 662 l 745 662 z "},"Й":{"ha":1045,"x_min":0,"x_max":0,"o":"m 283 1246 b 519 1036 283 1119 380 1036 b 754 1246 658 1036 754 1119 l 635 1246 b 519 1133 633 1178 587 1133 b 403 1246 451 1133 404 1178 z m 745 0 l 949 0 l 949 979 l 752 979 l 308 316 l 300 316 l 300 979 l 96 979 l 96 0 l 293 0 l 737 662 l 745 662 z "},"К":{"ha":945,"x_min":0,"x_max":0,"o":"m 493 515 l 899 979 l 667 979 l 306 564 l 300 564 l 300 979 l 96 979 l 96 0 l 300 0 l 300 430 l 306 430 l 675 0 l 930 0 z "},"Л":{"ha":1004,"x_min":0,"x_max":0,"o":"m 908 0 l 908 979 l 235 979 l 205 400 b 76 174 198 253 167 174 b 31 180 58 174 40 178 l 31 1 b 104 -9 44 -4 71 -9 b 394 387 300 -9 380 134 l 418 810 l 703 810 l 703 0 z "},"М":{"ha":1227,"x_min":0,"x_max":0,"o":"m 1124 979 l 887 979 l 609 285 l 604 285 l 326 979 l 88 979 l 88 0 l 271 0 l 271 661 l 276 661 l 542 9 l 671 9 l 937 661 l 942 661 l 942 0 l 1124 0 z "},"Н":{"ha":1042,"x_min":0,"x_max":0,"o":"m 939 0 l 939 979 l 734 979 l 734 581 l 293 581 l 293 979 l 88 979 l 88 0 l 293 0 l 293 412 l 734 412 l 734 0 z "},"О":{"ha":1062,"x_min":0,"x_max":0,"o":"m 530 996 b 58 489 239 996 58 801 b 530 -17 58 178 239 -17 b 1002 489 819 -17 1002 178 b 530 996 1002 801 819 996 z m 530 825 b 792 489 690 825 792 694 b 530 155 792 284 690 155 b 267 489 369 155 267 284 b 530 825 267 694 370 825 z "},"П":{"ha":1031,"x_min":0,"x_max":0,"o":"m 936 0 l 936 979 l 96 979 l 96 0 l 301 0 l 301 809 l 732 809 l 732 0 z "},"Р":{"ha":888,"x_min":0,"x_max":0,"o":"m 88 979 l 88 0 l 293 0 l 293 309 l 486 309 b 836 644 692 309 836 443 b 496 979 836 845 697 979 z m 293 817 l 442 817 b 627 643 559 817 627 754 b 441 469 627 531 559 469 l 293 469 z "},"С":{"ha":1003,"x_min":0,"x_max":0,"o":"m 522 -22 b 951 320 755 -22 920 111 l 750 320 b 523 153 722 216 638 153 b 269 490 367 153 269 281 b 522 826 269 696 368 826 b 749 648 635 826 724 756 l 951 648 b 522 1000 925 857 751 1000 b 59 490 239 1000 59 805 b 522 -22 59 174 237 -22 z "},"Т":{"ha":867,"x_min":0,"x_max":0,"o":"m 530 0 l 530 810 l 817 810 l 817 979 l 39 979 l 39 810 l 326 810 l 326 0 z "},"У":{"ha":906,"x_min":0,"x_max":0,"o":"m 237 -9 b 584 280 412 -9 498 81 l 884 979 l 668 979 l 463 435 l 458 435 l 243 979 l 26 979 l 351 233 b 212 162 316 180 272 162 b 153 168 178 162 159 166 l 153 1 b 237 -9 158 -2 195 -9 z "},"Ф":{"ha":1208,"x_min":0,"x_max":0,"o":"m 506 249 b 258 492 355 255 258 346 b 506 734 258 635 355 726 z m 949 491 b 703 249 949 347 852 256 l 703 734 b 949 491 852 727 949 636 z m 503 84 l 503 -20 l 705 -20 l 705 84 b 1155 491 976 93 1155 243 b 705 898 1155 739 977 890 l 705 999 l 503 999 l 503 898 b 53 492 231 889 53 739 b 503 84 53 243 231 92 z "},"Х":{"ha":966,"x_min":0,"x_max":0,"o":"m 36 0 l 257 0 l 473 342 l 478 342 l 692 0 l 926 0 l 610 487 l 610 492 l 930 979 l 701 979 l 492 626 l 486 626 l 279 979 l 38 979 l 347 496 l 347 490 z "},"Ц":{"ha":1085,"x_min":0,"x_max":0,"o":"m 1058 -193 l 1058 169 l 936 169 l 936 979 l 731 979 l 731 169 l 300 169 l 300 979 l 96 979 l 96 0 l 873 0 l 873 -193 z "},"Ч":{"ha":992,"x_min":0,"x_max":0,"o":"m 897 0 l 897 979 l 692 979 l 692 626 b 484 513 658 556 580 513 b 288 720 361 513 288 591 l 288 979 l 83 979 l 83 701 b 444 338 83 481 228 338 b 686 421 541 338 626 368 l 692 421 l 692 0 z "},"Ш":{"ha":1362,"x_min":0,"x_max":0,"o":"m 96 0 l 1266 0 l 1266 979 l 1061 979 l 1061 169 l 783 169 l 783 979 l 578 979 l 578 169 l 300 169 l 300 979 l 96 979 z "},"Щ":{"ha":1415,"x_min":0,"x_max":0,"o":"m 1388 -193 l 1388 169 l 1266 169 l 1266 979 l 1061 979 l 1061 169 l 783 169 l 783 979 l 578 979 l 578 169 l 300 169 l 300 979 l 96 979 l 96 0 l 1203 0 l 1203 -193 z "},"Ъ":{"ha":1071,"x_min":0,"x_max":0,"o":"m 686 0 b 1025 326 887 0 1025 130 b 676 650 1025 520 882 650 l 486 650 l 486 979 l 54 979 l 54 810 l 281 810 l 281 0 z m 486 163 l 486 489 l 631 489 b 816 326 748 489 816 431 b 632 163 816 220 749 163 z "},"Ы":{"ha":1247,"x_min":0,"x_max":0,"o":"m 1144 0 l 1144 979 l 939 979 l 939 0 z m 96 0 l 500 0 b 840 326 702 0 840 130 b 490 650 840 519 696 650 l 300 650 l 300 979 l 96 979 z m 300 163 l 300 489 l 446 489 b 630 326 562 489 630 431 b 446 163 630 220 563 163 z "},"Ь":{"ha":885,"x_min":0,"x_max":0,"o":"m 96 0 l 500 0 b 840 326 702 0 840 130 b 490 650 840 519 696 650 l 300 650 l 300 979 l 96 979 z m 300 163 l 300 489 l 446 489 b 630 326 562 489 630 431 b 446 163 630 220 563 163 z "},"Э":{"ha":1003,"x_min":0,"x_max":0,"o":"m 485 -22 b 944 490 768 -22 944 174 b 485 1000 944 805 767 1000 b 52 648 256 1000 78 857 l 254 648 b 485 826 279 756 371 826 b 730 576 616 826 715 731 l 346 576 l 346 417 l 732 417 b 484 153 720 253 621 153 b 253 320 368 153 281 216 l 52 320 b 485 -22 83 111 251 -22 z "},"Ю":{"ha":1426,"x_min":0,"x_max":0,"o":"m 903 -25 b 1367 490 1189 -25 1367 173 b 903 1004 1367 806 1188 1004 b 445 581 648 1004 477 844 l 300 581 l 300 979 l 96 979 l 96 0 l 300 0 l 300 412 l 444 412 b 903 -25 471 141 642 -25 z m 903 830 b 1158 490 1058 830 1158 698 b 903 149 1158 282 1058 149 b 647 490 746 149 647 282 b 903 830 647 698 748 830 z "},"Я":{"ha":936,"x_min":0,"x_max":0,"o":"m 637 506 l 468 506 b 293 662 358 506 293 564 b 468 818 293 759 359 818 l 637 818 z m 496 353 l 637 353 l 637 0 l 840 0 l 840 979 l 439 979 b 83 663 221 979 83 851 b 295 382 83 525 169 421 l 37 0 l 264 0 z "},"Ђ":{"ha":1182,"x_min":0,"x_max":0,"o":"m 769 -45 b 1114 291 984 -45 1114 90 b 776 615 1114 477 992 615 b 540 532 677 615 596 585 l 534 532 l 534 810 l 821 810 l 821 979 l 43 979 l 43 810 l 330 810 l 330 0 l 534 0 l 534 330 b 735 441 566 395 646 441 b 909 279 842 441 909 378 b 750 119 909 178 848 119 b 670 127 708 119 678 124 l 670 -34 b 769 -45 678 -37 716 -45 z "},"Ѓ":{"ha":769,"x_min":0,"x_max":0,"o":"m 493 1043 l 681 1253 l 496 1253 l 338 1043 z m 301 0 l 301 809 l 726 809 l 726 979 l 96 979 l 96 0 z "},"Є":{"ha":1003,"x_min":0,"x_max":0,"o":"m 951 320 l 750 320 b 523 153 722 216 638 153 b 272 417 385 153 284 253 l 657 417 l 657 576 l 273 576 b 522 826 290 731 390 826 b 749 648 635 826 724 756 l 951 648 b 522 1000 925 857 751 1000 b 59 490 239 1000 59 805 b 522 -22 59 174 237 -22 b 951 320 755 -22 920 111 z "},"Ѕ":{"ha":891,"x_min":0,"x_max":0,"o":"m 52 279 b 443 -17 58 95 208 -17 b 840 293 686 -17 840 103 b 558 568 840 442 754 526 l 439 593 b 279 713 327 619 279 653 b 448 834 279 786 347 834 b 630 701 551 834 623 784 l 822 701 b 448 996 819 878 675 996 b 73 696 229 996 73 876 b 342 422 73 553 162 461 l 470 395 b 635 269 588 368 635 333 b 451 145 635 197 560 145 b 249 279 342 145 258 198 z "},"І":{"ha":426,"x_min":0,"x_max":0,"o":"m 293 0 l 293 979 l 88 979 l 88 0 z "},"Ї":{"ha":426,"x_min":0,"x_max":0,"o":"m 293 0 l 293 979 l 88 979 l 88 0 z m 49 1059 b 140 1147 101 1059 140 1099 b 49 1236 140 1196 101 1236 b -43 1147 -3 1236 -43 1196 b 49 1059 -43 1099 -3 1059 z m 333 1059 b 425 1147 385 1059 425 1099 b 333 1236 425 1196 385 1236 b 241 1147 281 1236 241 1196 b 333 1059 241 1099 281 1059 z "},"Ј":{"ha":789,"x_min":0,"x_max":0,"o":"m 28 288 b 359 -20 28 101 159 -20 b 693 307 568 -20 693 98 l 693 979 l 488 979 l 488 308 b 357 157 488 210 442 157 b 227 288 279 157 228 209 z "},"Љ":{"ha":1510,"x_min":0,"x_max":0,"o":"m 404 387 l 428 810 l 713 810 l 713 0 l 1118 0 b 1457 326 1319 0 1457 130 b 1107 650 1457 520 1314 650 l 918 650 l 918 979 l 245 979 l 216 400 b 86 174 209 271 186 174 b 41 180 68 174 50 178 l 41 1 b 115 -9 54 -4 81 -9 b 404 387 317 -9 391 146 z m 918 163 l 918 489 l 1063 489 b 1248 326 1179 489 1248 431 b 1064 163 1248 220 1180 163 z "},"Њ":{"ha":1510,"x_min":0,"x_max":0,"o":"m 926 163 l 926 429 l 1081 429 b 1258 300 1194 429 1258 382 b 1082 163 1258 213 1194 163 z m 300 422 l 721 422 l 721 0 l 1126 0 b 1465 298 1328 0 1465 120 b 1116 588 1465 471 1323 588 l 926 588 l 926 979 l 721 979 l 721 588 l 300 588 l 300 979 l 96 979 l 96 0 l 300 0 z "},"Ћ":{"ha":1189,"x_min":0,"x_max":0,"o":"m 728 441 b 899 250 838 441 899 370 l 899 0 l 1104 0 l 1104 262 b 770 615 1104 473 985 615 b 540 533 673 615 595 585 l 534 533 l 534 810 l 821 810 l 821 979 l 43 979 l 43 810 l 330 810 l 330 0 l 534 0 l 534 330 b 728 441 566 393 640 441 z "},"Ќ":{"ha":934,"x_min":0,"x_max":0,"o":"m 735 1253 l 550 1253 l 393 1043 l 547 1043 z m 493 515 l 899 979 l 667 979 l 306 564 l 300 564 l 300 979 l 96 979 l 96 0 l 300 0 l 300 430 l 306 430 l 675 0 l 930 0 z "},"Ў":{"ha":906,"x_min":0,"x_max":0,"o":"m 225 1246 b 460 1036 225 1119 321 1036 b 696 1246 600 1036 696 1119 l 576 1246 b 460 1133 575 1178 528 1133 b 345 1246 393 1133 346 1178 z m 237 -9 b 584 280 412 -9 498 81 l 884 979 l 668 979 l 463 435 l 458 435 l 243 979 l 26 979 l 351 233 b 212 162 316 180 272 162 b 153 168 178 162 159 166 l 153 1 b 237 -9 158 -2 195 -9 z "},"Џ":{"ha":1031,"x_min":0,"x_max":0,"o":"m 420 0 l 420 -193 l 612 -193 l 612 0 l 936 0 l 936 979 l 731 979 l 731 169 l 300 169 l 300 979 l 96 979 l 96 0 z "},"Ґ":{"ha":769,"x_min":0,"x_max":0,"o":"m 301 809 l 726 809 l 726 1172 l 534 1172 l 534 979 l 96 979 l 96 0 l 301 0 z "},"a":{"ha":778,"x_min":0,"x_max":0,"o":"m 353 136 b 234 225 281 136 234 170 b 361 318 234 280 278 313 l 517 329 l 517 274 b 353 136 517 193 444 136 z m 288 -9 b 517 115 384 -9 476 37 l 521 115 l 521 0 l 712 0 l 712 512 b 395 760 712 661 587 760 b 74 519 208 760 79 661 l 255 519 b 387 611 264 573 315 611 b 517 500 468 611 517 572 l 517 450 l 331 439 b 37 215 140 427 37 351 b 288 -9 37 81 144 -9 z "},"à":{"ha":778,"x_min":0,"x_max":0,"o":"m 353 136 b 234 225 281 136 234 170 b 361 318 234 280 278 313 l 517 329 l 517 274 b 353 136 517 193 444 136 z m 288 -9 b 517 115 384 -9 476 37 l 521 115 l 521 0 l 712 0 l 712 512 b 395 760 712 661 587 760 b 74 519 208 760 79 661 l 255 519 b 387 611 264 573 315 611 b 517 500 468 611 517 572 l 517 450 l 331 439 b 37 215 140 427 37 351 b 288 -9 37 81 144 -9 z m 473 857 l 323 1067 l 138 1067 l 316 857 z "},"á":{"ha":778,"x_min":0,"x_max":0,"o":"m 353 136 b 234 225 281 136 234 170 b 361 318 234 280 278 313 l 517 329 l 517 274 b 353 136 517 193 444 136 z m 288 -9 b 517 115 384 -9 476 37 l 521 115 l 521 0 l 712 0 l 712 512 b 395 760 712 661 587 760 b 74 519 208 760 79 661 l 255 519 b 387 611 264 573 315 611 b 517 500 468 611 517 572 l 517 450 l 331 439 b 37 215 140 427 37 351 b 288 -9 37 81 144 -9 z m 468 857 l 646 1067 l 461 1067 l 311 857 z "},"ä":{"ha":778,"x_min":0,"x_max":0,"o":"m 353 136 b 234 225 281 136 234 170 b 361 318 234 280 278 313 l 517 329 l 517 274 b 353 136 517 193 444 136 z m 288 -9 b 517 115 384 -9 476 37 l 521 115 l 521 0 l 712 0 l 712 512 b 395 760 712 661 587 760 b 74 519 208 760 79 661 l 255 519 b 387 611 264 573 315 611 b 517 500 468 611 517 572 l 517 450 l 331 439 b 37 215 140 427 37 351 b 288 -9 37 81 144 -9 z m 250 854 b 342 943 302 854 342 894 b 250 1031 342 991 302 1031 b 159 943 198 1031 159 991 b 250 854 159 894 198 854 z m 534 854 b 626 943 587 854 626 894 b 534 1031 626 991 587 1031 b 443 943 482 1031 443 991 b 534 854 443 894 482 854 z "},"ǟ":{"ha":778,"x_min":0,"x_max":0,"o":"m 353 136 b 234 225 281 136 234 170 b 361 318 234 280 278 313 l 517 329 l 517 274 b 353 136 517 193 444 136 z m 288 -9 b 517 115 384 -9 476 37 l 521 115 l 521 0 l 712 0 l 712 512 b 395 760 712 661 587 760 b 74 519 208 760 79 661 l 255 519 b 387 611 264 573 315 611 b 517 500 468 611 517 572 l 517 450 l 331 439 b 37 215 140 427 37 351 b 288 -9 37 81 144 -9 z m 254 853 b 341 937 304 853 341 891 b 254 1021 341 984 304 1021 b 168 937 205 1021 168 984 b 254 853 168 891 205 853 z m 530 853 b 616 937 579 853 616 891 b 530 1021 616 984 579 1021 b 443 937 481 1021 443 984 b 530 853 443 891 481 853 z m 619 1222 l 165 1222 l 165 1125 l 619 1125 z "},"å":{"ha":778,"x_min":0,"x_max":0,"o":"m 353 136 b 234 225 281 136 234 170 b 361 318 234 280 278 313 l 517 329 l 517 274 b 353 136 517 193 444 136 z m 288 -9 b 517 115 384 -9 476 37 l 521 115 l 521 0 l 712 0 l 712 512 b 395 760 712 661 587 760 b 74 519 208 760 79 661 l 255 519 b 387 611 264 573 315 611 b 517 500 468 611 517 572 l 517 450 l 331 439 b 37 215 140 427 37 351 b 288 -9 37 81 144 -9 z m 392 821 b 542 968 474 821 542 887 b 392 1115 542 1048 474 1115 b 242 968 311 1115 242 1048 b 392 821 242 887 311 821 z m 392 900 b 323 968 355 900 323 930 b 392 1036 323 1005 355 1036 b 461 968 430 1036 461 1005 b 392 900 461 930 430 900 z "},"ǻ":{"ha":778,"x_min":0,"x_max":0,"o":"m 353 136 b 234 225 281 136 234 170 b 361 318 234 280 278 313 l 517 329 l 517 274 b 353 136 517 193 444 136 z m 288 -9 b 517 115 384 -9 476 37 l 521 115 l 521 0 l 712 0 l 712 512 b 395 760 712 661 587 760 b 74 519 208 760 79 661 l 255 519 b 387 611 264 573 315 611 b 517 500 468 611 517 572 l 517 450 l 331 439 b 37 215 140 427 37 351 b 288 -9 37 81 144 -9 z m 393 821 b 541 965 477 821 541 884 b 393 1110 541 1047 477 1110 b 245 965 309 1110 245 1047 b 393 821 245 884 309 821 z m 327 965 b 393 1031 327 1002 356 1031 b 459 965 430 1031 459 1002 b 393 900 459 928 430 900 b 327 965 356 900 327 928 z m 330 1161 l 463 1161 l 581 1305 l 420 1305 z "},"ã":{"ha":778,"x_min":0,"x_max":0,"o":"m 353 136 b 234 225 281 136 234 170 b 361 318 234 280 278 313 l 517 329 l 517 274 b 353 136 517 193 444 136 z m 288 -9 b 517 115 384 -9 476 37 l 521 115 l 521 0 l 712 0 l 712 512 b 395 760 712 661 587 760 b 74 519 208 760 79 661 l 255 519 b 387 611 264 573 315 611 b 517 500 468 611 517 572 l 517 450 l 331 439 b 37 215 140 427 37 351 b 288 -9 37 81 144 -9 z m 488 853 b 633 1040 570 853 633 924 l 526 1040 b 482 957 526 987 511 957 b 305 1048 433 957 401 1048 b 159 865 222 1048 159 981 l 267 865 b 313 945 267 912 283 945 b 488 853 363 945 395 853 z "},"ằ":{"ha":778,"x_min":0,"x_max":0,"o":"m 353 136 b 234 225 281 136 234 170 b 361 318 234 280 278 313 l 517 329 l 517 274 b 353 136 517 193 444 136 z m 288 -9 b 517 115 384 -9 476 37 l 521 115 l 521 0 l 712 0 l 712 512 b 395 760 712 661 587 760 b 74 519 208 760 79 661 l 255 519 b 387 611 264 573 315 611 b 517 500 468 611 517 572 l 517 450 l 331 439 b 37 215 140 427 37 351 b 288 -9 37 81 144 -9 z m 471 1082 l 353 1275 l 190 1275 l 345 1082 z m 632 1065 l 512 1065 b 392 947 511 995 466 947 b 272 1065 318 947 273 995 l 152 1065 b 392 850 154 942 242 850 b 632 1065 542 850 630 942 z "},"ǡ":{"ha":778,"x_min":0,"x_max":0,"o":"m 353 136 b 234 225 281 136 234 170 b 361 318 234 280 278 313 l 517 329 l 517 274 b 353 136 517 193 444 136 z m 288 -9 b 517 115 384 -9 476 37 l 521 115 l 521 0 l 712 0 l 712 512 b 395 760 712 661 587 760 b 74 519 208 760 79 661 l 255 519 b 387 611 264 573 315 611 b 517 500 468 611 517 572 l 517 450 l 331 439 b 37 215 140 427 37 351 b 288 -9 37 81 144 -9 z m 392 849 b 494 949 448 849 494 894 b 392 1049 494 1004 448 1049 b 290 949 336 1049 290 1004 b 392 849 290 894 336 849 z m 619 1225 l 165 1225 l 165 1128 l 619 1128 z "},"ḁ":{"ha":778,"x_min":0,"x_max":0,"o":"m 353 136 b 234 225 281 136 234 170 b 361 318 234 280 278 313 l 517 329 l 517 274 b 353 136 517 193 444 136 z m 288 -9 b 517 115 384 -9 476 37 l 521 115 l 521 0 l 712 0 l 712 512 b 395 760 712 661 587 760 b 74 519 208 760 79 661 l 255 519 b 387 611 264 573 315 611 b 517 500 468 611 517 572 l 517 450 l 331 439 b 37 215 140 427 37 351 b 288 -9 37 81 144 -9 z m 385 -393 b 534 -246 467 -393 534 -327 b 385 -99 534 -165 467 -99 b 235 -246 303 -99 235 -165 b 385 -393 235 -327 303 -393 z m 385 -314 b 315 -246 347 -314 315 -283 b 385 -178 315 -209 347 -178 b 454 -246 422 -178 454 -209 b 385 -314 454 -283 422 -314 z "},"â":{"ha":778,"x_min":0,"x_max":0,"o":"m 353 136 b 234 225 281 136 234 170 b 361 318 234 280 278 313 l 517 329 l 517 274 b 353 136 517 193 444 136 z m 288 -9 b 517 115 384 -9 476 37 l 521 115 l 521 0 l 712 0 l 712 512 b 395 760 712 661 587 760 b 74 519 208 760 79 661 l 255 519 b 387 611 264 573 315 611 b 517 500 468 611 517 572 l 517 450 l 331 439 b 37 215 140 427 37 351 b 288 -9 37 81 144 -9 z m 466 1065 l 317 1065 l 137 850 l 289 850 l 389 978 l 394 978 l 495 850 l 646 850 z "},"ậ":{"ha":778,"x_min":0,"x_max":0,"o":"m 353 136 b 234 225 281 136 234 170 b 361 318 234 280 278 313 l 517 329 l 517 274 b 353 136 517 193 444 136 z m 288 -9 b 517 115 384 -9 476 37 l 521 115 l 521 0 l 712 0 l 712 512 b 395 760 712 661 587 760 b 74 519 208 760 79 661 l 255 519 b 387 611 264 573 315 611 b 517 500 468 611 517 572 l 517 450 l 331 439 b 37 215 140 427 37 351 b 288 -9 37 81 144 -9 z m 466 1065 l 317 1065 l 137 850 l 289 850 l 389 978 l 394 978 l 495 850 l 646 850 z m 385 -311 b 486 -210 441 -311 486 -265 b 385 -109 486 -154 441 -109 b 283 -210 328 -109 283 -154 b 385 -311 283 -265 328 -311 z "},"ấ":{"ha":778,"x_min":0,"x_max":0,"o":"m 353 136 b 234 225 281 136 234 170 b 361 318 234 280 278 313 l 517 329 l 517 274 b 353 136 517 193 444 136 z m 288 -9 b 517 115 384 -9 476 37 l 521 115 l 521 0 l 712 0 l 712 512 b 395 760 712 661 587 760 b 74 519 208 760 79 661 l 255 519 b 387 611 264 573 315 611 b 517 500 468 611 517 572 l 517 450 l 331 439 b 37 215 140 427 37 351 b 288 -9 37 81 144 -9 z m 474 1051 l 310 1051 l 135 850 l 286 850 l 389 972 l 395 972 l 498 850 l 649 850 z m 495 1086 l 636 1086 l 789 1282 l 623 1282 z "},"ẫ":{"ha":778,"x_min":0,"x_max":0,"o":"m 353 136 b 234 225 281 136 234 170 b 361 318 234 280 278 313 l 517 329 l 517 274 b 353 136 517 193 444 136 z m 288 -9 b 517 115 384 -9 476 37 l 521 115 l 521 0 l 712 0 l 712 512 b 395 760 712 661 587 760 b 74 519 208 760 79 661 l 255 519 b 387 611 264 573 315 611 b 517 500 468 611 517 572 l 517 450 l 331 439 b 37 215 140 427 37 351 b 288 -9 37 81 144 -9 z m 474 1044 l 310 1044 l 135 850 l 286 850 l 389 966 l 395 966 l 498 850 l 649 850 z m 484 1098 b 629 1284 566 1098 629 1168 l 522 1284 b 477 1201 521 1232 507 1201 b 300 1293 429 1201 397 1293 b 155 1109 217 1293 155 1225 l 262 1109 b 309 1190 263 1157 278 1190 b 484 1098 359 1190 391 1098 z "},"ầ":{"ha":778,"x_min":0,"x_max":0,"o":"m 353 136 b 234 225 281 136 234 170 b 361 318 234 280 278 313 l 517 329 l 517 274 b 353 136 517 193 444 136 z m 288 -9 b 517 115 384 -9 476 37 l 521 115 l 521 0 l 712 0 l 712 512 b 395 760 712 661 587 760 b 74 519 208 760 79 661 l 255 519 b 387 611 264 573 315 611 b 517 500 468 611 517 572 l 517 450 l 331 439 b 37 215 140 427 37 351 b 288 -9 37 81 144 -9 z m 474 1051 l 310 1051 l 135 850 l 286 850 l 389 972 l 395 972 l 498 850 l 649 850 z m 683 1086 l 555 1282 l 389 1282 l 542 1086 z "},"ẩ":{"ha":778,"x_min":0,"x_max":0,"o":"m 353 136 b 234 225 281 136 234 170 b 361 318 234 280 278 313 l 517 329 l 517 274 b 353 136 517 193 444 136 z m 288 -9 b 517 115 384 -9 476 37 l 521 115 l 521 0 l 712 0 l 712 512 b 395 760 712 661 587 760 b 74 519 208 760 79 661 l 255 519 b 387 611 264 573 315 611 b 517 500 468 611 517 572 l 517 450 l 331 439 b 37 215 140 427 37 351 b 288 -9 37 81 144 -9 z m 472 1187 b 534 1198 491 1195 512 1198 b 598 1149 572 1198 598 1179 b 538 1078 598 1121 576 1093 l 597 1013 b 709 1162 671 1041 709 1092 b 553 1291 709 1240 649 1291 b 472 1276 524 1291 491 1284 z m 474 1051 l 310 1051 l 135 850 l 286 850 l 389 972 l 395 972 l 498 850 l 649 850 z "},"ă":{"ha":778,"x_min":0,"x_max":0,"o":"m 353 136 b 234 225 281 136 234 170 b 361 318 234 280 278 313 l 517 329 l 517 274 b 353 136 517 193 444 136 z m 288 -9 b 517 115 384 -9 476 37 l 521 115 l 521 0 l 712 0 l 712 512 b 395 760 712 661 587 760 b 74 519 208 760 79 661 l 255 519 b 387 611 264 573 315 611 b 517 500 468 611 517 572 l 517 450 l 331 439 b 37 215 140 427 37 351 b 288 -9 37 81 144 -9 z m 149 1065 b 391 846 151 941 241 846 b 635 1065 542 846 633 941 l 513 1065 b 391 946 511 997 463 946 b 270 1065 319 946 271 997 z "},"ắ":{"ha":778,"x_min":0,"x_max":0,"o":"m 353 136 b 234 225 281 136 234 170 b 361 318 234 280 278 313 l 517 329 l 517 274 b 353 136 517 193 444 136 z m 288 -9 b 517 115 384 -9 476 37 l 521 115 l 521 0 l 712 0 l 712 512 b 395 760 712 661 587 760 b 74 519 208 760 79 661 l 255 519 b 387 611 264 573 315 611 b 517 500 468 611 517 572 l 517 450 l 331 439 b 37 215 140 427 37 351 b 288 -9 37 81 144 -9 z m 309 1086 l 450 1086 l 603 1282 l 437 1282 z m 632 1065 l 512 1065 b 392 947 511 995 466 947 b 272 1065 318 947 273 995 l 152 1065 b 392 850 154 942 242 850 b 632 1065 542 850 630 942 z "},"ẵ":{"ha":778,"x_min":0,"x_max":0,"o":"m 353 136 b 234 225 281 136 234 170 b 361 318 234 280 278 313 l 517 329 l 517 274 b 353 136 517 193 444 136 z m 288 -9 b 517 115 384 -9 476 37 l 521 115 l 521 0 l 712 0 l 712 512 b 395 760 712 661 587 760 b 74 519 208 760 79 661 l 255 519 b 387 611 264 573 315 611 b 517 500 468 611 517 572 l 517 450 l 331 439 b 37 215 140 427 37 351 b 288 -9 37 81 144 -9 z m 632 1065 l 512 1065 b 392 947 511 995 466 947 b 272 1065 318 947 273 995 l 152 1065 b 392 850 154 942 242 850 b 632 1065 542 850 630 942 z m 484 1098 b 629 1284 566 1098 629 1168 l 522 1284 b 477 1201 521 1232 507 1201 b 300 1293 429 1201 397 1293 b 155 1112 217 1293 155 1225 l 262 1112 b 309 1190 263 1157 278 1190 b 484 1098 359 1190 391 1098 z "},"ẳ":{"ha":778,"x_min":0,"x_max":0,"o":"m 353 136 b 234 225 281 136 234 170 b 361 318 234 280 278 313 l 517 329 l 517 274 b 353 136 517 193 444 136 z m 288 -9 b 517 115 384 -9 476 37 l 521 115 l 521 0 l 712 0 l 712 512 b 395 760 712 661 587 760 b 74 519 208 760 79 661 l 255 519 b 387 611 264 573 315 611 b 517 500 468 611 517 572 l 517 450 l 331 439 b 37 215 140 427 37 351 b 288 -9 37 81 144 -9 z m 632 1065 l 512 1065 b 392 947 511 995 466 947 b 272 1065 318 947 273 995 l 152 1065 b 392 850 154 942 242 850 b 632 1065 542 850 630 942 z m 273 1205 b 334 1216 292 1213 313 1216 b 395 1168 370 1216 395 1197 b 338 1103 395 1143 377 1121 l 395 1042 b 501 1180 465 1068 501 1114 b 351 1303 501 1256 444 1303 b 273 1289 323 1303 292 1297 z "},"ặ":{"ha":778,"x_min":0,"x_max":0,"o":"m 353 136 b 234 225 281 136 234 170 b 361 318 234 280 278 313 l 517 329 l 517 274 b 353 136 517 193 444 136 z m 288 -9 b 517 115 384 -9 476 37 l 521 115 l 521 0 l 712 0 l 712 512 b 395 760 712 661 587 760 b 74 519 208 760 79 661 l 255 519 b 387 611 264 573 315 611 b 517 500 468 611 517 572 l 517 450 l 331 439 b 37 215 140 427 37 351 b 288 -9 37 81 144 -9 z m 385 -311 b 486 -210 441 -311 486 -265 b 385 -109 486 -154 441 -109 b 283 -210 328 -109 283 -154 b 385 -311 283 -265 328 -311 z m 149 1065 b 391 846 151 941 241 846 b 635 1065 542 846 633 941 l 513 1065 b 391 946 511 997 463 946 b 270 1065 319 946 271 997 z "},"ȃ":{"ha":778,"x_min":0,"x_max":0,"o":"m 353 136 b 234 225 281 136 234 170 b 361 318 234 280 278 313 l 517 329 l 517 274 b 353 136 517 193 444 136 z m 288 -9 b 517 115 384 -9 476 37 l 521 115 l 521 0 l 712 0 l 712 512 b 395 760 712 661 587 760 b 74 519 208 760 79 661 l 255 519 b 387 611 264 573 315 611 b 517 500 468 611 517 572 l 517 450 l 331 439 b 37 215 140 427 37 351 b 288 -9 37 81 144 -9 z m 149 850 l 271 850 b 392 969 272 918 320 969 b 513 850 464 969 512 918 l 635 850 b 392 1068 633 973 543 1068 b 149 850 241 1068 151 973 z "},"ǎ":{"ha":778,"x_min":0,"x_max":0,"o":"m 353 136 b 234 225 281 136 234 170 b 361 318 234 280 278 313 l 517 329 l 517 274 b 353 136 517 193 444 136 z m 288 -9 b 517 115 384 -9 476 37 l 521 115 l 521 0 l 712 0 l 712 512 b 395 760 712 661 587 760 b 74 519 208 760 79 661 l 255 519 b 387 611 264 573 315 611 b 517 500 468 611 517 572 l 517 450 l 331 439 b 37 215 140 427 37 351 b 288 -9 37 81 144 -9 z m 466 850 l 646 1065 l 495 1065 l 394 938 l 389 938 l 289 1065 l 137 1065 l 317 850 z "},"ȧ":{"ha":778,"x_min":0,"x_max":0,"o":"m 353 136 b 234 225 281 136 234 170 b 361 318 234 280 278 313 l 517 329 l 517 274 b 353 136 517 193 444 136 z m 288 -9 b 517 115 384 -9 476 37 l 521 115 l 521 0 l 712 0 l 712 512 b 395 760 712 661 587 760 b 74 519 208 760 79 661 l 255 519 b 387 611 264 573 315 611 b 517 500 468 611 517 572 l 517 450 l 331 439 b 37 215 140 427 37 351 b 288 -9 37 81 144 -9 z m 391 857 b 493 957 448 857 493 902 b 391 1058 493 1013 448 1058 b 289 957 334 1058 289 1013 b 391 857 289 902 334 857 z "},"ạ":{"ha":778,"x_min":0,"x_max":0,"o":"m 353 136 b 234 225 281 136 234 170 b 361 318 234 280 278 313 l 517 329 l 517 274 b 353 136 517 193 444 136 z m 288 -9 b 517 115 384 -9 476 37 l 521 115 l 521 0 l 712 0 l 712 512 b 395 760 712 661 587 760 b 74 519 208 760 79 661 l 255 519 b 387 611 264 573 315 611 b 517 500 468 611 517 572 l 517 450 l 331 439 b 37 215 140 427 37 351 b 288 -9 37 81 144 -9 z m 385 -311 b 486 -210 441 -311 486 -265 b 385 -109 486 -154 441 -109 b 283 -210 328 -109 283 -154 b 385 -311 283 -265 328 -311 z "},"ả":{"ha":778,"x_min":0,"x_max":0,"o":"m 353 136 b 234 225 281 136 234 170 b 361 318 234 280 278 313 l 517 329 l 517 274 b 353 136 517 193 444 136 z m 288 -9 b 517 115 384 -9 476 37 l 521 115 l 521 0 l 712 0 l 712 512 b 395 760 712 661 587 760 b 74 519 208 760 79 661 l 255 519 b 387 611 264 573 315 611 b 517 500 468 611 517 572 l 517 450 l 331 439 b 37 215 140 427 37 351 b 288 -9 37 81 144 -9 z m 289 1006 b 358 1021 313 1017 334 1021 b 428 967 399 1021 428 998 b 363 890 428 932 409 910 l 420 819 b 549 977 500 854 549 913 b 391 1116 549 1061 487 1116 b 289 1098 355 1116 316 1109 z "},"ȁ":{"ha":778,"x_min":0,"x_max":0,"o":"m 353 136 b 234 225 281 136 234 170 b 361 318 234 280 278 313 l 517 329 l 517 274 b 353 136 517 193 444 136 z m 288 -9 b 517 115 384 -9 476 37 l 521 115 l 521 0 l 712 0 l 712 512 b 395 760 712 661 587 760 b 74 519 208 760 79 661 l 255 519 b 387 611 264 573 315 611 b 517 500 468 611 517 572 l 517 450 l 331 439 b 37 215 140 427 37 351 b 288 -9 37 81 144 -9 z m 341 857 l 213 1067 l 42 1067 l 200 857 z m 592 857 l 464 1067 l 293 1067 l 451 857 z "},"ā":{"ha":778,"x_min":0,"x_max":0,"o":"m 353 136 b 234 225 281 136 234 170 b 361 318 234 280 278 313 l 517 329 l 517 274 b 353 136 517 193 444 136 z m 288 -9 b 517 115 384 -9 476 37 l 521 115 l 521 0 l 712 0 l 712 512 b 395 760 712 661 587 760 b 74 519 208 760 79 661 l 255 519 b 387 611 264 573 315 611 b 517 500 468 611 517 572 l 517 450 l 331 439 b 37 215 140 427 37 351 b 288 -9 37 81 144 -9 z m 619 977 l 165 977 l 165 880 l 619 880 z "},"ą":{"ha":778,"x_min":0,"x_max":0,"o":"m 629 -307 b 712 -296 662 -307 690 -303 l 712 -191 b 673 -194 700 -193 687 -194 b 594 -120 626 -194 594 -165 b 692 7 594 -68 627 -26 l 712 7 l 712 512 b 395 760 712 661 586 760 b 74 519 209 760 79 662 l 255 519 b 387 611 264 574 317 611 b 517 500 469 611 517 570 l 517 450 l 331 439 b 37 215 139 427 37 349 b 288 -9 37 84 141 -9 b 517 115 388 -9 477 40 l 521 115 l 521 8 l 569 8 b 460 -157 495 -35 460 -88 b 629 -307 460 -246 529 -307 z m 353 136 b 234 225 280 136 234 171 b 361 318 234 280 278 313 l 517 329 l 517 274 b 353 136 517 195 447 136 z "},"b":{"ha":849,"x_min":0,"x_max":0,"o":"m 506 -9 b 810 374 694 -9 810 136 b 505 755 810 611 694 755 b 275 619 399 755 316 705 l 271 619 l 271 1025 l 73 1025 l 73 0 l 267 0 l 267 127 l 271 127 b 506 -9 313 41 397 -9 z m 439 595 b 607 374 541 595 607 509 b 439 151 607 238 541 151 b 269 373 337 151 270 239 b 439 595 270 507 337 595 z "},"ḇ":{"ha":849,"x_min":0,"x_max":0,"o":"m 670 -156 l 201 -156 l 201 -253 l 670 -253 z m 506 -9 b 810 374 694 -9 810 136 b 505 755 810 611 694 755 b 275 619 399 755 316 705 l 271 619 l 271 1025 l 73 1025 l 73 0 l 267 0 l 267 127 l 271 127 b 506 -9 313 41 397 -9 z m 439 595 b 607 374 541 595 607 509 b 439 151 607 238 541 151 b 269 373 337 151 270 239 b 439 595 270 507 337 595 z "},"ḅ":{"ha":849,"x_min":0,"x_max":0,"o":"m 435 -311 b 536 -210 492 -311 536 -265 b 435 -109 536 -154 492 -109 b 334 -210 378 -109 334 -154 b 435 -311 334 -265 378 -311 z m 506 -9 b 810 374 694 -9 810 136 b 505 755 810 611 694 755 b 275 619 399 755 316 705 l 271 619 l 271 1025 l 73 1025 l 73 0 l 267 0 l 267 127 l 271 127 b 506 -9 313 41 397 -9 z m 439 595 b 607 374 541 595 607 509 b 439 151 607 238 541 151 b 269 373 337 151 270 239 b 439 595 270 507 337 595 z "},"ḃ":{"ha":849,"x_min":0,"x_max":0,"o":"m 172 1105 b 273 1206 229 1105 273 1151 b 172 1307 273 1262 229 1307 b 71 1206 115 1307 71 1262 b 172 1105 71 1151 115 1105 z m 506 -9 b 810 374 694 -9 810 136 b 505 755 810 611 694 755 b 275 619 399 755 316 705 l 271 619 l 271 1025 l 73 1025 l 73 0 l 267 0 l 267 127 l 271 127 b 506 -9 313 41 397 -9 z m 439 595 b 607 374 541 595 607 509 b 439 151 607 238 541 151 b 269 373 337 151 270 239 b 439 595 270 507 337 595 z "},"c":{"ha":774,"x_min":0,"x_max":0,"o":"m 742 471 b 404 760 732 637 604 760 b 39 374 182 760 39 610 b 405 -13 39 134 182 -13 b 743 271 601 -13 731 98 l 558 271 b 407 144 545 189 490 144 b 240 374 304 144 240 228 b 406 604 240 517 304 604 b 557 471 492 604 547 549 z "},"ć":{"ha":774,"x_min":0,"x_max":0,"o":"m 742 471 b 404 760 732 637 604 760 b 39 374 182 760 39 610 b 405 -13 39 134 182 -13 b 743 271 601 -13 731 98 l 558 271 b 407 144 545 189 490 144 b 240 374 304 144 240 228 b 406 604 240 517 304 604 b 557 471 492 604 547 549 z m 471 857 l 649 1067 l 464 1067 l 314 857 z "},"č":{"ha":774,"x_min":0,"x_max":0,"o":"m 469 850 l 649 1065 l 498 1065 l 397 938 l 392 938 l 292 1065 l 140 1065 l 320 850 z m 742 471 b 404 760 732 637 604 760 b 39 374 182 760 39 610 b 405 -13 39 134 182 -13 b 743 271 601 -13 731 98 l 558 271 b 407 144 545 189 490 144 b 240 374 304 144 240 228 b 406 604 240 517 304 604 b 557 471 492 604 547 549 z "},"ĉ":{"ha":774,"x_min":0,"x_max":0,"o":"m 469 1065 l 320 1065 l 140 850 l 292 850 l 392 978 l 397 978 l 498 850 l 649 850 z m 742 471 b 404 760 732 637 604 760 b 39 374 182 760 39 610 b 405 -13 39 134 182 -13 b 743 271 601 -13 731 98 l 558 271 b 407 144 545 189 490 144 b 240 374 304 144 240 228 b 406 604 240 517 304 604 b 557 471 492 604 547 549 z "},"ċ":{"ha":774,"x_min":0,"x_max":0,"o":"m 742 471 b 404 760 732 637 604 760 b 39 374 182 760 39 610 b 405 -13 39 134 182 -13 b 743 271 601 -13 731 98 l 558 271 b 407 144 545 189 490 144 b 240 374 304 144 240 228 b 406 604 240 517 304 604 b 557 471 492 604 547 549 z m 394 857 b 496 957 451 857 496 902 b 394 1058 496 1013 451 1058 b 292 957 337 1058 292 1013 b 394 857 292 902 337 857 z "},"ç":{"ha":774,"x_min":0,"x_max":0,"o":"m 558 271 b 407 144 545 189 490 144 b 240 374 304 144 240 228 b 406 604 240 517 304 604 b 557 471 492 604 547 549 l 742 471 b 404 760 732 637 604 760 b 39 374 182 760 39 610 b 351 -10 39 153 159 12 l 317 -86 l 317 -155 l 355 -155 b 439 -193 416 -155 439 -165 b 367 -230 439 -218 416 -230 b 292 -220 340 -230 307 -226 l 292 -302 b 387 -313 316 -309 349 -313 b 550 -186 489 -312 550 -264 b 425 -79 550 -118 504 -79 l 453 -11 b 743 271 622 6 732 113 z "},"ḉ":{"ha":774,"x_min":0,"x_max":0,"o":"m 649 1067 l 464 1067 l 314 857 l 471 857 z m 558 271 b 407 144 545 189 490 144 b 240 374 304 144 240 228 b 406 604 240 517 304 604 b 557 471 492 604 547 549 l 742 471 b 404 760 732 637 604 760 b 39 374 182 760 39 610 b 351 -10 39 153 159 12 l 317 -86 l 317 -155 l 355 -155 b 439 -193 416 -155 439 -165 b 367 -230 439 -218 416 -230 b 292 -220 340 -230 307 -226 l 292 -302 b 387 -313 316 -309 349 -313 b 550 -186 489 -312 550 -264 b 425 -79 550 -118 504 -79 l 453 -11 b 743 271 622 6 732 113 z "},"d":{"ha":847,"x_min":0,"x_max":0,"o":"m 345 -9 b 578 127 455 -9 541 45 l 581 127 l 581 0 l 777 0 l 777 1025 l 578 1025 l 578 619 l 574 619 b 346 755 537 702 454 755 b 39 374 160 755 39 608 b 345 -9 39 139 159 -9 z m 411 595 b 580 373 513 595 580 508 b 411 151 580 238 513 151 b 242 374 308 151 242 237 b 411 595 242 509 308 595 z "},"ḋ":{"ha":847,"x_min":0,"x_max":0,"o":"m 682 1105 b 783 1206 739 1105 783 1151 b 682 1307 783 1262 739 1307 b 581 1206 625 1307 581 1262 b 682 1105 581 1151 625 1105 z m 345 -9 b 578 127 455 -9 541 45 l 581 127 l 581 0 l 777 0 l 777 1025 l 578 1025 l 578 619 l 574 619 b 346 755 537 702 454 755 b 39 374 160 755 39 608 b 345 -9 39 139 159 -9 z m 411 595 b 580 373 513 595 580 508 b 411 151 580 238 513 151 b 242 374 308 151 242 237 b 411 595 242 509 308 595 z "},"ḓ":{"ha":847,"x_min":0,"x_max":0,"o":"m 345 -9 b 578 127 455 -9 541 45 l 581 127 l 581 0 l 777 0 l 777 1025 l 578 1025 l 578 619 l 574 619 b 346 755 537 702 454 755 b 39 374 160 755 39 608 b 345 -9 39 139 159 -9 z m 411 595 b 580 373 513 595 580 508 b 411 151 580 238 513 151 b 242 374 308 151 242 237 b 411 595 242 509 308 595 z m 326 -109 l 140 -324 l 291 -324 l 401 -191 l 406 -191 l 516 -324 l 667 -324 l 481 -109 z "},"ḑ":{"ha":847,"x_min":0,"x_max":0,"o":"m 389 -339 l 497 -105 l 323 -105 l 241 -339 z m 345 -9 b 578 127 455 -9 541 45 l 581 127 l 581 0 l 777 0 l 777 1025 l 578 1025 l 578 619 l 574 619 b 346 755 537 702 454 755 b 39 374 160 755 39 608 b 345 -9 39 139 159 -9 z m 411 595 b 580 373 513 595 580 508 b 411 151 580 238 513 151 b 242 374 308 151 242 237 b 411 595 242 509 308 595 z "},"ḏ":{"ha":847,"x_min":0,"x_max":0,"o":"m 638 -156 l 169 -156 l 169 -253 l 638 -253 z m 345 -9 b 578 127 455 -9 541 45 l 581 127 l 581 0 l 777 0 l 777 1025 l 578 1025 l 578 619 l 574 619 b 346 755 537 702 454 755 b 39 374 160 755 39 608 b 345 -9 39 139 159 -9 z m 411 595 b 580 373 513 595 580 508 b 411 151 580 238 513 151 b 242 374 308 151 242 237 b 411 595 242 509 308 595 z "},"ď":{"ha":983,"x_min":0,"x_max":0,"o":"m 880 1022 l 880 681 l 1000 681 l 1027 1022 z m 345 -9 b 578 127 455 -9 541 45 l 581 127 l 581 0 l 777 0 l 777 1025 l 578 1025 l 578 619 l 574 619 b 346 755 537 702 454 755 b 39 374 160 755 39 608 b 345 -9 39 139 159 -9 z m 411 595 b 580 373 513 595 580 508 b 411 151 580 238 513 151 b 242 374 308 151 242 237 b 411 595 242 509 308 595 z "},"ḍ":{"ha":847,"x_min":0,"x_max":0,"o":"m 404 -311 b 505 -210 460 -311 505 -265 b 404 -109 505 -154 460 -109 b 302 -210 347 -109 302 -154 b 404 -311 302 -265 347 -311 z m 345 -9 b 578 127 455 -9 541 45 l 581 127 l 581 0 l 777 0 l 777 1025 l 578 1025 l 578 619 l 574 619 b 346 755 537 702 454 755 b 39 374 160 755 39 608 b 345 -9 39 139 159 -9 z m 411 595 b 580 373 513 595 580 508 b 411 151 580 238 513 151 b 242 374 308 151 242 237 b 411 595 242 509 308 595 z "},"đ":{"ha":878,"x_min":0,"x_max":0,"o":"m 426 148 b 257 374 320 148 257 232 b 426 599 257 514 321 599 b 595 373 531 599 595 512 b 426 148 595 233 532 148 z m 854 958 l 791 958 l 791 1055 l 593 1055 l 593 958 l 442 958 l 442 856 l 593 856 l 593 627 l 582 627 b 359 759 543 709 461 759 b 54 374 172 759 54 612 b 357 -12 54 135 170 -12 b 584 117 461 -12 544 37 l 596 117 l 596 0 l 791 0 l 791 856 l 854 856 z "},"e":{"ha":789,"x_min":0,"x_max":0,"o":"m 400 612 b 559 450 492 612 555 548 l 237 450 b 400 612 243 546 310 612 z m 562 228 b 409 135 543 170 484 135 b 235 315 304 135 235 208 l 235 328 l 750 328 l 750 389 b 398 760 750 616 613 760 b 39 370 179 760 39 608 b 406 -13 39 133 178 -13 b 744 228 587 -13 722 83 z "},"è":{"ha":789,"x_min":0,"x_max":0,"o":"m 478 857 l 328 1067 l 143 1067 l 321 857 z m 400 612 b 559 450 492 612 555 548 l 237 450 b 400 612 243 546 310 612 z m 562 228 b 409 135 543 170 484 135 b 235 315 304 135 235 208 l 235 328 l 750 328 l 750 389 b 398 760 750 616 613 760 b 39 370 179 760 39 608 b 406 -13 39 133 178 -13 b 744 228 587 -13 722 83 z "},"ȅ":{"ha":789,"x_min":0,"x_max":0,"o":"m 400 612 b 559 450 492 612 555 548 l 237 450 b 400 612 243 546 310 612 z m 562 228 b 409 135 543 170 484 135 b 235 315 304 135 235 208 l 235 328 l 750 328 l 750 389 b 398 760 750 616 613 760 b 39 370 179 760 39 608 b 406 -13 39 133 178 -13 b 744 228 587 -13 722 83 z m 347 857 l 218 1067 l 47 1067 l 205 857 z m 597 857 l 469 1067 l 298 1067 l 456 857 z "},"é":{"ha":789,"x_min":0,"x_max":0,"o":"m 473 857 l 652 1067 l 467 1067 l 317 857 z m 400 612 b 559 450 492 612 555 548 l 237 450 b 400 612 243 546 310 612 z m 562 228 b 409 135 543 170 484 135 b 235 315 304 135 235 208 l 235 328 l 750 328 l 750 389 b 398 760 750 616 613 760 b 39 370 179 760 39 608 b 406 -13 39 133 178 -13 b 744 228 587 -13 722 83 z "},"ê":{"ha":789,"x_min":0,"x_max":0,"o":"m 471 1065 l 323 1065 l 142 850 l 294 850 l 395 978 l 399 978 l 500 850 l 652 850 z m 400 612 b 559 450 492 612 555 548 l 237 450 b 400 612 243 546 310 612 z m 562 228 b 409 135 543 170 484 135 b 235 315 304 135 235 208 l 235 328 l 750 328 l 750 389 b 398 760 750 616 613 760 b 39 370 179 760 39 608 b 406 -13 39 133 178 -13 b 744 228 587 -13 722 83 z "},"ể":{"ha":789,"x_min":0,"x_max":0,"o":"m 477 1187 b 540 1198 496 1195 517 1198 b 604 1149 578 1198 604 1179 b 543 1078 604 1121 582 1093 l 603 1013 b 715 1162 677 1041 715 1092 b 559 1291 715 1240 654 1291 b 477 1276 529 1291 496 1284 z m 479 1051 l 315 1051 l 140 850 l 291 850 l 395 972 l 400 972 l 504 850 l 654 850 z m 400 612 b 559 450 492 612 555 548 l 237 450 b 400 612 243 546 310 612 z m 562 228 b 409 135 543 170 484 135 b 235 315 304 135 235 208 l 235 328 l 750 328 l 750 389 b 398 760 750 616 613 760 b 39 370 179 760 39 608 b 406 -13 39 133 178 -13 b 744 228 587 -13 722 83 z "},"ề":{"ha":789,"x_min":0,"x_max":0,"o":"m 479 1051 l 315 1051 l 140 850 l 291 850 l 395 972 l 400 972 l 504 850 l 654 850 z m 688 1086 l 560 1282 l 394 1282 l 547 1086 z m 400 612 b 559 450 492 612 555 548 l 237 450 b 400 612 243 546 310 612 z m 562 228 b 409 135 543 170 484 135 b 235 315 304 135 235 208 l 235 328 l 750 328 l 750 389 b 398 760 750 616 613 760 b 39 370 179 760 39 608 b 406 -13 39 133 178 -13 b 744 228 587 -13 722 83 z "},"ễ":{"ha":789,"x_min":0,"x_max":0,"o":"m 400 612 b 559 450 492 612 555 548 l 237 450 b 400 612 243 546 310 612 z m 562 228 b 409 135 543 170 484 135 b 235 315 304 135 235 208 l 235 328 l 750 328 l 750 389 b 398 760 750 616 613 760 b 39 370 179 760 39 608 b 406 -13 39 133 178 -13 b 744 228 587 -13 722 83 z m 479 1044 l 315 1044 l 140 850 l 291 850 l 395 966 l 400 966 l 504 850 l 654 850 z m 490 1098 b 634 1284 571 1098 634 1168 l 528 1284 b 483 1201 526 1232 513 1201 b 306 1293 435 1201 403 1293 b 161 1109 222 1293 161 1225 l 267 1109 b 314 1190 269 1157 283 1190 b 490 1098 364 1190 396 1098 z "},"ệ":{"ha":789,"x_min":0,"x_max":0,"o":"m 471 1065 l 323 1065 l 142 850 l 294 850 l 395 978 l 399 978 l 500 850 l 652 850 z m 400 612 b 559 450 492 612 555 548 l 237 450 b 400 612 243 546 310 612 z m 562 228 b 409 135 543 170 484 135 b 235 315 304 135 235 208 l 235 328 l 750 328 l 750 389 b 398 760 750 616 613 760 b 39 370 179 760 39 608 b 406 -13 39 133 178 -13 b 744 228 587 -13 722 83 z m 400 -311 b 501 -210 457 -311 501 -265 b 400 -109 501 -154 457 -109 b 299 -210 343 -109 299 -154 b 400 -311 299 -265 343 -311 z "},"ế":{"ha":789,"x_min":0,"x_max":0,"o":"m 479 1051 l 315 1051 l 140 850 l 291 850 l 395 972 l 400 972 l 504 850 l 654 850 z m 500 1086 l 642 1086 l 795 1282 l 629 1282 z m 400 612 b 559 450 492 612 555 548 l 237 450 b 400 612 243 546 310 612 z m 562 228 b 409 135 543 170 484 135 b 235 315 304 135 235 208 l 235 328 l 750 328 l 750 389 b 398 760 750 616 613 760 b 39 370 179 760 39 608 b 406 -13 39 133 178 -13 b 744 228 587 -13 722 83 z "},"ë":{"ha":789,"x_min":0,"x_max":0,"o":"m 400 612 b 559 450 492 612 555 548 l 237 450 b 400 612 243 546 310 612 z m 562 228 b 409 135 543 170 484 135 b 235 315 304 135 235 208 l 235 328 l 750 328 l 750 389 b 398 760 750 616 613 760 b 39 370 179 760 39 608 b 406 -13 39 133 178 -13 b 744 228 587 -13 722 83 z m 256 854 b 347 943 308 854 347 894 b 256 1031 347 991 308 1031 b 164 943 203 1031 164 991 b 256 854 164 894 203 854 z m 540 854 b 631 943 592 854 631 894 b 540 1031 631 991 592 1031 b 448 943 488 1031 448 991 b 540 854 448 894 488 854 z "},"ẹ":{"ha":789,"x_min":0,"x_max":0,"o":"m 400 -311 b 501 -210 457 -311 501 -265 b 400 -109 501 -154 457 -109 b 299 -210 343 -109 299 -154 b 400 -311 299 -265 343 -311 z m 400 612 b 559 450 492 612 555 548 l 237 450 b 400 612 243 546 310 612 z m 562 228 b 409 135 543 170 484 135 b 235 315 304 135 235 208 l 235 328 l 750 328 l 750 389 b 398 760 750 616 613 760 b 39 370 179 760 39 608 b 406 -13 39 133 178 -13 b 744 228 587 -13 722 83 z "},"ȇ":{"ha":789,"x_min":0,"x_max":0,"o":"m 400 612 b 559 450 492 612 555 548 l 237 450 b 400 612 243 546 310 612 z m 562 228 b 409 135 543 170 484 135 b 235 315 304 135 235 208 l 235 328 l 750 328 l 750 389 b 398 760 750 616 613 760 b 39 370 179 760 39 608 b 406 -13 39 133 178 -13 b 744 228 587 -13 722 83 z m 154 850 l 276 850 b 397 969 277 918 326 969 b 519 850 469 969 517 918 l 641 850 b 397 1068 639 973 548 1068 b 154 850 247 1068 156 973 z "},"ẻ":{"ha":789,"x_min":0,"x_max":0,"o":"m 400 612 b 559 450 492 612 555 548 l 237 450 b 400 612 243 546 310 612 z m 562 228 b 409 135 543 170 484 135 b 235 315 304 135 235 208 l 235 328 l 750 328 l 750 389 b 398 760 750 616 613 760 b 39 370 179 760 39 608 b 406 -13 39 133 178 -13 b 744 228 587 -13 722 83 z m 294 1006 b 363 1021 319 1017 340 1021 b 433 967 405 1021 433 998 b 368 890 433 932 414 910 l 426 819 b 554 977 506 854 554 913 b 396 1116 554 1061 492 1116 b 294 1098 361 1116 321 1109 z "},"ě":{"ha":789,"x_min":0,"x_max":0,"o":"m 471 850 l 652 1065 l 500 1065 l 399 938 l 395 938 l 294 1065 l 142 1065 l 323 850 z m 400 612 b 559 450 492 612 555 548 l 237 450 b 400 612 243 546 310 612 z m 562 228 b 409 135 543 170 484 135 b 235 315 304 135 235 208 l 235 328 l 750 328 l 750 389 b 398 760 750 616 613 760 b 39 370 179 760 39 608 b 406 -13 39 133 178 -13 b 744 228 587 -13 722 83 z "},"ē":{"ha":789,"x_min":0,"x_max":0,"o":"m 400 612 b 559 450 492 612 555 548 l 237 450 b 400 612 243 546 310 612 z m 562 228 b 409 135 543 170 484 135 b 235 315 304 135 235 208 l 235 328 l 750 328 l 750 389 b 398 760 750 616 613 760 b 39 370 179 760 39 608 b 406 -13 39 133 178 -13 b 744 228 587 -13 722 83 z m 625 977 l 171 977 l 171 880 l 625 880 z "},"ḕ":{"ha":789,"x_min":0,"x_max":0,"o":"m 400 612 b 559 450 492 612 555 548 l 237 450 b 400 612 243 546 310 612 z m 562 228 b 409 135 543 170 484 135 b 235 315 304 135 235 208 l 235 328 l 750 328 l 750 389 b 398 760 750 616 613 760 b 39 370 179 760 39 608 b 406 -13 39 133 178 -13 b 744 228 587 -13 722 83 z m 469 1098 l 356 1282 l 183 1282 l 330 1098 z m 625 977 l 171 977 l 171 880 l 625 880 z "},"ḗ":{"ha":789,"x_min":0,"x_max":0,"o":"m 400 612 b 559 450 492 612 555 548 l 237 450 b 400 612 243 546 310 612 z m 562 228 b 409 135 543 170 484 135 b 235 315 304 135 235 208 l 235 328 l 750 328 l 750 389 b 398 760 750 616 613 760 b 39 370 179 760 39 608 b 406 -13 39 133 178 -13 b 744 228 587 -13 722 83 z m 323 1100 l 472 1100 l 620 1282 l 447 1282 z m 625 977 l 171 977 l 171 880 l 625 880 z "},"ẽ":{"ha":789,"x_min":0,"x_max":0,"o":"m 400 612 b 559 450 492 612 555 548 l 237 450 b 400 612 243 546 310 612 z m 562 228 b 409 135 543 170 484 135 b 235 315 304 135 235 208 l 235 328 l 750 328 l 750 389 b 398 760 750 616 613 760 b 39 370 179 760 39 608 b 406 -13 39 133 178 -13 b 744 228 587 -13 722 83 z m 494 853 b 639 1040 576 853 639 924 l 532 1040 b 488 957 531 987 517 957 b 311 1048 439 957 407 1048 b 165 865 227 1048 165 981 l 272 865 b 319 945 273 912 288 945 b 494 853 369 945 401 853 z "},"ḙ":{"ha":789,"x_min":0,"x_max":0,"o":"m 400 612 b 559 450 492 612 555 548 l 237 450 b 400 612 243 546 310 612 z m 562 228 b 409 135 543 170 484 135 b 235 315 304 135 235 208 l 235 328 l 750 328 l 750 389 b 398 760 750 616 613 760 b 39 370 179 760 39 608 b 406 -13 39 133 178 -13 b 744 228 587 -13 722 83 z m 323 -109 l 137 -324 l 288 -324 l 398 -191 l 402 -191 l 513 -324 l 663 -324 l 477 -109 z "},"ĕ":{"ha":789,"x_min":0,"x_max":0,"o":"m 400 612 b 559 450 492 612 555 548 l 237 450 b 400 612 243 546 310 612 z m 562 228 b 409 135 543 170 484 135 b 235 315 304 135 235 208 l 235 328 l 750 328 l 750 389 b 398 760 750 616 613 760 b 39 370 179 760 39 608 b 406 -13 39 133 178 -13 b 744 228 587 -13 722 83 z m 154 1065 b 397 846 156 941 247 846 b 640 1065 547 846 638 941 l 518 1065 b 397 946 517 997 469 946 b 275 1065 325 946 277 997 z "},"ḛ":{"ha":789,"x_min":0,"x_max":0,"o":"m 495 -295 b 640 -109 577 -295 640 -224 l 533 -109 b 489 -191 532 -161 518 -191 b 312 -100 440 -191 408 -100 b 166 -283 229 -100 166 -167 l 273 -283 b 320 -203 274 -236 290 -203 b 495 -295 370 -203 402 -295 z m 400 612 b 559 450 492 612 555 548 l 237 450 b 400 612 243 546 310 612 z m 562 228 b 409 135 543 170 484 135 b 235 315 304 135 235 208 l 235 328 l 750 328 l 750 389 b 398 760 750 616 613 760 b 39 370 179 760 39 608 b 406 -13 39 133 178 -13 b 744 228 587 -13 722 83 z "},"ė":{"ha":789,"x_min":0,"x_max":0,"o":"m 397 857 b 498 957 454 857 498 902 b 397 1058 498 1013 454 1058 b 294 957 340 1058 294 1013 b 397 857 294 902 340 857 z m 400 612 b 559 450 492 612 555 548 l 237 450 b 400 612 243 546 310 612 z m 562 228 b 409 135 543 170 484 135 b 235 315 304 135 235 208 l 235 328 l 750 328 l 750 389 b 398 760 750 616 613 760 b 39 370 179 760 39 608 b 406 -13 39 133 178 -13 b 744 228 587 -13 722 83 z "},"ȩ":{"ha":789,"x_min":0,"x_max":0,"o":"m 237 450 b 400 612 243 546 310 612 b 559 450 492 612 555 548 z m 750 328 l 750 389 b 398 760 750 616 613 760 b 39 370 179 760 39 608 b 356 -10 39 151 158 9 l 321 -86 l 321 -155 l 359 -155 b 444 -193 420 -155 444 -165 b 372 -230 444 -218 420 -230 b 296 -220 345 -230 312 -226 l 296 -302 b 391 -313 321 -309 354 -313 b 555 -186 494 -312 555 -264 b 429 -79 555 -118 509 -79 l 458 -10 b 744 228 613 7 724 98 l 562 228 b 409 135 543 170 484 135 b 235 315 304 135 235 208 l 235 328 z "},"ḝ":{"ha":789,"x_min":0,"x_max":0,"o":"m 518 1065 b 397 946 517 997 469 946 b 275 1065 325 946 277 997 l 154 1065 b 397 846 156 941 247 846 b 640 1065 547 846 638 941 z m 237 450 b 400 612 243 546 310 612 b 559 450 492 612 555 548 z m 750 328 l 750 389 b 398 760 750 616 613 760 b 39 370 179 760 39 608 b 356 -10 39 151 158 9 l 321 -86 l 321 -155 l 359 -155 b 444 -193 420 -155 444 -165 b 372 -230 444 -218 420 -230 b 296 -220 345 -230 312 -226 l 296 -302 b 391 -313 321 -309 354 -313 b 555 -186 494 -312 555 -264 b 429 -79 555 -118 509 -79 l 458 -10 b 744 228 613 7 724 98 l 562 228 b 409 135 543 170 484 135 b 235 315 304 135 235 208 l 235 328 z "},"ę":{"ha":789,"x_min":0,"x_max":0,"o":"m 515 -309 b 609 -294 555 -309 589 -304 l 609 -187 b 559 -193 595 -191 578 -193 b 482 -125 513 -193 482 -165 b 601 25 482 -71 531 -30 b 744 228 675 83 732 143 l 562 228 b 409 135 543 171 484 135 b 235 315 304 135 235 208 l 235 328 l 750 328 l 750 389 b 398 760 750 616 613 760 b 39 370 179 760 39 608 b 406 -13 39 133 178 -13 b 431 -12 416 -13 425 -13 l 431 -13 b 349 -165 374 -57 349 -104 b 515 -309 349 -250 416 -309 z m 400 612 b 559 450 492 612 555 548 l 237 450 b 400 612 243 546 310 612 z "},"f":{"ha":498,"x_min":0,"x_max":0,"o":"m 120 0 l 318 0 l 318 597 l 454 597 l 454 747 l 314 747 l 314 802 b 399 876 315 854 339 876 b 453 871 420 876 439 874 l 453 1009 b 361 1016 426 1013 395 1016 b 120 813 189 1016 120 957 l 120 747 l 19 747 l 19 597 l 120 597 z "},"ḟ":{"ha":498,"x_min":0,"x_max":0,"o":"m 296 1093 b 397 1194 353 1093 397 1139 b 296 1295 397 1250 353 1295 b 195 1194 239 1295 195 1250 b 296 1093 195 1139 239 1093 z m 120 0 l 318 0 l 318 597 l 454 597 l 454 747 l 314 747 l 314 802 b 399 876 315 854 339 876 b 453 871 420 876 439 874 l 453 1009 b 361 1016 426 1013 395 1016 b 120 813 189 1016 120 957 l 120 747 l 19 747 l 19 597 l 120 597 z "},"g":{"ha":844,"x_min":0,"x_max":0,"o":"m 410 158 b 242 375 307 158 242 239 b 410 595 242 510 307 595 b 579 374 513 595 579 509 b 410 158 579 241 513 158 z m 408 -273 b 777 17 632 -273 777 -161 l 777 747 l 581 747 l 581 619 l 578 619 b 347 755 538 702 454 755 b 39 376 157 755 39 610 b 343 5 39 146 161 5 b 574 136 451 5 538 56 l 578 136 l 578 2 b 412 -134 578 -82 513 -134 b 259 -53 334 -134 272 -102 l 64 -53 b 408 -273 74 -187 212 -273 z "},"ǵ":{"ha":844,"x_min":0,"x_max":0,"o":"m 489 857 l 667 1067 l 482 1067 l 332 857 z m 410 158 b 242 375 307 158 242 239 b 410 595 242 510 307 595 b 579 374 513 595 579 509 b 410 158 579 241 513 158 z m 408 -273 b 777 17 632 -273 777 -161 l 777 747 l 581 747 l 581 619 l 578 619 b 347 755 538 702 454 755 b 39 376 157 755 39 610 b 343 5 39 146 161 5 b 574 136 451 5 538 56 l 578 136 l 578 2 b 412 -134 578 -82 513 -134 b 259 -53 334 -134 272 -102 l 64 -53 b 408 -273 74 -187 212 -273 z "},"ǧ":{"ha":844,"x_min":0,"x_max":0,"o":"m 487 850 l 667 1065 l 516 1065 l 415 938 l 410 938 l 310 1065 l 158 1065 l 338 850 z m 410 158 b 242 375 307 158 242 239 b 410 595 242 510 307 595 b 579 374 513 595 579 509 b 410 158 579 241 513 158 z m 408 -273 b 777 17 632 -273 777 -161 l 777 747 l 581 747 l 581 619 l 578 619 b 347 755 538 702 454 755 b 39 376 157 755 39 610 b 343 5 39 146 161 5 b 574 136 451 5 538 56 l 578 136 l 578 2 b 412 -134 578 -82 513 -134 b 259 -53 334 -134 272 -102 l 64 -53 b 408 -273 74 -187 212 -273 z "},"ĝ":{"ha":844,"x_min":0,"x_max":0,"o":"m 487 1065 l 338 1065 l 158 850 l 310 850 l 410 978 l 415 978 l 516 850 l 667 850 z m 410 158 b 242 375 307 158 242 239 b 410 595 242 510 307 595 b 579 374 513 595 579 509 b 410 158 579 241 513 158 z m 408 -273 b 777 17 632 -273 777 -161 l 777 747 l 581 747 l 581 619 l 578 619 b 347 755 538 702 454 755 b 39 376 157 755 39 610 b 343 5 39 146 161 5 b 574 136 451 5 538 56 l 578 136 l 578 2 b 412 -134 578 -82 513 -134 b 259 -53 334 -134 272 -102 l 64 -53 b 408 -273 74 -187 212 -273 z "},"ğ":{"ha":844,"x_min":0,"x_max":0,"o":"m 170 1065 b 412 846 172 941 262 846 b 656 1065 563 846 654 941 l 534 1065 b 412 946 532 997 484 946 b 291 1065 340 946 292 997 z m 410 158 b 242 375 307 158 242 239 b 410 595 242 510 307 595 b 579 374 513 595 579 509 b 410 158 579 241 513 158 z m 408 -273 b 777 17 632 -273 777 -161 l 777 747 l 581 747 l 581 619 l 578 619 b 347 755 538 702 454 755 b 39 376 157 755 39 610 b 343 5 39 146 161 5 b 574 136 451 5 538 56 l 578 136 l 578 2 b 412 -134 578 -82 513 -134 b 259 -53 334 -134 272 -102 l 64 -53 b 408 -273 74 -187 212 -273 z "},"ḡ":{"ha":844,"x_min":0,"x_max":0,"o":"m 640 977 l 186 977 l 186 880 l 640 880 z m 410 158 b 242 375 307 158 242 239 b 410 595 242 510 307 595 b 579 374 513 595 579 509 b 410 158 579 241 513 158 z m 408 -273 b 777 17 632 -273 777 -161 l 777 747 l 581 747 l 581 619 l 578 619 b 347 755 538 702 454 755 b 39 376 157 755 39 610 b 343 5 39 146 161 5 b 574 136 451 5 538 56 l 578 136 l 578 2 b 412 -134 578 -82 513 -134 b 259 -53 334 -134 272 -102 l 64 -53 b 408 -273 74 -187 212 -273 z "},"ġ":{"ha":844,"x_min":0,"x_max":0,"o":"m 412 857 b 514 957 469 857 514 902 b 412 1058 514 1013 469 1058 b 310 957 355 1058 310 1013 b 412 857 310 902 355 857 z m 410 158 b 242 375 307 158 242 239 b 410 595 242 510 307 595 b 579 374 513 595 579 509 b 410 158 579 241 513 158 z m 408 -273 b 777 17 632 -273 777 -161 l 777 747 l 581 747 l 581 619 l 578 619 b 347 755 538 702 454 755 b 39 376 157 755 39 610 b 343 5 39 146 161 5 b 574 136 451 5 538 56 l 578 136 l 578 2 b 412 -134 578 -82 513 -134 b 259 -53 334 -134 272 -102 l 64 -53 b 408 -273 74 -187 212 -273 z "},"ģ":{"ha":844,"x_min":0,"x_max":0,"o":"m 399 -598 l 507 -364 l 334 -364 l 252 -598 z m 410 158 b 242 375 307 158 242 239 b 410 595 242 510 307 595 b 579 374 513 595 579 509 b 410 158 579 241 513 158 z m 408 -273 b 777 17 632 -273 777 -161 l 777 747 l 581 747 l 581 619 l 578 619 b 347 755 538 702 454 755 b 39 376 157 755 39 610 b 343 5 39 146 161 5 b 574 136 451 5 538 56 l 578 136 l 578 2 b 412 -134 578 -82 513 -134 b 259 -53 334 -134 272 -102 l 64 -53 b 408 -273 74 -187 212 -273 z "},"h":{"ha":846,"x_min":0,"x_max":0,"o":"m 73 0 l 271 0 l 271 424 b 433 593 271 524 336 593 b 584 436 527 593 584 534 l 584 0 l 782 0 l 782 477 b 513 758 782 650 678 758 b 271 613 399 758 313 707 l 267 613 l 267 1025 l 73 1025 z "},"ḧ":{"ha":846,"x_min":0,"x_max":0,"o":"m 73 0 l 271 0 l 271 424 b 433 593 271 524 336 593 b 584 436 527 593 584 534 l 584 0 l 782 0 l 782 477 b 513 758 782 650 678 758 b 271 613 399 758 313 707 l 267 613 l 267 1025 l 73 1025 z m 29 1105 b 121 1194 81 1105 121 1145 b 29 1283 121 1243 81 1283 b -62 1194 -23 1283 -62 1243 b 29 1105 -62 1145 -23 1105 z m 313 1105 b 405 1194 366 1105 405 1145 b 313 1283 405 1243 366 1283 b 222 1194 261 1283 222 1243 b 313 1105 222 1145 261 1105 z "},"ȟ":{"ha":846,"x_min":0,"x_max":0,"o":"m 73 0 l 271 0 l 271 424 b 433 593 271 524 336 593 b 584 436 527 593 584 534 l 584 0 l 782 0 l 782 477 b 513 758 782 650 678 758 b 271 613 399 758 313 707 l 267 613 l 267 1025 l 73 1025 z m 94 1093 l 248 1093 l 434 1309 l 283 1309 l 173 1175 l 169 1175 l 58 1309 l -92 1309 z "},"ĥ":{"ha":846,"x_min":0,"x_max":0,"o":"m 73 0 l 271 0 l 271 424 b 433 593 271 524 336 593 b 584 436 527 593 584 534 l 584 0 l 782 0 l 782 477 b 513 758 782 650 678 758 b 271 613 399 758 313 707 l 267 613 l 267 1025 l 73 1025 z m 94 1309 l -92 1093 l 58 1093 l 169 1227 l 173 1227 l 283 1093 l 434 1093 l 248 1309 z "},"ḥ":{"ha":846,"x_min":0,"x_max":0,"o":"m 73 0 l 271 0 l 271 424 b 433 593 271 524 336 593 b 584 436 527 593 584 534 l 584 0 l 782 0 l 782 477 b 513 758 782 650 678 758 b 271 613 399 758 313 707 l 267 613 l 267 1025 l 73 1025 z m 425 -311 b 526 -210 482 -311 526 -265 b 425 -109 526 -154 482 -109 b 324 -210 368 -109 324 -154 b 425 -311 324 -265 368 -311 z "},"ḣ":{"ha":846,"x_min":0,"x_max":0,"o":"m 73 0 l 271 0 l 271 424 b 433 593 271 524 336 593 b 584 436 527 593 584 534 l 584 0 l 782 0 l 782 477 b 513 758 782 650 678 758 b 271 613 399 758 313 707 l 267 613 l 267 1025 l 73 1025 z m 171 1105 b 272 1206 228 1105 272 1151 b 171 1307 272 1262 228 1307 b 70 1206 114 1307 70 1262 b 171 1105 70 1151 114 1105 z "},"ḫ":{"ha":846,"x_min":0,"x_max":0,"o":"m 186 -119 b 425 -334 188 -240 277 -334 b 665 -119 573 -334 663 -240 l 544 -119 b 425 -236 543 -186 496 -236 b 307 -119 355 -236 308 -186 z m 73 0 l 271 0 l 271 424 b 433 593 271 524 336 593 b 584 436 527 593 584 534 l 584 0 l 782 0 l 782 477 b 513 758 782 650 678 758 b 271 613 399 758 313 707 l 267 613 l 267 1025 l 73 1025 z "},"ḩ":{"ha":846,"x_min":0,"x_max":0,"o":"m 267 613 l 267 1025 l 73 1025 l 73 0 l 105 0 l 66 -86 l 66 -155 l 104 -155 b 189 -193 165 -155 189 -165 b 116 -230 189 -218 165 -230 b 41 -220 89 -230 56 -226 l 41 -302 b 136 -313 65 -309 98 -313 b 299 -186 238 -312 299 -264 b 174 -79 299 -118 253 -79 l 207 0 l 271 0 l 271 424 b 433 593 271 524 336 593 b 584 436 527 593 584 534 l 584 0 l 782 0 l 782 477 b 513 758 782 650 678 758 b 271 613 399 758 313 707 z "},"ħ":{"ha":876,"x_min":0,"x_max":0,"o":"m 281 623 l 281 842 l 438 842 l 438 944 l 281 944 l 281 1056 l 87 1056 l 87 944 l 26 944 l 26 842 l 87 842 l 87 0 l 285 0 l 285 424 b 448 593 285 526 352 593 b 599 436 540 593 599 536 l 599 0 l 797 0 l 797 477 b 528 758 797 652 691 758 b 290 623 418 758 329 709 z "},"ẖ":{"ha":846,"x_min":0,"x_max":0,"o":"m 73 0 l 271 0 l 271 424 b 433 593 271 524 336 593 b 584 436 527 593 584 534 l 584 0 l 782 0 l 782 477 b 513 758 782 650 678 758 b 271 613 399 758 313 707 l 267 613 l 267 1025 l 73 1025 z m 660 -156 l 191 -156 l 191 -253 l 660 -253 z "},"i":{"ha":339,"x_min":0,"x_max":0,"o":"m 71 0 l 269 0 l 269 747 l 71 747 z m 170 828 b 277 932 229 828 277 873 b 170 1035 277 991 229 1035 b 63 932 111 1035 63 991 b 170 828 63 873 111 828 z "},"ì":{"ha":339,"x_min":0,"x_max":0,"o":"m 250 857 l 100 1067 l -85 1067 l 94 857 z m 71 0 l 269 0 l 269 747 l 71 747 z "},"ȉ":{"ha":339,"x_min":0,"x_max":0,"o":"m 71 0 l 269 0 l 269 747 l 71 747 z m 119 857 l -9 1067 l -180 1067 l -22 857 z m 370 857 l 241 1067 l 71 1067 l 229 857 z "},"í":{"ha":339,"x_min":0,"x_max":0,"o":"m 245 857 l 424 1067 l 239 1067 l 89 857 z m 71 0 l 269 0 l 269 747 l 71 747 z "},"î":{"ha":339,"x_min":0,"x_max":0,"o":"m 243 1065 l 95 1065 l -85 850 l 66 850 l 167 978 l 172 978 l 273 850 l 424 850 z m 71 0 l 269 0 l 269 747 l 71 747 z "},"ǐ":{"ha":339,"x_min":0,"x_max":0,"o":"m 243 850 l 424 1065 l 273 1065 l 172 938 l 167 938 l 66 1065 l -85 1065 l 95 850 z m 71 0 l 269 0 l 269 747 l 71 747 z "},"ï":{"ha":339,"x_min":0,"x_max":0,"o":"m 71 0 l 269 0 l 269 747 l 71 747 z m 28 854 b 119 943 80 854 119 894 b 28 1031 119 991 80 1031 b -64 943 -24 1031 -64 991 b 28 854 -64 894 -24 854 z m 312 854 b 404 943 364 854 404 894 b 312 1031 404 991 364 1031 b 220 943 260 1031 220 991 b 312 854 220 894 260 854 z "},"ḯ":{"ha":339,"x_min":0,"x_max":0,"o":"m 96 1100 l 244 1100 l 392 1282 l 219 1282 z m 28 854 b 119 943 80 854 119 894 b 28 1031 119 991 80 1031 b -64 943 -24 1031 -64 991 b 28 854 -64 894 -24 854 z m 312 854 b 404 943 364 854 404 894 b 312 1031 404 991 364 1031 b 220 943 260 1031 220 991 b 312 854 220 894 260 854 z m 71 0 l 269 0 l 269 747 l 71 747 z "},"ĭ":{"ha":339,"x_min":0,"x_max":0,"o":"m 71 0 l 269 0 l 269 747 l 71 747 z m -74 1065 b 169 846 -72 941 19 846 b 412 1065 319 846 410 941 l 290 1065 b 169 946 289 997 241 946 b 47 1065 97 946 49 997 z "},"ị":{"ha":339,"x_min":0,"x_max":0,"o":"m 71 0 l 269 0 l 269 747 l 71 747 z m 170 828 b 277 932 229 828 277 873 b 170 1035 277 991 229 1035 b 63 932 111 1035 63 991 b 170 828 63 873 111 828 z m 170 -311 b 271 -210 227 -311 271 -265 b 170 -109 271 -154 227 -109 b 68 -210 113 -109 68 -154 b 170 -311 68 -265 113 -311 z "},"ȋ":{"ha":339,"x_min":0,"x_max":0,"o":"m 71 0 l 269 0 l 269 747 l 71 747 z m -74 850 l 48 850 b 170 969 50 918 98 969 b 291 850 241 969 290 918 l 413 850 b 170 1068 411 973 320 1068 b -74 850 19 1068 -72 973 z "},"ī":{"ha":339,"x_min":0,"x_max":0,"o":"m 71 0 l 269 0 l 269 747 l 71 747 z m 397 977 l -57 977 l -57 880 l 397 880 z "},"ḭ":{"ha":339,"x_min":0,"x_max":0,"o":"m 71 0 l 269 0 l 269 747 l 71 747 z m 170 828 b 277 932 229 828 277 873 b 170 1035 277 991 229 1035 b 63 932 111 1035 63 991 b 170 828 63 873 111 828 z m 264 -295 b 410 -109 347 -295 410 -224 l 302 -109 b 258 -191 302 -161 288 -191 b 81 -100 210 -191 178 -100 b -64 -283 -2 -100 -64 -167 l 43 -283 b 90 -203 43 -236 59 -203 b 264 -295 140 -203 172 -295 z "},"ỉ":{"ha":339,"x_min":0,"x_max":0,"o":"m 71 0 l 269 0 l 269 747 l 71 747 z m 66 1006 b 136 1021 91 1017 112 1021 b 205 967 177 1021 205 998 b 140 890 205 932 186 910 l 198 819 b 326 977 278 854 326 913 b 168 1116 326 1061 264 1116 b 66 1098 133 1116 94 1109 z "},"ĩ":{"ha":339,"x_min":0,"x_max":0,"o":"m 71 0 l 269 0 l 269 747 l 71 747 z m 266 853 b 411 1040 348 853 411 924 l 304 1040 b 260 957 303 987 289 957 b 83 1048 211 957 179 1048 b -63 865 -1 1048 -63 981 l 44 865 b 91 945 45 912 60 945 b 266 853 141 945 173 853 z "},"į":{"ha":339,"x_min":0,"x_max":0,"o":"m 170 828 b 277 932 229 828 277 873 b 170 1035 277 991 229 1035 b 63 932 111 1035 63 991 b 170 828 63 873 111 828 z m 185 -307 b 268 -296 217 -307 246 -303 l 268 -191 b 229 -194 255 -193 242 -194 b 151 -120 182 -194 151 -165 b 249 7 151 -68 184 -26 l 269 7 l 269 747 l 71 747 l 71 8 l 123 8 b 17 -157 50 -34 17 -87 b 185 -307 17 -246 85 -307 z "},"j":{"ha":339,"x_min":0,"x_max":0,"o":"m 269 747 l 71 747 l 71 -20 b -24 -107 71 -83 44 -107 b -50 -106 -31 -107 -45 -107 l -50 -253 b 3 -255 -41 -254 -12 -255 b 269 -25 178 -255 269 -177 z m 170 828 b 277 932 229 828 277 873 b 170 1035 277 991 229 1035 b 63 932 111 1035 63 991 b 170 828 63 873 111 828 z "},"ĵ":{"ha":338,"x_min":0,"x_max":0,"o":"m 268 747 l 71 747 l 71 -20 b -25 -107 71 -83 44 -107 b -50 -106 -31 -107 -45 -107 l -50 -253 b 3 -255 -41 -254 -12 -255 b 268 -25 178 -255 268 -177 z m 243 1065 l 95 1065 l -85 850 l 66 850 l 167 978 l 172 978 l 273 850 l 424 850 z "},"k":{"ha":764,"x_min":0,"x_max":0,"o":"m 273 445 l 271 445 l 271 1025 l 73 1025 l 73 0 l 271 0 l 271 249 l 324 307 l 543 0 l 770 0 l 469 426 l 757 747 l 532 747 z "},"ḱ":{"ha":764,"x_min":0,"x_max":0,"o":"m 245 1100 l 433 1310 l 248 1310 l 90 1100 z m 273 445 l 271 445 l 271 1025 l 73 1025 l 73 0 l 271 0 l 271 249 l 324 307 l 543 0 l 770 0 l 469 426 l 757 747 l 532 747 z "},"ǩ":{"ha":764,"x_min":0,"x_max":0,"o":"m 273 445 l 271 445 l 271 1025 l 73 1025 l 73 0 l 271 0 l 271 249 l 324 307 l 543 0 l 770 0 l 469 426 l 757 747 l 532 747 z m 94 1093 l 248 1093 l 434 1309 l 283 1309 l 173 1175 l 169 1175 l 58 1309 l -92 1309 z "},"ḳ":{"ha":764,"x_min":0,"x_max":0,"o":"m 397 -311 b 498 -210 454 -311 498 -265 b 397 -109 498 -154 454 -109 b 296 -210 340 -109 296 -154 b 397 -311 296 -265 340 -311 z m 273 445 l 271 445 l 271 1025 l 73 1025 l 73 0 l 271 0 l 271 249 l 324 307 l 543 0 l 770 0 l 469 426 l 757 747 l 532 747 z "},"ḵ":{"ha":764,"x_min":0,"x_max":0,"o":"m 273 445 l 271 445 l 271 1025 l 73 1025 l 73 0 l 271 0 l 271 249 l 324 307 l 543 0 l 770 0 l 469 426 l 757 747 l 532 747 z m 631 -156 l 162 -156 l 162 -253 l 631 -253 z "},"ķ":{"ha":764,"x_min":0,"x_max":0,"o":"m 273 445 l 271 445 l 271 1025 l 73 1025 l 73 0 l 271 0 l 271 249 l 324 307 l 543 0 l 770 0 l 469 426 l 757 747 l 532 747 z m 382 -339 l 490 -105 l 317 -105 l 235 -339 z "},"l":{"ha":342,"x_min":0,"x_max":0,"o":"m 73 0 l 271 0 l 271 1025 l 73 1025 z "},"ĺ":{"ha":342,"x_min":0,"x_max":0,"o":"m 245 1100 l 433 1310 l 248 1310 l 91 1100 z m 73 0 l 271 0 l 271 1025 l 73 1025 z "},"ḽ":{"ha":342,"x_min":0,"x_max":0,"o":"m 73 0 l 271 0 l 271 1025 l 73 1025 z m 94 -109 l -92 -324 l 59 -324 l 170 -191 l 174 -191 l 284 -324 l 435 -324 l 249 -109 z "},"ḷ":{"ha":342,"x_min":0,"x_max":0,"o":"m 172 -311 b 273 -210 229 -311 273 -265 b 172 -109 273 -154 229 -109 b 71 -210 115 -109 71 -154 b 172 -311 71 -265 115 -311 z m 73 0 l 271 0 l 271 1025 l 73 1025 z "},"ḹ":{"ha":342,"x_min":0,"x_max":0,"o":"m 172 -311 b 273 -210 229 -311 273 -265 b 172 -109 273 -154 229 -109 b 71 -210 115 -109 71 -154 b 172 -311 71 -265 115 -311 z m 73 0 l 271 0 l 271 1025 l 73 1025 z m 406 1245 l -63 1245 l -63 1148 l 406 1148 z "},"ḻ":{"ha":342,"x_min":0,"x_max":0,"o":"m 406 -156 l -63 -156 l -63 -253 l 406 -253 z m 73 0 l 271 0 l 271 1025 l 73 1025 z "},"ļ":{"ha":342,"x_min":0,"x_max":0,"o":"m 157 -339 l 265 -105 l 92 -105 l 9 -339 z m 73 0 l 271 0 l 271 1025 l 73 1025 z "},"ľ":{"ha":484,"x_min":0,"x_max":0,"o":"m 374 1022 l 374 681 l 494 681 l 521 1022 z m 73 0 l 271 0 l 271 1025 l 73 1025 z "},"ł":{"ha":372,"x_min":0,"x_max":0,"o":"m 364 733 l 271 684 l 271 1025 l 73 1025 l 73 581 l 5 547 l 5 411 l 73 446 l 73 0 l 271 0 l 271 549 l 364 598 z "},"m":{"ha":1228,"x_min":0,"x_max":0,"o":"m 67 0 l 265 0 l 265 449 b 397 593 265 534 319 593 b 520 465 474 593 520 545 l 520 0 l 711 0 l 711 452 b 842 593 711 536 764 593 b 966 458 922 593 966 545 l 966 0 l 1164 0 l 1164 507 b 920 758 1164 658 1066 758 b 688 605 811 758 722 699 l 684 605 b 475 758 659 703 583 758 b 262 611 376 758 294 701 l 258 611 l 258 747 l 67 747 z "},"ḿ":{"ha":1228,"x_min":0,"x_max":0,"o":"m 691 857 l 869 1067 l 684 1067 l 534 857 z m 67 0 l 265 0 l 265 449 b 397 593 265 534 319 593 b 520 465 474 593 520 545 l 520 0 l 711 0 l 711 452 b 842 593 711 536 764 593 b 966 458 922 593 966 545 l 966 0 l 1164 0 l 1164 507 b 920 758 1164 658 1066 758 b 688 605 811 758 722 699 l 684 605 b 475 758 659 703 583 758 b 262 611 376 758 294 701 l 258 611 l 258 747 l 67 747 z "},"ṁ":{"ha":1228,"x_min":0,"x_max":0,"o":"m 614 857 b 716 957 671 857 716 902 b 614 1058 716 1013 671 1058 b 512 957 557 1058 512 1013 b 614 857 512 902 557 857 z m 67 0 l 265 0 l 265 449 b 397 593 265 534 319 593 b 520 465 474 593 520 545 l 520 0 l 711 0 l 711 452 b 842 593 711 536 764 593 b 966 458 922 593 966 545 l 966 0 l 1164 0 l 1164 507 b 920 758 1164 658 1066 758 b 688 605 811 758 722 699 l 684 605 b 475 758 659 703 583 758 b 262 611 376 758 294 701 l 258 611 l 258 747 l 67 747 z "},"ṃ":{"ha":1228,"x_min":0,"x_max":0,"o":"m 615 -311 b 716 -210 672 -311 716 -265 b 615 -109 716 -154 672 -109 b 514 -210 558 -109 514 -154 b 615 -311 514 -265 558 -311 z m 67 0 l 265 0 l 265 449 b 397 593 265 534 319 593 b 520 465 474 593 520 545 l 520 0 l 711 0 l 711 452 b 842 593 711 536 764 593 b 966 458 922 593 966 545 l 966 0 l 1164 0 l 1164 507 b 920 758 1164 658 1066 758 b 688 605 811 758 722 699 l 684 605 b 475 758 659 703 583 758 b 262 611 376 758 294 701 l 258 611 l 258 747 l 67 747 z "},"n":{"ha":832,"x_min":0,"x_max":0,"o":"m 67 0 l 265 0 l 265 426 b 424 593 265 525 329 593 b 570 437 517 593 570 536 l 570 0 l 768 0 l 768 479 b 503 758 768 653 668 758 b 262 613 388 758 305 707 l 258 613 l 258 747 l 67 747 z "},"ǹ":{"ha":832,"x_min":0,"x_max":0,"o":"m 498 857 l 348 1067 l 163 1067 l 341 857 z m 67 0 l 265 0 l 265 426 b 424 593 265 525 329 593 b 570 437 517 593 570 536 l 570 0 l 768 0 l 768 479 b 503 758 768 653 668 758 b 262 613 388 758 305 707 l 258 613 l 258 747 l 67 747 z "},"ń":{"ha":832,"x_min":0,"x_max":0,"o":"m 493 857 l 671 1067 l 486 1067 l 336 857 z m 67 0 l 265 0 l 265 426 b 424 593 265 525 329 593 b 570 437 517 593 570 536 l 570 0 l 768 0 l 768 479 b 503 758 768 653 668 758 b 262 613 388 758 305 707 l 258 613 l 258 747 l 67 747 z "},"ñ":{"ha":832,"x_min":0,"x_max":0,"o":"m 513 853 b 659 1040 595 853 659 924 l 551 1040 b 507 957 551 987 536 957 b 330 1048 458 957 427 1048 b 184 865 247 1048 184 981 l 292 865 b 338 945 292 912 308 945 b 513 853 389 945 420 853 z m 67 0 l 265 0 l 265 426 b 424 593 265 525 329 593 b 570 437 517 593 570 536 l 570 0 l 768 0 l 768 479 b 503 758 768 653 668 758 b 262 613 388 758 305 707 l 258 613 l 258 747 l 67 747 z "},"ṇ":{"ha":832,"x_min":0,"x_max":0,"o":"m 417 -311 b 518 -210 474 -311 518 -265 b 417 -109 518 -154 474 -109 b 316 -210 360 -109 316 -154 b 417 -311 316 -265 360 -311 z m 67 0 l 265 0 l 265 426 b 424 593 265 525 329 593 b 570 437 517 593 570 536 l 570 0 l 768 0 l 768 479 b 503 758 768 653 668 758 b 262 613 388 758 305 707 l 258 613 l 258 747 l 67 747 z "},"ṅ":{"ha":832,"x_min":0,"x_max":0,"o":"m 416 857 b 518 957 473 857 518 902 b 416 1058 518 1013 473 1058 b 314 957 359 1058 314 1013 b 416 857 314 902 359 857 z m 67 0 l 265 0 l 265 426 b 424 593 265 525 329 593 b 570 437 517 593 570 536 l 570 0 l 768 0 l 768 479 b 503 758 768 653 668 758 b 262 613 388 758 305 707 l 258 613 l 258 747 l 67 747 z "},"ň":{"ha":832,"x_min":0,"x_max":0,"o":"m 491 850 l 671 1065 l 520 1065 l 419 938 l 414 938 l 314 1065 l 162 1065 l 342 850 z m 67 0 l 265 0 l 265 426 b 424 593 265 525 329 593 b 570 437 517 593 570 536 l 570 0 l 768 0 l 768 479 b 503 758 768 653 668 758 b 262 613 388 758 305 707 l 258 613 l 258 747 l 67 747 z "},"ṋ":{"ha":832,"x_min":0,"x_max":0,"o":"m 67 0 l 265 0 l 265 426 b 424 593 265 525 329 593 b 570 437 517 593 570 536 l 570 0 l 768 0 l 768 479 b 503 758 768 653 668 758 b 262 613 388 758 305 707 l 258 613 l 258 747 l 67 747 z m 340 -109 l 154 -324 l 304 -324 l 415 -191 l 419 -191 l 530 -324 l 680 -324 l 494 -109 z "},"ṉ":{"ha":832,"x_min":0,"x_max":0,"o":"m 652 -156 l 182 -156 l 182 -253 l 652 -253 z m 67 0 l 265 0 l 265 426 b 424 593 265 525 329 593 b 570 437 517 593 570 536 l 570 0 l 768 0 l 768 479 b 503 758 768 653 668 758 b 262 613 388 758 305 707 l 258 613 l 258 747 l 67 747 z "},"ņ":{"ha":832,"x_min":0,"x_max":0,"o":"m 402 -339 l 511 -105 l 337 -105 l 255 -339 z m 67 0 l 265 0 l 265 426 b 424 593 265 525 329 593 b 570 437 517 593 570 536 l 570 0 l 768 0 l 768 479 b 503 758 768 653 668 758 b 262 613 388 758 305 707 l 258 613 l 258 747 l 67 747 z "},"o":{"ha":814,"x_min":0,"x_max":0,"o":"m 408 -13 b 776 374 634 -13 776 132 b 408 760 776 613 633 760 b 39 374 183 760 39 612 b 408 -13 39 132 181 -13 z m 408 140 b 240 374 303 140 240 225 b 408 608 240 520 303 608 b 574 374 511 608 574 521 b 408 140 574 225 512 140 z "},"ö":{"ha":814,"x_min":0,"x_max":0,"o":"m 266 854 b 357 943 318 854 357 894 b 266 1031 357 991 318 1031 b 174 943 214 1031 174 991 b 266 854 174 894 214 854 z m 550 854 b 642 943 602 854 642 894 b 550 1031 642 991 602 1031 b 458 943 498 1031 458 991 b 550 854 458 894 498 854 z m 408 -13 b 776 374 634 -13 776 132 b 408 760 776 613 633 760 b 39 374 183 760 39 612 b 408 -13 39 132 181 -13 z m 408 140 b 240 374 303 140 240 225 b 408 608 240 520 303 608 b 574 374 511 608 574 521 b 408 140 574 225 512 140 z "},"ø":{"ha":814,"x_min":0,"x_max":0,"o":"m 549 513 b 574 374 566 476 574 429 b 408 140 574 225 512 140 b 328 161 377 140 351 147 z m 271 224 b 240 374 251 262 240 313 b 408 608 240 520 303 608 b 494 581 441 608 470 599 z m 699 752 l 627 792 l 583 723 b 408 760 533 747 474 760 b 39 374 183 760 39 612 b 169 62 39 235 86 128 l 127 -4 l 197 -47 l 239 20 b 408 -13 288 -1 345 -13 b 776 374 634 -13 776 132 b 652 679 776 507 731 612 z "},"õ":{"ha":814,"x_min":0,"x_max":0,"o":"m 504 853 b 649 1040 586 853 649 924 l 542 1040 b 498 957 541 987 527 957 b 321 1048 449 957 417 1048 b 175 865 237 1048 175 981 l 282 865 b 329 945 283 912 298 945 b 504 853 379 945 411 853 z m 408 -13 b 776 374 634 -13 776 132 b 408 760 776 613 633 760 b 39 374 183 760 39 612 b 408 -13 39 132 181 -13 z m 408 140 b 240 374 303 140 240 225 b 408 608 240 520 303 608 b 574 374 511 608 574 521 b 408 140 574 225 512 140 z "},"ó":{"ha":814,"x_min":0,"x_max":0,"o":"m 484 857 l 662 1067 l 477 1067 l 327 857 z m 408 -13 b 776 374 634 -13 776 132 b 408 760 776 613 633 760 b 39 374 183 760 39 612 b 408 -13 39 132 181 -13 z m 408 140 b 240 374 303 140 240 225 b 408 608 240 520 303 608 b 574 374 511 608 574 521 b 408 140 574 225 512 140 z "},"ô":{"ha":814,"x_min":0,"x_max":0,"o":"m 481 1065 l 333 1065 l 153 850 l 304 850 l 405 978 l 410 978 l 511 850 l 662 850 z m 408 -13 b 776 374 634 -13 776 132 b 408 760 776 613 633 760 b 39 374 183 760 39 612 b 408 -13 39 132 181 -13 z m 408 140 b 240 374 303 140 240 225 b 408 608 240 520 303 608 b 574 374 511 608 574 521 b 408 140 574 225 512 140 z "},"ò":{"ha":814,"x_min":0,"x_max":0,"o":"m 488 857 l 338 1067 l 153 1067 l 332 857 z m 408 -13 b 776 374 634 -13 776 132 b 408 760 776 613 633 760 b 39 374 183 760 39 612 b 408 -13 39 132 181 -13 z m 408 140 b 240 374 303 140 240 225 b 408 608 240 520 303 608 b 574 374 511 608 574 521 b 408 140 574 225 512 140 z "},"ổ":{"ha":814,"x_min":0,"x_max":0,"o":"m 488 1187 b 550 1198 507 1195 528 1198 b 614 1149 588 1198 614 1179 b 553 1078 614 1121 592 1093 l 613 1013 b 725 1162 687 1041 725 1092 b 569 1291 725 1240 665 1291 b 488 1276 539 1291 507 1284 z m 490 1051 l 326 1051 l 151 850 l 301 850 l 405 972 l 410 972 l 514 850 l 665 850 z m 408 -13 b 776 374 634 -13 776 132 b 408 760 776 613 633 760 b 39 374 183 760 39 612 b 408 -13 39 132 181 -13 z m 408 140 b 240 374 303 140 240 225 b 408 608 240 520 303 608 b 574 374 511 608 574 521 b 408 140 574 225 512 140 z "},"ồ":{"ha":814,"x_min":0,"x_max":0,"o":"m 490 1051 l 326 1051 l 151 850 l 301 850 l 405 972 l 410 972 l 514 850 l 665 850 z m 699 1086 l 570 1282 l 404 1282 l 557 1086 z m 408 -13 b 776 374 634 -13 776 132 b 408 760 776 613 633 760 b 39 374 183 760 39 612 b 408 -13 39 132 181 -13 z m 408 140 b 240 374 303 140 240 225 b 408 608 240 520 303 608 b 574 374 511 608 574 521 b 408 140 574 225 512 140 z "},"ọ":{"ha":814,"x_min":0,"x_max":0,"o":"m 408 -311 b 509 -210 465 -311 509 -265 b 408 -109 509 -154 465 -109 b 307 -210 351 -109 307 -154 b 408 -311 307 -265 351 -311 z m 408 -13 b 776 374 634 -13 776 132 b 408 760 776 613 633 760 b 39 374 183 760 39 612 b 408 -13 39 132 181 -13 z m 408 140 b 240 374 303 140 240 225 b 408 608 240 520 303 608 b 574 374 511 608 574 521 b 408 140 574 225 512 140 z "},"ȍ":{"ha":814,"x_min":0,"x_max":0,"o":"m 408 -13 b 776 374 634 -13 776 132 b 408 760 776 613 633 760 b 39 374 183 760 39 612 b 408 -13 39 132 181 -13 z m 408 140 b 240 374 303 140 240 225 b 408 608 240 520 303 608 b 574 374 511 608 574 521 b 408 140 574 225 512 140 z m 357 857 l 229 1067 l 58 1067 l 216 857 z m 608 857 l 479 1067 l 309 1067 l 467 857 z "},"ṍ":{"ha":814,"x_min":0,"x_max":0,"o":"m 337 1100 l 479 1100 l 627 1282 l 460 1282 z m 504 849 b 649 1036 586 849 649 920 l 542 1036 b 498 953 541 983 527 953 b 321 1044 449 953 417 1044 b 175 861 237 1044 175 977 l 282 861 b 329 941 283 908 298 941 b 504 849 379 941 411 849 z m 408 -13 b 776 374 634 -13 776 132 b 408 760 776 613 633 760 b 39 374 183 760 39 612 b 408 -13 39 132 181 -13 z m 408 140 b 240 374 303 140 240 225 b 408 608 240 520 303 608 b 574 374 511 608 574 521 b 408 140 574 225 512 140 z "},"ṓ":{"ha":814,"x_min":0,"x_max":0,"o":"m 408 -13 b 776 374 634 -13 776 132 b 408 760 776 613 633 760 b 39 374 183 760 39 612 b 408 -13 39 132 181 -13 z m 408 140 b 240 374 303 140 240 225 b 408 608 240 520 303 608 b 574 374 511 608 574 521 b 408 140 574 225 512 140 z m 334 1100 l 482 1100 l 630 1282 l 457 1282 z m 635 977 l 181 977 l 181 880 l 635 880 z "},"ỗ":{"ha":814,"x_min":0,"x_max":0,"o":"m 490 1044 l 326 1044 l 151 850 l 301 850 l 405 966 l 410 966 l 514 850 l 665 850 z m 500 1098 b 644 1284 581 1098 644 1168 l 538 1284 b 493 1201 536 1232 523 1201 b 316 1293 445 1201 413 1293 b 171 1109 233 1293 171 1225 l 277 1109 b 324 1190 279 1157 294 1190 b 500 1098 374 1190 406 1098 z m 408 -13 b 776 374 634 -13 776 132 b 408 760 776 613 633 760 b 39 374 183 760 39 612 b 408 -13 39 132 181 -13 z m 408 140 b 240 374 303 140 240 225 b 408 608 240 520 303 608 b 574 374 511 608 574 521 b 408 140 574 225 512 140 z "},"ȱ":{"ha":814,"x_min":0,"x_max":0,"o":"m 408 -13 b 776 374 634 -13 776 132 b 408 760 776 613 633 760 b 39 374 183 760 39 612 b 408 -13 39 132 181 -13 z m 408 140 b 240 374 303 140 240 225 b 408 608 240 520 303 608 b 574 374 511 608 574 521 b 408 140 574 225 512 140 z m 408 849 b 509 949 464 849 509 894 b 408 1049 509 1004 464 1049 b 306 949 351 1049 306 1004 b 408 849 306 894 351 849 z m 635 1225 l 181 1225 l 181 1128 l 635 1128 z "},"ṑ":{"ha":814,"x_min":0,"x_max":0,"o":"m 408 -13 b 776 374 634 -13 776 132 b 408 760 776 613 633 760 b 39 374 183 760 39 612 b 408 -13 39 132 181 -13 z m 408 140 b 240 374 303 140 240 225 b 408 608 240 520 303 608 b 574 374 511 608 574 521 b 408 140 574 225 512 140 z m 479 1098 l 366 1282 l 193 1282 l 340 1098 z m 635 977 l 181 977 l 181 880 l 635 880 z "},"ǒ":{"ha":814,"x_min":0,"x_max":0,"o":"m 481 850 l 662 1065 l 511 1065 l 410 938 l 405 938 l 304 1065 l 153 1065 l 333 850 z m 408 -13 b 776 374 634 -13 776 132 b 408 760 776 613 633 760 b 39 374 183 760 39 612 b 408 -13 39 132 181 -13 z m 408 140 b 240 374 303 140 240 225 b 408 608 240 520 303 608 b 574 374 511 608 574 521 b 408 140 574 225 512 140 z "},"ǿ":{"ha":814,"x_min":0,"x_max":0,"o":"m 677 1067 l 492 1067 l 342 857 l 498 857 z m 549 513 b 574 374 566 476 574 429 b 408 140 574 225 512 140 b 328 161 377 140 351 147 z m 271 224 b 240 374 251 262 240 313 b 408 608 240 520 303 608 b 494 581 441 608 470 599 z m 699 752 l 627 792 l 583 723 b 408 760 533 747 474 760 b 39 374 183 760 39 612 b 169 62 39 235 86 128 l 127 -4 l 197 -47 l 239 20 b 408 -13 288 -1 345 -13 b 776 374 634 -13 776 132 b 652 679 776 507 731 612 z "},"ő":{"ha":814,"x_min":0,"x_max":0,"o":"m 458 857 l 600 857 l 758 1067 l 587 1067 z m 207 857 l 348 857 l 506 1067 l 336 1067 z m 408 -13 b 776 374 634 -13 776 132 b 408 760 776 613 633 760 b 39 374 183 760 39 612 b 408 -13 39 132 181 -13 z m 408 140 b 240 374 303 140 240 225 b 408 608 240 520 303 608 b 574 374 511 608 574 521 b 408 140 574 225 512 140 z "},"ŏ":{"ha":814,"x_min":0,"x_max":0,"o":"m 164 1065 b 407 846 166 941 257 846 b 650 1065 557 846 648 941 l 528 1065 b 407 946 527 997 479 946 b 286 1065 335 946 287 997 z m 408 -13 b 776 374 634 -13 776 132 b 408 760 776 613 633 760 b 39 374 183 760 39 612 b 408 -13 39 132 181 -13 z m 408 140 b 240 374 303 140 240 225 b 408 608 240 520 303 608 b 574 374 511 608 574 521 b 408 140 574 225 512 140 z "},"ȏ":{"ha":814,"x_min":0,"x_max":0,"o":"m 408 -13 b 776 374 634 -13 776 132 b 408 760 776 613 633 760 b 39 374 183 760 39 612 b 408 -13 39 132 181 -13 z m 408 140 b 240 374 303 140 240 225 b 408 608 240 520 303 608 b 574 374 511 608 574 521 b 408 140 574 225 512 140 z m 164 850 l 286 850 b 408 969 288 918 336 969 b 529 850 479 969 528 918 l 651 850 b 408 1068 649 973 558 1068 b 164 850 257 1068 166 973 z "},"ỏ":{"ha":814,"x_min":0,"x_max":0,"o":"m 408 -13 b 776 374 634 -13 776 132 b 408 760 776 613 633 760 b 39 374 183 760 39 612 b 408 -13 39 132 181 -13 z m 408 140 b 240 374 303 140 240 225 b 408 608 240 520 303 608 b 574 374 511 608 574 521 b 408 140 574 225 512 140 z m 304 1006 b 374 1021 329 1017 350 1021 b 444 967 415 1021 444 998 b 378 890 444 932 425 910 l 436 819 b 564 977 516 854 564 913 b 406 1116 564 1061 503 1116 b 304 1098 371 1116 332 1109 z "},"ȫ":{"ha":814,"x_min":0,"x_max":0,"o":"m 270 853 b 357 937 319 853 357 891 b 270 1021 357 984 319 1021 b 183 937 220 1021 183 984 b 270 853 183 891 220 853 z m 545 853 b 632 937 595 853 632 891 b 545 1021 632 984 595 1021 b 458 937 496 1021 458 984 b 545 853 458 891 496 853 z m 635 1222 l 181 1222 l 181 1125 l 635 1125 z m 408 -13 b 776 374 634 -13 776 132 b 408 760 776 613 633 760 b 39 374 183 760 39 612 b 408 -13 39 132 181 -13 z m 408 140 b 240 374 303 140 240 225 b 408 608 240 520 303 608 b 574 374 511 608 574 521 b 408 140 574 225 512 140 z "},"ȭ":{"ha":814,"x_min":0,"x_max":0,"o":"m 504 849 b 649 1036 586 849 649 920 l 542 1036 b 498 953 541 983 527 953 b 321 1044 449 953 417 1044 b 175 861 237 1044 175 977 l 282 861 b 329 941 283 908 298 941 b 504 849 379 941 411 849 z m 635 1222 l 181 1222 l 181 1125 l 635 1125 z m 408 -13 b 776 374 634 -13 776 132 b 408 760 776 613 633 760 b 39 374 183 760 39 612 b 408 -13 39 132 181 -13 z m 408 140 b 240 374 303 140 240 225 b 408 608 240 520 303 608 b 574 374 511 608 574 521 b 408 140 574 225 512 140 z "},"ȯ":{"ha":814,"x_min":0,"x_max":0,"o":"m 407 857 b 509 957 464 857 509 902 b 407 1058 509 1013 464 1058 b 304 957 350 1058 304 1013 b 407 857 304 902 350 857 z m 408 -13 b 776 374 634 -13 776 132 b 408 760 776 613 633 760 b 39 374 183 760 39 612 b 408 -13 39 132 181 -13 z m 408 140 b 240 374 303 140 240 225 b 408 608 240 520 303 608 b 574 374 511 608 574 521 b 408 140 574 225 512 140 z "},"ộ":{"ha":814,"x_min":0,"x_max":0,"o":"m 481 1065 l 333 1065 l 153 850 l 304 850 l 405 978 l 410 978 l 511 850 l 662 850 z m 408 -13 b 776 374 634 -13 776 132 b 408 760 776 613 633 760 b 39 374 183 760 39 612 b 408 -13 39 132 181 -13 z m 408 140 b 240 374 303 140 240 225 b 408 608 240 520 303 608 b 574 374 511 608 574 521 b 408 140 574 225 512 140 z m 408 -311 b 509 -210 465 -311 509 -265 b 408 -109 509 -154 465 -109 b 307 -210 351 -109 307 -154 b 408 -311 307 -265 351 -311 z "},"ố":{"ha":814,"x_min":0,"x_max":0,"o":"m 490 1051 l 326 1051 l 151 850 l 301 850 l 405 972 l 410 972 l 514 850 l 665 850 z m 511 1086 l 652 1086 l 805 1282 l 639 1282 z m 408 -13 b 776 374 634 -13 776 132 b 408 760 776 613 633 760 b 39 374 183 760 39 612 b 408 -13 39 132 181 -13 z m 408 140 b 240 374 303 140 240 225 b 408 608 240 520 303 608 b 574 374 511 608 574 521 b 408 140 574 225 512 140 z "},"ṏ":{"ha":814,"x_min":0,"x_max":0,"o":"m 274 1102 b 360 1186 323 1102 360 1140 b 274 1270 360 1232 323 1270 b 187 1186 225 1270 187 1232 b 274 1102 187 1140 225 1102 z m 541 1102 b 628 1186 591 1102 628 1140 b 541 1270 628 1232 591 1270 b 455 1186 492 1270 455 1232 b 541 1102 455 1140 492 1102 z m 504 849 b 649 1036 586 849 649 920 l 542 1036 b 498 953 541 983 527 953 b 321 1044 449 953 417 1044 b 175 861 237 1044 175 977 l 282 861 b 329 941 283 908 298 941 b 504 849 379 941 411 849 z m 408 -13 b 776 374 634 -13 776 132 b 408 760 776 613 633 760 b 39 374 183 760 39 612 b 408 -13 39 132 181 -13 z m 408 140 b 240 374 303 140 240 225 b 408 608 240 520 303 608 b 574 374 511 608 574 521 b 408 140 574 225 512 140 z "},"ō":{"ha":814,"x_min":0,"x_max":0,"o":"m 635 977 l 181 977 l 181 880 l 635 880 z m 408 -13 b 776 374 634 -13 776 132 b 408 760 776 613 633 760 b 39 374 183 760 39 612 b 408 -13 39 132 181 -13 z m 408 140 b 240 374 303 140 240 225 b 408 608 240 520 303 608 b 574 374 511 608 574 521 b 408 140 574 225 512 140 z "},"ǫ":{"ha":814,"x_min":0,"x_max":0,"o":"m 541 -309 b 637 -294 575 -309 614 -303 l 637 -190 b 585 -196 622 -194 602 -196 b 507 -126 538 -196 507 -168 b 636 54 507 -75 534 -37 b 776 374 734 140 776 236 b 408 760 776 612 634 760 b 39 374 181 760 39 611 b 408 -13 39 134 179 -13 b 454 -12 435 -13 446 -13 l 454 -13 b 373 -157 400 -55 373 -103 b 541 -309 373 -247 441 -309 z m 408 140 b 240 374 302 140 240 226 b 408 608 240 519 303 608 b 574 374 512 608 574 520 b 408 140 574 227 513 140 z "},"ǭ":{"ha":814,"x_min":0,"x_max":0,"o":"m 635 977 l 181 977 l 181 880 l 635 880 z m 541 -309 b 637 -294 575 -309 614 -303 l 637 -190 b 585 -196 622 -194 602 -196 b 507 -126 538 -196 507 -168 b 636 54 507 -75 534 -37 b 776 374 734 140 776 236 b 408 760 776 612 634 760 b 39 374 181 760 39 611 b 408 -13 39 134 179 -13 b 454 -12 435 -13 446 -13 l 454 -13 b 373 -157 400 -55 373 -103 b 541 -309 373 -247 441 -309 z m 408 140 b 240 374 302 140 240 226 b 408 608 240 519 303 608 b 574 374 512 608 574 520 b 408 140 574 227 513 140 z "},"ơ":{"ha":899,"x_min":0,"x_max":0,"o":"m 408 140 b 240 374 302 140 240 226 b 408 608 240 519 303 608 b 574 374 512 608 574 520 b 408 140 574 227 513 140 z m 776 370 b 748 524 776 423 766 477 b 752 528 749 524 751 528 b 764 526 756 527 760 526 b 920 707 859 526 920 597 l 920 844 l 770 844 l 770 746 b 708 659 770 685 751 659 b 399 760 640 659 576 760 b 39 370 180 760 39 607 b 406 -13 39 135 180 -13 b 776 370 636 -13 776 133 z "},"ợ":{"ha":899,"x_min":0,"x_max":0,"o":"m 408 -311 b 509 -210 465 -311 509 -265 b 408 -109 509 -154 465 -109 b 307 -210 351 -109 307 -154 b 408 -311 307 -265 351 -311 z m 408 140 b 240 374 302 140 240 226 b 408 608 240 519 303 608 b 574 374 512 608 574 520 b 408 140 574 227 513 140 z m 776 370 b 748 524 776 423 766 477 b 752 528 749 524 751 528 b 764 526 756 527 760 526 b 920 707 859 526 920 597 l 920 844 l 770 844 l 770 746 b 708 659 770 685 751 659 b 399 760 640 659 576 760 b 39 370 180 760 39 607 b 406 -13 39 135 180 -13 b 776 370 636 -13 776 133 z "},"ở":{"ha":899,"x_min":0,"x_max":0,"o":"m 408 140 b 240 374 302 140 240 226 b 408 608 240 519 303 608 b 574 374 512 608 574 520 b 408 140 574 227 513 140 z m 776 370 b 748 524 776 423 766 477 b 752 528 749 524 751 528 b 764 526 756 527 760 526 b 920 707 859 526 920 597 l 920 844 l 770 844 l 770 746 b 708 659 770 685 751 659 b 399 760 640 659 576 760 b 39 370 180 760 39 607 b 406 -13 39 135 180 -13 b 776 370 636 -13 776 133 z m 304 1006 b 374 1021 329 1017 350 1021 b 444 967 415 1021 444 998 b 378 890 444 932 425 910 l 436 819 b 564 977 516 854 564 913 b 406 1116 564 1061 503 1116 b 304 1098 371 1116 332 1109 z "},"ỡ":{"ha":899,"x_min":0,"x_max":0,"o":"m 504 853 b 649 1040 586 853 649 924 l 542 1040 b 498 957 541 987 527 957 b 321 1048 449 957 417 1048 b 175 865 237 1048 175 981 l 282 865 b 329 945 283 912 298 945 b 504 853 379 945 411 853 z m 408 140 b 240 374 302 140 240 226 b 408 608 240 519 303 608 b 574 374 512 608 574 520 b 408 140 574 227 513 140 z m 776 370 b 748 524 776 423 766 477 b 752 528 749 524 751 528 b 764 526 756 527 760 526 b 920 707 859 526 920 597 l 920 844 l 770 844 l 770 746 b 708 659 770 685 751 659 b 399 760 640 659 576 760 b 39 370 180 760 39 607 b 406 -13 39 135 180 -13 b 776 370 636 -13 776 133 z "},"ờ":{"ha":899,"x_min":0,"x_max":0,"o":"m 488 857 l 338 1067 l 153 1067 l 332 857 z m 408 140 b 240 374 302 140 240 226 b 408 608 240 519 303 608 b 574 374 512 608 574 520 b 408 140 574 227 513 140 z m 776 370 b 748 524 776 423 766 477 b 752 528 749 524 751 528 b 764 526 756 527 760 526 b 920 707 859 526 920 597 l 920 844 l 770 844 l 770 746 b 708 659 770 685 751 659 b 399 760 640 659 576 760 b 39 370 180 760 39 607 b 406 -13 39 135 180 -13 b 776 370 636 -13 776 133 z "},"ớ":{"ha":899,"x_min":0,"x_max":0,"o":"m 484 857 l 662 1067 l 477 1067 l 327 857 z m 408 140 b 240 374 302 140 240 226 b 408 608 240 519 303 608 b 574 374 512 608 574 520 b 408 140 574 227 513 140 z m 776 370 b 748 524 776 423 766 477 b 752 528 749 524 751 528 b 764 526 756 527 760 526 b 920 707 859 526 920 597 l 920 844 l 770 844 l 770 746 b 708 659 770 685 751 659 b 399 760 640 659 576 760 b 39 370 180 760 39 607 b 406 -13 39 135 180 -13 b 776 370 636 -13 776 133 z "},"p":{"ha":844,"x_min":0,"x_max":0,"o":"m 498 755 b 267 619 393 755 306 703 l 262 619 l 262 747 l 67 747 l 67 -235 l 265 -235 l 265 125 l 269 125 b 501 -9 310 41 393 -9 b 805 374 688 -9 805 136 b 498 755 805 611 688 755 z m 433 151 b 264 373 332 151 264 239 b 433 595 264 507 332 595 b 602 374 535 595 602 508 b 433 151 602 238 535 151 z "},"ṗ":{"ha":844,"x_min":0,"x_max":0,"o":"m 498 755 b 267 619 393 755 306 703 l 262 619 l 262 747 l 67 747 l 67 -235 l 265 -235 l 265 125 l 269 125 b 501 -9 310 41 393 -9 b 805 374 688 -9 805 136 b 498 755 805 611 688 755 z m 433 151 b 264 373 332 151 264 239 b 433 595 264 507 332 595 b 602 374 535 595 602 508 b 433 151 602 238 535 151 z m 430 857 b 532 957 487 857 532 902 b 430 1058 532 1013 487 1058 b 328 957 373 1058 328 1013 b 430 857 328 902 373 857 z "},"ṕ":{"ha":844,"x_min":0,"x_max":0,"o":"m 498 755 b 267 619 393 755 306 703 l 262 619 l 262 747 l 67 747 l 67 -235 l 265 -235 l 265 125 l 269 125 b 501 -9 310 41 393 -9 b 805 374 688 -9 805 136 b 498 755 805 611 688 755 z m 433 151 b 264 373 332 151 264 239 b 433 595 264 507 332 595 b 602 374 535 595 602 508 b 433 151 602 238 535 151 z m 507 857 l 685 1067 l 500 1067 l 350 857 z "},"q":{"ha":844,"x_min":0,"x_max":0,"o":"m 347 755 b 39 374 158 755 39 609 b 343 -9 39 139 157 -9 b 574 125 452 -9 538 45 l 578 125 l 578 -235 l 777 -235 l 777 747 l 581 747 l 581 619 l 578 619 b 347 755 539 702 455 755 z m 410 151 b 242 374 307 151 242 237 b 410 595 242 509 307 595 b 579 373 512 595 579 507 b 410 151 579 238 513 151 z "},"r":{"ha":515,"x_min":0,"x_max":0,"o":"m 67 0 l 265 0 l 265 418 b 425 585 265 522 324 585 b 496 572 449 585 479 580 l 496 748 b 440 755 481 753 460 755 b 262 613 352 755 288 705 l 258 613 l 258 747 l 67 747 z "},"ř":{"ha":515,"x_min":0,"x_max":0,"o":"m 347 850 l 528 1065 l 376 1065 l 275 938 l 271 938 l 170 1065 l 18 1065 l 199 850 z m 67 0 l 265 0 l 265 418 b 425 585 265 522 324 585 b 496 572 449 585 479 580 l 496 748 b 440 755 481 753 460 755 b 262 613 352 755 288 705 l 258 613 l 258 747 l 67 747 z "},"ṟ":{"ha":515,"x_min":0,"x_max":0,"o":"m 67 0 l 265 0 l 265 418 b 425 585 265 522 324 585 b 496 572 449 585 479 580 l 496 748 b 440 755 481 753 460 755 b 262 613 352 755 288 705 l 258 613 l 258 747 l 67 747 z m 402 -156 l -67 -156 l -67 -253 l 402 -253 z "},"ṝ":{"ha":515,"x_min":0,"x_max":0,"o":"m 168 -311 b 269 -210 224 -311 269 -265 b 168 -109 269 -154 224 -109 b 66 -210 111 -109 66 -154 b 168 -311 66 -265 111 -311 z m 67 0 l 265 0 l 265 418 b 425 585 265 522 324 585 b 496 572 449 585 479 580 l 496 748 b 440 755 481 753 460 755 b 262 613 352 755 288 705 l 258 613 l 258 747 l 67 747 z m 500 977 l 47 977 l 47 880 l 500 880 z "},"ȑ":{"ha":515,"x_min":0,"x_max":0,"o":"m 67 0 l 265 0 l 265 418 b 425 585 265 522 324 585 b 496 572 449 585 479 580 l 496 748 b 440 755 481 753 460 755 b 262 613 352 755 288 705 l 258 613 l 258 747 l 67 747 z m 222 857 l 94 1067 l -77 1067 l 81 857 z m 473 857 l 345 1067 l 174 1067 l 332 857 z "},"ȓ":{"ha":515,"x_min":0,"x_max":0,"o":"m 67 0 l 265 0 l 265 418 b 425 585 265 522 324 585 b 496 572 449 585 479 580 l 496 748 b 440 755 481 753 460 755 b 262 613 352 755 288 705 l 258 613 l 258 747 l 67 747 z m 30 850 l 152 850 b 273 969 153 918 201 969 b 395 850 345 969 393 918 l 517 850 b 273 1068 515 973 424 1068 b 30 850 123 1068 32 973 z "},"ŕ":{"ha":515,"x_min":0,"x_max":0,"o":"m 349 857 l 528 1067 l 342 1067 l 193 857 z m 67 0 l 265 0 l 265 418 b 425 585 265 522 324 585 b 496 572 449 585 479 580 l 496 748 b 440 755 481 753 460 755 b 262 613 352 755 288 705 l 258 613 l 258 747 l 67 747 z "},"ṛ":{"ha":515,"x_min":0,"x_max":0,"o":"m 168 -311 b 269 -210 224 -311 269 -265 b 168 -109 269 -154 224 -109 b 66 -210 111 -109 66 -154 b 168 -311 66 -265 111 -311 z m 67 0 l 265 0 l 265 418 b 425 585 265 522 324 585 b 496 572 449 585 479 580 l 496 748 b 440 755 481 753 460 755 b 262 613 352 755 288 705 l 258 613 l 258 747 l 67 747 z "},"ṙ":{"ha":515,"x_min":0,"x_max":0,"o":"m 67 0 l 265 0 l 265 418 b 425 585 265 522 324 585 b 496 572 449 585 479 580 l 496 748 b 440 755 481 753 460 755 b 262 613 352 755 288 705 l 258 613 l 258 747 l 67 747 z m 273 857 b 374 957 330 857 374 902 b 273 1058 374 1013 330 1058 b 170 957 216 1058 170 1013 b 273 857 170 902 216 857 z "},"ŗ":{"ha":515,"x_min":0,"x_max":0,"o":"m 67 0 l 265 0 l 265 418 b 425 585 265 522 324 585 b 496 572 449 585 479 580 l 496 748 b 440 755 481 753 460 755 b 262 613 352 755 288 705 l 258 613 l 258 747 l 67 747 z m 153 -339 l 261 -105 l 87 -105 l 5 -339 z "},"s":{"ha":731,"x_min":0,"x_max":0,"o":"m 54 527 b 267 313 54 418 127 345 l 405 282 b 498 207 473 266 498 245 b 372 127 498 158 450 127 b 229 226 290 127 239 163 l 36 226 b 366 -13 46 82 170 -13 b 695 228 562 -13 695 83 b 486 431 695 339 635 397 l 345 461 b 245 539 278 477 245 502 b 364 619 245 587 293 619 b 494 523 440 619 490 582 l 677 523 b 367 760 674 665 551 760 b 54 527 178 760 54 667 z "},"š":{"ha":731,"x_min":0,"x_max":0,"o":"m 442 850 l 623 1065 l 471 1065 l 370 938 l 366 938 l 265 1065 l 113 1065 l 294 850 z m 54 527 b 267 313 54 418 127 345 l 405 282 b 498 207 473 266 498 245 b 372 127 498 158 450 127 b 229 226 290 127 239 163 l 36 226 b 366 -13 46 82 170 -13 b 695 228 562 -13 695 83 b 486 431 695 339 635 397 l 345 461 b 245 539 278 477 245 502 b 364 619 245 587 293 619 b 494 523 440 619 490 582 l 677 523 b 367 760 674 665 551 760 b 54 527 178 760 54 667 z "},"ş":{"ha":731,"x_min":0,"x_max":0,"o":"m 345 461 b 245 539 278 477 245 502 b 364 619 245 587 293 619 b 494 523 440 619 490 582 l 677 523 b 367 760 674 665 551 760 b 54 527 178 760 54 667 b 267 313 54 418 127 345 l 405 282 b 498 207 473 266 498 245 b 372 127 498 158 450 127 b 229 226 290 127 239 163 l 36 226 b 319 -11 45 94 150 3 l 286 -86 l 286 -155 l 323 -155 b 408 -193 385 -155 408 -165 b 336 -230 408 -218 385 -230 b 260 -220 309 -230 276 -226 l 260 -302 b 355 -313 285 -309 318 -313 b 519 -186 458 -312 519 -264 b 393 -79 519 -118 473 -79 l 422 -10 b 695 228 587 7 695 97 b 486 431 695 339 635 397 z "},"ṡ":{"ha":731,"x_min":0,"x_max":0,"o":"m 54 527 b 267 313 54 418 127 345 l 405 282 b 498 207 473 266 498 245 b 372 127 498 158 450 127 b 229 226 290 127 239 163 l 36 226 b 366 -13 46 82 170 -13 b 695 228 562 -13 695 83 b 486 431 695 339 635 397 l 345 461 b 245 539 278 477 245 502 b 364 619 245 587 293 619 b 494 523 440 619 490 582 l 677 523 b 367 760 674 665 551 760 b 54 527 178 760 54 667 z m 368 857 b 469 957 425 857 469 902 b 368 1058 469 1013 425 1058 b 265 957 311 1058 265 1013 b 368 857 265 902 311 857 z "},"ṣ":{"ha":731,"x_min":0,"x_max":0,"o":"m 364 -311 b 465 -210 421 -311 465 -265 b 364 -109 465 -154 421 -109 b 263 -210 307 -109 263 -154 b 364 -311 263 -265 307 -311 z m 54 527 b 267 313 54 418 127 345 l 405 282 b 498 207 473 266 498 245 b 372 127 498 158 450 127 b 229 226 290 127 239 163 l 36 226 b 366 -13 46 82 170 -13 b 695 228 562 -13 695 83 b 486 431 695 339 635 397 l 345 461 b 245 539 278 477 245 502 b 364 619 245 587 293 619 b 494 523 440 619 490 582 l 677 523 b 367 760 674 665 551 760 b 54 527 178 760 54 667 z "},"ș":{"ha":731,"x_min":0,"x_max":0,"o":"m 54 527 b 267 313 54 418 127 345 l 405 282 b 498 207 473 266 498 245 b 372 127 498 158 450 127 b 229 226 290 127 239 163 l 36 226 b 366 -13 46 82 170 -13 b 695 228 562 -13 695 83 b 486 431 695 339 635 397 l 345 461 b 245 539 278 477 245 502 b 364 619 245 587 293 619 b 494 523 440 619 490 582 l 677 523 b 367 760 674 665 551 760 b 54 527 178 760 54 667 z m 349 -339 l 458 -105 l 284 -105 l 202 -339 z "},"ṩ":{"ha":731,"x_min":0,"x_max":0,"o":"m 364 -311 b 465 -210 421 -311 465 -265 b 364 -109 465 -154 421 -109 b 263 -210 307 -109 263 -154 b 364 -311 263 -265 307 -311 z m 54 527 b 267 313 54 418 127 345 l 405 282 b 498 207 473 266 498 245 b 372 127 498 158 450 127 b 229 226 290 127 239 163 l 36 226 b 366 -13 46 82 170 -13 b 695 228 562 -13 695 83 b 486 431 695 339 635 397 l 345 461 b 245 539 278 477 245 502 b 364 619 245 587 293 619 b 494 523 440 619 490 582 l 677 523 b 367 760 674 665 551 760 b 54 527 178 760 54 667 z m 368 857 b 469 957 425 857 469 902 b 368 1058 469 1013 425 1058 b 265 957 311 1058 265 1013 b 368 857 265 902 311 857 z "},"ṧ":{"ha":731,"x_min":0,"x_max":0,"o":"m 54 527 b 267 313 54 418 127 345 l 405 282 b 498 207 473 266 498 245 b 372 127 498 158 450 127 b 229 226 290 127 239 163 l 36 226 b 366 -13 46 82 170 -13 b 695 228 562 -13 695 83 b 486 431 695 339 635 397 l 345 461 b 245 539 278 477 245 502 b 364 619 245 587 293 619 b 494 523 440 619 490 582 l 677 523 b 367 760 674 665 551 760 b 54 527 178 760 54 667 z m 451 850 l 626 1051 l 475 1051 l 372 929 l 366 929 l 262 1051 l 112 1051 l 287 850 z m 369 1107 b 465 1201 422 1107 465 1149 b 369 1295 465 1253 422 1295 b 273 1201 316 1295 273 1253 b 369 1107 273 1149 316 1107 z "},"ŝ":{"ha":731,"x_min":0,"x_max":0,"o":"m 442 1065 l 294 1065 l 113 850 l 265 850 l 366 978 l 370 978 l 471 850 l 623 850 z m 54 527 b 267 313 54 418 127 345 l 405 282 b 498 207 473 266 498 245 b 372 127 498 158 450 127 b 229 226 290 127 239 163 l 36 226 b 366 -13 46 82 170 -13 b 695 228 562 -13 695 83 b 486 431 695 339 635 397 l 345 461 b 245 539 278 477 245 502 b 364 619 245 587 293 619 b 494 523 440 619 490 582 l 677 523 b 367 760 674 665 551 760 b 54 527 178 760 54 667 z "},"ṥ":{"ha":731,"x_min":0,"x_max":0,"o":"m 54 527 b 267 313 54 418 127 345 l 405 282 b 498 207 473 266 498 245 b 372 127 498 158 450 127 b 229 226 290 127 239 163 l 36 226 b 366 -13 46 82 170 -13 b 695 228 562 -13 695 83 b 486 431 695 339 635 397 l 345 461 b 245 539 278 477 245 502 b 364 619 245 587 293 619 b 494 523 440 619 490 582 l 677 523 b 367 760 674 665 551 760 b 54 527 178 760 54 667 z m 516 857 l 694 1067 l 509 1067 l 359 857 z m 203 859 b 305 959 260 859 305 904 b 203 1060 305 1015 260 1060 b 101 959 146 1060 101 1015 b 203 859 101 904 146 859 z "},"ś":{"ha":731,"x_min":0,"x_max":0,"o":"m 54 527 b 267 313 54 418 127 345 l 405 282 b 498 207 473 266 498 245 b 372 127 498 158 450 127 b 229 226 290 127 239 163 l 36 226 b 366 -13 46 82 170 -13 b 695 228 562 -13 695 83 b 486 431 695 339 635 397 l 345 461 b 245 539 278 477 245 502 b 364 619 245 587 293 619 b 494 523 440 619 490 582 l 677 523 b 367 760 674 665 551 760 b 54 527 178 760 54 667 z m 444 857 l 623 1067 l 437 1067 l 288 857 z "},"t":{"ha":503,"x_min":0,"x_max":0,"o":"m 120 913 l 120 747 l 19 747 l 19 597 l 120 597 l 120 201 b 361 -3 120 56 188 -3 b 456 5 401 -3 436 1 l 456 152 b 407 149 444 150 425 149 b 318 234 347 149 318 176 l 318 597 l 456 597 l 456 747 l 318 747 l 318 913 z "},"ṱ":{"ha":503,"x_min":0,"x_max":0,"o":"m 120 913 l 120 747 l 19 747 l 19 597 l 120 597 l 120 201 b 361 -3 120 56 188 -3 b 456 5 401 -3 436 1 l 456 152 b 407 149 444 150 425 149 b 318 234 347 149 318 176 l 318 597 l 456 597 l 456 747 l 318 747 l 318 913 z m 210 -109 l 24 -324 l 175 -324 l 286 -191 l 290 -191 l 400 -324 l 551 -324 l 365 -109 z "},"ṭ":{"ha":503,"x_min":0,"x_max":0,"o":"m 288 -311 b 389 -210 345 -311 389 -265 b 288 -109 389 -154 345 -109 b 186 -210 231 -109 186 -154 b 288 -311 186 -265 231 -311 z m 120 913 l 120 747 l 19 747 l 19 597 l 120 597 l 120 201 b 361 -3 120 56 188 -3 b 456 5 401 -3 436 1 l 456 152 b 407 149 444 150 425 149 b 318 234 347 149 318 176 l 318 597 l 456 597 l 456 747 l 318 747 l 318 913 z "},"ț":{"ha":503,"x_min":0,"x_max":0,"o":"m 273 -339 l 381 -105 l 208 -105 l 125 -339 z m 120 913 l 120 747 l 19 747 l 19 597 l 120 597 l 120 201 b 361 -3 120 56 188 -3 b 456 5 401 -3 436 1 l 456 152 b 407 149 444 150 425 149 b 318 234 347 149 318 176 l 318 597 l 456 597 l 456 747 l 318 747 l 318 913 z "},"ṫ":{"ha":503,"x_min":0,"x_max":0,"o":"m 220 1009 b 321 1109 277 1009 321 1055 b 220 1211 321 1165 277 1211 b 117 1109 163 1211 117 1165 b 220 1009 117 1055 163 1009 z m 120 913 l 120 747 l 19 747 l 19 597 l 120 597 l 120 201 b 361 -3 120 56 188 -3 b 456 5 401 -3 436 1 l 456 152 b 407 149 444 150 425 149 b 318 234 347 149 318 176 l 318 597 l 456 597 l 456 747 l 318 747 l 318 913 z "}}}
